<?xml version="1.0" encoding="utf-8"?>
<!-- Generator: Adobe Illustrator 15.0.2, SVG Export Plug-In . SVG Version: 6.00 Build 0)  -->
<!DOCTYPE svg PUBLIC "-//W3C//DTD SVG 1.1//EN" "http://www.w3.org/Graphics/SVG/1.1/DTD/svg11.dtd">
<svg version="1.1" id="Layer_1" xmlns="http://www.w3.org/2000/svg" xmlns:xlink="http://www.w3.org/1999/xlink" x="0px" y="0px"
	 width="90.797px" height="95.621px" viewBox="0 0 90.797 95.621" enable-background="new 0 0 90.797 95.621" xml:space="preserve">
<path d="M55.046,0l0.284,0.567c-3.405,7.33-5.107,15.937-5.107,25.821c0.188,0.709,0.283,1.466,0.283,2.27
	c0,0.189-0.095,0.284-0.283,0.284l0.283,1.419v3.121c0,7.661,2.838,16.551,8.512,26.672c1.893,4.256,2.838,8.229,2.838,11.916v0.284
	c3.736-1.513,6.951-2.27,9.647-2.27h1.419c5.959,0.047,9.931,2.979,11.917,8.796l0.284,1.418c0,4.021-2.743,7.898-8.229,11.635
	c-5.107,2.459-9.742,3.688-13.904,3.688H59.87c-5.627,0-12.721-3.404-21.28-10.215c-0.946-0.992-1.419-1.749-1.419-2.27
	c1.939-0.52,7.235-1.276,15.89-2.27c4.257,0,7.472,0.945,9.647,2.838c3.783-5.676,7.377-8.513,10.782-8.513h0.567
	c3.404,0.473,5.107,2.175,5.107,5.106c-0.709,1.703-1.655,2.555-2.838,2.555c-1.371,0-2.128-1.23-2.27-3.689h-0.283l-0.284,1.42
	c0.378,2.08,1.324,3.121,2.837,3.121h0.568c1.654,0,2.789-1.23,3.404-3.689c0-2.695-1.797-4.776-5.391-6.242h-3.689
	c-2.316,0-5.438,2.27-9.363,6.811c-4.114-5.297-7.235-7.945-9.363-7.945c0-0.568-2.554-0.946-7.661-1.135h-0.284
	c-3.263,0-8.087,1.513-14.471,4.539c0-0.945-2.081-1.986-6.242-3.121h-0.851c-1.608,0-2.837,0.568-3.689,1.703l1.419-0.284h2.554
	c3.216,0,5.58,1.513,7.093,4.54c3.689-3.357,7.945-5.25,12.769-5.675c0.426,0,0.804-0.095,1.135-0.284
	c6.715,0,11.729,2.081,15.038,6.242v0.284l-0.284,0.567c-1.607-0.756-3.215-1.135-4.823-1.135l-22.983,2.838h-1.703
	c-7.377,0-12.958-2.838-16.741-8.513C8.796,68.524,6.053,62.565,4.54,55.33C3.783,41.332,2.648,33.198,1.135,30.928L0,26.956
	l0.567-0.284c3.547,4.871,6.384,12.816,8.512,23.834c0.568,1.939,0.852,3.453,0.852,4.541l0.567-0.284
	c0-5.344-0.851-11.681-2.554-19.011l0.567-0.284c1.513,1.513,3.216,5.107,5.107,10.782c0.946,4.067,2.175,8.607,3.689,13.62h0.284
	v-1.702c0-2.695-0.662-6.668-1.986-11.918l0.567-0.283c1.419,0,3.973,4.823,7.661,14.471h0.284v-1.986
	c-0.331-2.885-0.804-5.438-1.418-7.661v-0.567h0.567c3.074,3.264,5.249,7.047,6.526,11.35h0.284c0-1.324,0.095-2.08,0.284-2.27
	l-0.851-6.526l0.567-0.284h0.284c2.554,3.169,4.067,5.912,4.54,8.229h0.567c-0.236-2.837-0.52-5.296-0.851-7.377l0.567-0.283h0.284
	c1.324,1.371,2.743,4.02,4.256,7.944h0.284v-2.837c0-0.236-0.189-1.277-0.567-3.121v-0.568c0.047-0.378,0.236-0.567,0.567-0.567
	c2.034,2.128,3.547,4.776,4.54,7.944h0.284v-0.851c0-0.993-0.095-2.885-0.284-5.675l0.567-0.283
	c1.088,0.992,2.034,2.789,2.837,5.391h0.284l-0.852-5.675l0.567-0.284h0.284c2.08,2.459,3.311,4.445,3.688,5.959h0.284V59.87
	c0-2.271-1.798-5.485-5.392-9.647c0,2.459-0.284,3.688-0.852,3.688h-0.284c-1.702-2.175-2.554-3.499-2.554-3.972h-0.284v4.256
	c0,0.378-0.189,0.567-0.567,0.567H41.71c0-0.757-1.041-2.459-3.121-5.107c-0.284,1.892-0.662,2.837-1.135,2.837
	c-0.662-1.418-1.797-4.823-3.405-10.215c-0.331,0-1.939-3.499-4.824-10.498c-3.405-6.857-7.188-12.91-11.35-18.16
	c-2.601-3.168-5.06-5.154-7.377-5.958V7.377l0.567-0.284c5.722,0,13.856,7.85,24.402,23.551c3.216,5.296,5.675,8.891,7.377,10.782
	h0.284c0-0.567-0.094-0.852-0.284-0.852c0-5.769,1.229-13.241,3.688-22.416C49.418,8.843,52.256,2.79,55.046,0z M43.98,22.7h0.284
	c0.378,0.047,0.567,0.236,0.567,0.567c-1.277,3.831-2.317,8.749-3.121,14.754h-0.284c-2.554-4.256-5.202-8.229-7.945-11.917
	c0.047-0.378,0.236-0.567,0.567-0.567h0.284c1.182,0,2.979,1.229,5.391,3.688h0.567C40.292,27.901,41.521,25.726,43.98,22.7z
	 M38.021,19.579c0.426,1.371,1.466,2.884,3.122,4.54c-0.757,2.459-1.419,3.689-1.986,3.689l-2.837-2.27v-0.284
	c0.567-0.757,1.04-1.892,1.418-3.405c-0.189-0.331-0.284-0.709-0.284-1.135v-0.567C37.501,19.768,37.69,19.579,38.021,19.579z
	 M79.165,5.675c2.979,3.358,5.533,7.803,7.661,13.336c2.647,6.763,3.972,13.762,3.972,20.997v0.852
	c0,10.641-4.256,19.909-12.768,27.807c-1.514-0.379-2.648-0.567-3.405-0.567c-3.452,0.331-5.628,0.71-6.526,1.135l-0.283-0.567
	c0-1.844,2.08-3.926,6.242-6.242l3.688-0.568l0.567,0.285c0.332-0.189,0.709-0.285,1.135-0.285h0.284l0.567,0.285
	c0-4.73,1.324-8.797,3.973-12.201h-0.283c-3.406,2.695-5.107,5.438-5.107,8.229v1.986l-0.568,0.851l-3.404-0.567
	c-3.973,1.229-7.094,3.688-9.363,7.377c-0.521,1.277-1.088,2.129-1.703,2.555h-0.283c-0.379,0-0.568-0.189-0.568-0.568v-1.418
	c0-3.973-1.797-9.837-5.391-17.593l0.567-0.284c3.073,2.791,4.871,4.967,5.392,6.527h0.283c-0.379-2.46-0.567-4.068-0.567-4.824
	c0-2.838,0.284-4.256,0.851-4.256h0.284c0.237,0,1.466,2.837,3.688,8.512h0.284v-0.283c-0.567-1.986-0.852-4.352-0.852-7.094
	c0.142-3.783,0.615-5.675,1.419-5.675c0.331,0,1.088,2.364,2.27,7.093c0.379,0,0.568,0.474,0.568,1.42h0.283v-0.284
	c-0.756-3.074-1.135-5.345-1.135-6.81V43.98l0.283-1.703c0-0.188-0.094-0.283-0.283-0.283c0.379-2.648,0.852-3.973,1.418-3.973
	c0.615,0.521,1.372,3.169,2.271,7.945l1.986,4.256h0.284v-0.567c-1.135-2.223-1.986-6.763-2.555-13.62
	c0.284-4.729,0.758-7.094,1.42-7.094h0.283c0.283,0.095,1.324,3.688,3.121,10.782c0.615,1.891,1.088,2.837,1.418,2.837
	c-1.891-9.127-2.837-17.261-2.837-24.402l0.567-0.284c1.135,0,3.121,4.918,5.959,14.754l1.418,5.959h0.284v-0.284l-0.284-1.419
	l0.284-1.986c-0.757-8.465-2.175-15.653-4.256-21.564c-2.081-4.54-3.121-6.999-3.121-7.377L79.165,5.675z M85.974,81.435
	c3.026,2.459,4.54,3.783,4.54,3.972v0.568h-0.283c-2.555,0.378-4.162,0.567-4.824,0.567h-1.418v-1.419
	c0.709-1.135,1.182-2.364,1.418-3.688H85.974z"/>
</svg>
