<?xml version="1.0" encoding="utf-8"?>
<!-- Generator: Adobe Illustrator 15.0.2, SVG Export Plug-In . SVG Version: 6.00 Build 0)  -->
<!DOCTYPE svg PUBLIC "-//W3C//DTD SVG 1.1//EN" "http://www.w3.org/Graphics/SVG/1.1/DTD/svg11.dtd">
<svg version="1.1" id="Layer_1" xmlns="http://www.w3.org/2000/svg" xmlns:xlink="http://www.w3.org/1999/xlink" x="0px" y="0px"
	 width="90.627px" height="65.05px" viewBox="0 0 90.627 65.05" enable-background="new 0 0 90.627 65.05" xml:space="preserve">
<path d="M90.627,46.27l-0.526,0.462c-9.857,0.967-22.927,4.383-39.209,10.233c-0.392,2.637-1.939,3.98-4.62,4.023
	c-0.835,2.949-2.573,4.292-5.213,4.029c-1.101-0.086-2.178-0.419-3.236-0.988c-0.658,0.746-1.496,1.074-2.509,0.988
	c-1.099-0.086-2.2-0.569-3.298-1.45c-2.114,0.924-4.555,1.272-7.327,1.053c-4.842-0.44-9.11-1.934-12.806-4.491
	c-4.136-2.814-6.69-6.446-7.657-10.888l-4.026-3.035L0,45.615l0.397-0.462l3.696-0.924c0.352-1.413,0.991-2.707,1.915-3.9
	c1.099-1.364,2.286-2.197,3.564-2.503c0.661-0.134,1.297-0.204,1.915-0.204c2.857,0,5.17,1.477,6.929,4.426l1.518,0.397l0.397-1.521
	c-1.937-3.212-4.534-4.971-7.789-5.28c-0.838-0.043-1.673,0-2.508,0.132c-1.542-4.225-2.442-8.56-2.708-13.005
	c-0.22-3.959-1.716-10.053-4.488-18.283l0.132-0.594L3.5,3.696c2.289,0.177,4.51,2.42,6.667,6.734
	c2.246,0.043,4.247,2.42,6.006,7.128l0.462,0.067c1.851,0.131,3.344,2.463,4.491,6.997h0.725c1.805,0.132,3.081,2.044,3.828,5.743
	c0.397,0.088,0.991,0.636,1.783,1.649c-0.75,0.924-1.574,2.586-2.477,4.985c-0.902,2.396-1.396,4.126-1.485,5.179
	c-0.132,1.633,0.231,3.234,1.09,4.824c0.857,1.579,2.057,2.729,3.596,3.427l1.453-0.526l-0.529-1.451
	c-1.145-0.569-2.036-1.439-2.673-2.61c-0.639-1.161-0.892-2.342-0.76-3.529c0.309-3.696,1.751-7.139,4.324-10.33
	c2.576-3.191,4.939-5.337,7.096-6.436c2.2-3.301,4.786-6.424,7.757-9.374c2.97-2.949,6.827-8.251,11.587-15.909L56.968,0
	l0.526,0.263c0.704,1.056,0.967,2.466,0.795,4.225c-0.269,3.124-1.568,6.822-3.9,11.09c0.795,1.319,1.128,2.705,0.994,4.158
	c-0.177,2.025-1.058,3.917-2.637,5.675c0.301,0.792,0.414,1.652,0.322,2.576c-0.215,2.2-1.343,4.335-3.363,6.403
	c0.22,0.704,0.306,1.429,0.263,2.178c-0.177,1.676-1.037,3.191-2.573,4.556c0.132,0.397,0.483,0.988,1.056,1.783
	c0.481,0.569,0.707,1.182,0.664,1.848c-0.048,0.613-0.312,1.322-0.795,2.111l0.333,1.52l1.515-0.397
	c0.661-1.101,1.031-2.116,1.123-3.041c0.086-1.182-0.22-2.31-0.924-3.362c8.89-5.721,17.007-13.62,24.355-23.698l0.661-0.263
	l0.462,0.526c0.172,0.75,0.22,1.518,0.129,2.31c-0.392,4.797-3.911,10.034-10.561,15.709v0.73c0,1.671-1.117,3.32-3.363,4.948
	c1.848,0.134,3.234,0.661,4.158,1.584c3.341-0.924,6.645-1.386,9.9-1.386c0.972,0,1.939,0.043,2.906,0.129
	c4.663,0.44,8.444,1.59,11.356,3.438L90.627,46.27z M13.599,45.679c0.089-1.322-0.508-2.025-1.783-2.117
	c-1.276-0.129-1.979,0.44-2.111,1.719c-0.088,1.278,0.505,1.977,1.784,2.111C12.763,47.484,13.467,46.909,13.599,45.679z"/>
</svg>
