<?xml version="1.0" encoding="utf-8"?>
<!-- Generator: Adobe Illustrator 15.0.2, SVG Export Plug-In . SVG Version: 6.00 Build 0)  -->
<!DOCTYPE svg PUBLIC "-//W3C//DTD SVG 1.1//EN" "http://www.w3.org/Graphics/SVG/1.1/DTD/svg11.dtd">
<svg version="1.1" id="Layer_1" xmlns="http://www.w3.org/2000/svg" xmlns:xlink="http://www.w3.org/1999/xlink" x="0px" y="0px"
	 width="90.577px" height="60.627px" viewBox="0 0 90.577 60.627" enable-background="new 0 0 90.577 60.627" xml:space="preserve">
<path d="M4.901,18.152h0.363c0.151,0,0.454,0.302,0.907,0.908c0,0.181-0.181,0.363-0.544,0.544C3.388,19.725,1.513,19.786,0,19.786
	v-0.182C0,19.301,1.634,18.817,4.901,18.152z M9.983,38.119c1.089,0.787,1.694,1.332,1.815,1.634L3.63,46.105
	c-0.242,0-0.363-0.121-0.363-0.363c1.452-1.573,3.63-4.114,6.535-7.624H9.983z M13.795,14.703h0.363l1.271,1.271v0.182
	c-0.454,0.575-3.056,1.422-7.806,2.541c-0.605-0.182-0.907-0.605-0.907-1.271C7.684,16.609,10.044,15.701,13.795,14.703z
	 M14.884,32.31c1.573,0.938,2.36,1.482,2.36,1.634c-0.061,0.393-1.634,1.906-4.719,4.538h-0.182
	c-0.968-0.666-1.452-1.089-1.452-1.271V37.03C11.829,35.487,13.16,33.914,14.884,32.31z M23.234,10.165
	c0.575,0.151,1.603,0.938,3.085,2.36v0.363c-0.03,0.182-2.632,1.029-7.805,2.542c-0.847,0.363-1.452,0.544-1.815,0.544l-1.634-1.997
	c0-0.091,1.573-0.817,4.719-2.178C21.661,10.709,22.811,10.165,23.234,10.165z M22.508,24.687h0.181
	c0.968,0.756,1.452,1.301,1.452,1.633c0,0.394-1.997,2.693-5.99,6.898H17.97c-1.452-0.999-2.299-1.725-2.541-2.178
	C15.61,30.707,17.97,28.589,22.508,24.687z M26.501,42.838c0.968,0.303,1.452,0.545,1.452,0.726v0.182
	c0,0.878-1.452,2.936-4.356,6.172c-0.242,0-0.363-0.182-0.363-0.545c0.877-1.422,1.906-3.6,3.085-6.534H26.501z M29.406,13.432
	c1.936,2.36,2.904,3.751,2.904,4.175c0,1.119-0.666,2.571-1.997,4.356c-0.303,0-0.605-0.423-0.908-1.271h-0.908
	c-1.966,2.995-3.055,4.568-3.267,4.72c-0.151,0-0.756-0.605-1.815-1.815c0-0.454,1.029-1.845,3.086-4.175
	c1.089-1.875,1.997-3.873,2.723-5.99H29.406z M32.673,3.63h0.181c0.242,0.03,0.363,0.151,0.363,0.363
	c0,1.028-0.061,3.388-0.182,7.079c0.242,2.935,0.363,4.628,0.363,5.083h-0.545c-1.694-2.088-2.723-3.721-3.085-4.901h-0.545
	c0,0.303-0.363,0.666-1.089,1.089h-0.363c-0.575-0.696-1.664-1.664-3.267-2.904V9.257c0-0.182,1.331-0.968,3.993-2.36L32.673,3.63z
	 M28.68,34.307c1.936,0.394,2.904,0.756,2.904,1.089c-1.392,4.719-2.42,7.08-3.086,7.08c-0.423,0-1.089-0.303-1.997-0.908
	c1.21-4.568,1.815-6.988,1.815-7.261H28.68z M29.95,27.409c1.815,0.272,2.723,0.696,2.723,1.271
	c-0.394,3.509-0.696,5.264-0.908,5.264c-2.178-0.605-3.268-1.15-3.268-1.634c0.545-1.331,0.968-2.965,1.271-4.901H29.95z
	 M33.399,18.515c0.968,1.271,1.452,2.299,1.452,3.086c-0.726,2.723-1.271,4.538-1.634,5.445h-0.182
	c-1.936-0.454-3.025-0.877-3.267-1.271v-0.182c1.18-1.18,2.329-3.54,3.449-7.079H33.399z M34.67,8.35
	c1.573,2.844,2.359,5.143,2.359,6.898L35.033,16.7h-0.181c-0.363,0-0.545-1.392-0.545-4.175V9.983c0-0.272-0.061-0.514-0.181-0.726
	C34.276,8.652,34.458,8.35,34.67,8.35z M36.303,18.696h0.182c0.938,0,1.604,0.363,1.997,1.089v1.271
	c-1.089,4.356-1.875,6.535-2.359,6.535H35.94c-0.242,0-0.363-0.121-0.363-0.363c-0.121-2.844-0.181-4.78-0.181-5.809
	c0-0.091,0.061-0.454,0.181-1.089l-0.181-0.363C35.638,19.21,35.94,18.787,36.303,18.696z M35.94,0.726
	c0.968,0.605,2.299,1.755,3.993,3.449V5.99c0,0.756,0.242,3.116,0.726,7.079c-1.149,0.605-1.997,0.908-2.541,0.908L35.577,1.089
	C35.607,0.847,35.729,0.726,35.94,0.726z M42.112,13.795h1.997c2.632,0,4.628,1.694,5.99,5.083v0.544
	c-0.121,0-0.182,0.061-0.182,0.182l-1.814-0.363c-1.029,0-2.179,0.363-3.449,1.089h-0.182c-0.847-1.331-1.754-1.997-2.723-1.997
	c-0.696,0.363-1.301,0.786-1.815,1.271h-0.181c-0.696-1.331-1.543-1.997-2.542-1.997h-0.182l-0.907,0.181l-0.182-0.363
	C37.393,15.61,39.45,14.4,42.112,13.795z M38.3,25.594c0.454,0,0.998,2.663,1.633,7.987c0.242,0,0.363,0.303,0.363,0.908
	c-0.363,0.121-0.544,0.242-0.544,0.363c-2.42,0-3.63-0.303-3.63-0.908c0-0.394,0.666-3.177,1.997-8.35H38.3z M36.667,35.578h0.182
	c0.635,0,1.664,0.06,3.085,0.181v0.363c-0.302,2.178-0.666,3.268-1.089,3.268c-1.452,0-2.178-0.303-2.178-0.908
	c-0.242-1.089-0.363-1.876-0.363-2.36V35.94C36.333,35.698,36.455,35.578,36.667,35.578z M37.029,40.297h1.452
	c0.242,0,0.363,0.182,0.363,0.544c-0.514,5.446-0.938,8.169-1.271,8.169c-0.121,0-0.303-0.242-0.545-0.726l0.182-0.908
	C37.09,43.292,37.029,40.933,37.029,40.297z M37.574,0c4.023,1.422,6.141,2.39,6.353,2.904l-2.723,0.908h-0.182
	c-0.212,0-1.482-1.089-3.812-3.268V0.363C37.241,0.121,37.362,0,37.574,0z M41.749,19.604h0.363c0.666,0,1.15,0.302,1.452,0.908
	v0.181c-1.059,5.083-2.027,7.624-2.904,7.624h-0.363l-0.182-0.908c0-0.121,0.061-0.182,0.182-0.182l-0.182-0.908v-1.271
	c0-0.121,0.061-0.182,0.182-0.182l-0.182-0.363v-2.178C40.115,20.512,40.66,19.604,41.749,19.604z M52.097,1.634
	c3.568,0,6.17,1.573,7.805,4.719v0.182c-1.906,0.605-4.023,1.089-6.354,1.452c-1.211,0-1.814,0.605-1.814,1.815
	c-0.637,3.661-1.119,5.658-1.453,5.99h-0.182c-2.238-2.148-4.114-3.237-5.627-3.267h-2.723c-0.242,0-0.363-0.121-0.363-0.363
	c0.484-3.116,1.271-5.354,2.36-6.716C46.136,2.904,48.919,1.634,52.097,1.634z M43.927,24.142l1.452,2.723v0.726
	c0,0.302-0.484,0.544-1.452,0.726h-1.271c-0.242,0-0.363-0.121-0.363-0.363C43.11,25.443,43.655,24.172,43.927,24.142z
	 M46.105,25.231c1.089,1.271,1.997,3.267,2.723,5.99c0.604,3.237,0.907,5.959,0.907,8.168l-0.544,0.363h-2.179
	c-0.635,0-0.998-0.182-1.089-0.545c0.363-1.332,0.604-3.63,0.726-6.898c-0.242-2.874-0.604-5.113-1.088-6.716L46.105,25.231z
	 M49.01,20.875h0.362c1.906,0,3.541,0.847,4.902,2.541v0.908c-1.998,2.783-3.631,4.175-4.902,4.175
	c-0.816-2.511-1.966-4.689-3.448-6.535v-0.181C45.924,21.389,46.952,21.086,49.01,20.875z M46.468,40.659l0.727,0.182
	c0.061,0,0.848-0.061,2.359-0.182c0,0.121,0.061,0.182,0.182,0.182c-0.121,6.414-0.363,9.621-0.726,9.621h-1.452
	c-0.242,0-0.363-0.182-0.363-0.545c0-1.119-0.363-4.084-1.089-8.895C46.348,41.022,46.468,40.901,46.468,40.659z M47.921,51.37
	c0.121,0,0.182,0.061,0.182,0.181l0.363-0.181h0.362l0.544,0.362c-0.15,5.93-0.453,8.895-0.906,8.895
	c-0.334-0.907-0.696-3.872-1.09-8.895L47.921,51.37z M54.456,16.336c0.574,0,1.725,1.089,3.447,3.268
	c1.303,0.938,2.391,1.906,3.268,2.904c-0.514,2.42-0.938,3.63-1.27,3.63c-3.42-3.025-6.203-5.204-8.35-6.535l-0.727-2.723
	l0.545-0.363h1.996L54.456,16.336z M53.003,9.983l3.994,2.36v0.363c-1.211,1.876-1.938,2.844-2.178,2.904h-0.363
	c-0.395,0-0.697-0.061-0.908-0.181l-1.09,0.181h-0.543c-0.242,0-0.363-0.121-0.363-0.363C51.976,11.738,52.458,9.983,53.003,9.983z
	 M64.075,6.353l0.182,0.363c-0.664,2.299-1.754,3.449-3.268,3.449c-1.572,0.968-2.723,1.452-3.447,1.452
	c-2.451-1.452-3.723-2.299-3.813-2.542c0-0.272,3.328-1.18,9.982-2.723H64.075z M60.808,11.436h0.363l0.363,0.182
	c-0.242,1.21-0.363,2.299-0.363,3.267v0.545c0,0.423-1.33,1.089-3.992,1.997c-0.242,0-0.363-0.121-0.363-0.363V15.61
	C57.603,14.038,58.933,12.646,60.808,11.436z M65.71,16.336c0.545,0,1.27,1.452,2.178,4.356l-0.545,0.363
	c-0.393,0-0.695-0.061-0.906-0.182l-4.176,0.544h-0.182c-1.814-1.482-2.723-2.511-2.723-3.085
	C61.384,17.002,63.501,16.336,65.71,16.336z M62.261,23.597h0.182c3.328,3.54,5.506,5.718,6.535,6.535v0.363
	c-1.029,1.21-1.877,1.815-2.541,1.815c-3.51-3.418-5.266-5.234-5.266-5.445C61.626,24.687,61.989,23.597,62.261,23.597z
	 M65.71,6.716h0.182c0.393,0.423,1.301,2.723,2.723,6.897c-0.545,0.605-1.211,0.908-1.998,0.908
	c-1.33-3.268-1.996-5.143-1.996-5.627V8.531C65.194,7.321,65.558,6.716,65.71,6.716z M69.159,14.703l4.719,6.353
	c0,0.302-1.271,0.666-3.813,1.089h-0.182c-0.424,0-1.27-2.239-2.541-6.716C67.677,15.157,68.28,14.915,69.159,14.703z
	 M69.702,31.402h0.182c0.637,0.635,2.148,2.935,4.539,6.898c1.936,2.48,2.904,3.873,2.904,4.175l-0.727,0.544h-0.908
	c-0.756-0.636-3.418-3.842-7.986-9.62v-0.182C68.946,32.008,69.612,31.402,69.702,31.402z M74.06,21.963
	c0.666,0,3.631,1.694,8.895,5.083l0.182,0.363c-0.182,1.089-0.545,1.634-1.09,1.634c-3.297-1.725-6.988-3.479-11.072-5.264
	l-0.363-0.544C70.61,23.053,71.761,22.629,74.06,21.963z M77.872,43.383c0.301,0.121,1.512,1.937,3.629,5.445v0.182
	c0,0.242-0.121,0.362-0.363,0.362c-2.51-2.631-4.023-4.387-4.537-5.264C76.812,43.624,77.235,43.383,77.872,43.383z M84.405,28.317
	h0.182c1.967,1.271,3.963,3.267,5.99,5.99v0.182c0,0.242-0.121,0.363-0.363,0.363l-6.533-5.083
	C83.892,28.801,84.134,28.317,84.405,28.317z"/>
</svg>
