<?xml version="1.0" encoding="utf-8"?>
<!-- Generator: Adobe Illustrator 15.0.2, SVG Export Plug-In . SVG Version: 6.00 Build 0)  -->
<!DOCTYPE svg PUBLIC "-//W3C//DTD SVG 1.1//EN" "http://www.w3.org/Graphics/SVG/1.1/DTD/svg11.dtd">
<svg version="1.1" id="Layer_1" xmlns="http://www.w3.org/2000/svg" xmlns:xlink="http://www.w3.org/1999/xlink" x="0px" y="0px"
	 width="42.389px" height="90.911px" viewBox="0 0 42.389 90.911" enable-background="new 0 0 42.389 90.911" xml:space="preserve">
<path d="M4.799,80.514v0.533c-0.667,0-1.289,0.622-1.866,1.866h0.267l1.333-0.267v0.267l-1.333,2.133h0.267
	c1.777-1.422,3.199-2.133,4.266-2.133v0.267c-1.422,1.511-2.133,2.577-2.133,3.199l3.199-2.399c0,0.178,0.089,0.267,0.267,0.267
	c-0.355,0.533-0.622,1.511-0.8,2.933h0.267c0.622-0.355,1.511-0.622,2.666-0.8v0.267c-1.466,1.244-2.888,2.666-4.266,4.266
	l-0.267-0.533v-2.666c-0.311,0-1.466,0.978-3.466,2.933H2.933v-0.267c0-0.755,0.355-2.177,1.066-4.266
	c-1.022,0.533-2,1.244-2.933,2.133H0.8c0.533-1.999,0.8-3.155,0.8-3.466l-1.333,0.8c0-0.178-0.089-0.267-0.267-0.267
	C1.6,82.113,3.199,80.514,4.799,80.514z M5.865,67.184h0.267v0.267c-1.066,1.378-1.6,2.888-1.6,4.532l1.6,0.267h0.8
	c1.333,0,3.021-1.244,5.065-3.732h0.533c-0.711,0.755-1.155,1.556-1.333,2.399c0.178,0.355,0.267,0.622,0.267,0.8h-0.267
	c-0.355,0-0.533-0.267-0.533-0.8c-0.622,0.178-1.066,0.8-1.333,1.866l0.533,1.6l-0.533,0.267c-0.711-1.021-1.066-1.732-1.066-2.133
	c-1.422,0.089-2.133,0.355-2.133,0.8v1.333H5.599c0-1.244-0.978-2.222-2.933-2.933C1.955,70.783,1.6,69.805,1.6,68.783l0.533-0.267
	c0,0.711,0.267,1.066,0.8,1.066C3.155,69.583,4.132,68.783,5.865,67.184z M13.33,54.12v0.267c0,0.311-2.222,2.177-6.665,5.599
	l-0.533,1.866v1.066l-1.333-0.267c0.178,1.066,0.267,1.866,0.267,2.399h-0.8c-0.444,1.777-0.8,2.666-1.066,2.666
	c0-0.178-0.089-0.267-0.267-0.267c0,0.178-0.089,0.267-0.267,0.267v-0.533c1.644-6.043,2.977-9.064,3.999-9.064
	C9.775,56.431,11.997,55.098,13.33,54.12z M8.531,53.32c0.355,0.444,0.622,1.333,0.8,2.666H9.064l-0.8-0.533H7.731l-2.133,2.666
	v-0.533C6.487,55.498,7.465,54.076,8.531,53.32z M20.262,63.451h0.533v0.267c0,2.311,0.622,3.466,1.866,3.466h0.8
	c-1.777,1.021-2.666,1.645-2.666,1.866h1.6v0.267c-2.044,1.199-3.11,2-3.199,2.399c1.244,0.178,1.866,0.444,1.866,0.8v0.267
	c-1.244,0-2.666,0.622-4.266,1.866v0.267c1.244,0.355,1.866,0.711,1.866,1.066c-0.178,0-0.267,0.089-0.267,0.267l-0.533-0.267
	h-1.066c-1.377,0-2.177,0.355-2.399,1.066v1.333H13.33c-1.066,0.089-1.6,0.355-1.6,0.8v1.333l-1.866-0.267l-1.333,1.866
	c-0.533-0.889-1.155-1.333-1.866-1.333v-0.267c3.244-1.688,5.465-3.021,6.665-3.999c4.621-3.821,6.932-7.998,6.932-12.53V63.451z
	 M11.73,21.328h0.533v0.267c-1.066,1.777-1.777,4.088-2.133,6.932c0,2.622,0.8,5.376,2.399,8.265l-0.533,0.267
	c-3.021-2.977-4.532-5.821-4.532-8.531C7.465,25.238,8.887,22.839,11.73,21.328z M8.531,63.185l1.866,0.267v0.533
	c-0.578,0-1.022,0.089-1.333,0.267v-0.533H8.531v1.066H7.465v-0.533C7.465,63.984,7.82,63.629,8.531,63.185z M15.729,54.12
	c1.422,1.111,2.133,2.71,2.133,4.799c-0.178,0.312-0.267,0.667-0.267,1.066v1.066h-0.533c-0.178-3.021-0.622-4.532-1.333-4.532
	c-1.6,0.889-2.399,1.955-2.399,3.199v1.333c0,0.622,0.978,1.066,2.933,1.333c0.267,0,1.333-0.267,3.199-0.8h0.267v0.267
	l-2.133,3.199h0.267l1.066-0.533l0.267,0.533c-0.267,0-0.622,0.711-1.066,2.133l0.533,1.6c-0.622,1.422-1.066,2.133-1.333,2.133
	h-0.267c-0.267,0-0.622-0.355-1.066-1.066c0.711-0.267,1.066-0.533,1.066-0.8c-2.666-0.889-3.999-1.422-3.999-1.6v-0.267
	l2.666-0.267V66.65c-1.555-0.178-2.533-0.267-2.933-0.267c-1.333,0-2.933,0.355-4.799,1.066v-0.267
	c2.577-2.133,4.799-3.199,6.665-3.199v-0.267c-1.733-0.667-3.51-1.11-5.332-1.333l-0.533,0.267h-0.8c0-0.622,1.155-1.155,3.466-1.6
	v-0.267h-1.6c-0.755,0-1.466,0.178-2.133,0.533v-0.533c4.799-2.178,7.198-4.221,7.198-6.132L15.729,54.12z M30.125,52.254
	c2.488,0.178,3.732,1.422,3.732,3.732c0,3.332-3.021,9.287-9.064,17.862c-7.243,7.82-11.686,11.73-13.33,11.73l-2.399,0.267
	c0.933-1.066,2.088-1.777,3.466-2.133v-0.267c-0.444,0-1.244-0.178-2.399-0.533V82.38h0.267c1.511,0,3.11-0.267,4.799-0.8v-0.533
	c-0.978,0-1.688-0.355-2.133-1.066v-0.267h2.133c0.533,0,1.6-0.267,3.199-0.8v-0.267c-0.222,0-1.111-0.355-2.666-1.066v-0.533h2.399
	c1.6,0,2.844-0.622,3.732-1.866l-1.866-0.267h-1.6v-0.533c3.11-0.533,5.065-1.155,5.865-1.866c-0.889,0-1.955-0.533-3.199-1.6
	v-0.267l1.6,0.267c1.955-0.178,2.933-0.533,2.933-1.066v-0.267c-0.489,0-1.377-0.267-2.666-0.8V68.25h0.267
	c0.178,0,0.444,0.089,0.8,0.267c1.866,0,3.199-0.711,3.999-2.133v-1.066l-1.866-0.533l-3.732,1.066h-0.267
	c0.489-1.11,3.244-2.888,8.265-5.332c0-0.355,0.088-0.533,0.266-0.533c-0.266-0.889-0.889-1.333-1.865-1.333h-0.268
	c-1.155,0-3.376,0.8-6.665,2.399c0-1.333,2.755-2.755,8.264-4.266c0.711,0,1.334-0.444,1.867-1.333c0-1.022-0.623-1.644-1.867-1.866
	c-1.999,0.178-3.865,0.622-5.598,1.333v-0.267C26.482,53.054,28.348,52.254,30.125,52.254z M12.53,69.05h0.267
	c1.955,0,3.199,1.066,3.732,3.199c-1.2,1.688-2.977,3.11-5.332,4.266h-0.533c-0.355,0-0.533-0.178-0.533-0.533v-0.533l0.267-1.866
	h0.533c0.044,1.066,0.222,1.6,0.533,1.6c0.711-0.267,1.066-0.533,1.066-0.8v-1.333h0.267c0.578,0.355,1.022,0.533,1.333,0.533
	l0.8-1.066v-1.066c0-0.311-0.8-1.021-2.399-2.133V69.05z M28.793,0h1.6c4.176,0,6.754,1.866,7.73,5.599v1.333
	c0,4.043-5.242,8.576-15.729,13.597c-2.666,2-3.999,4.31-3.999,6.932c1.066,5.332,2.577,7.998,4.532,7.998l0.267-0.533v-1.333
	c-0.311-1.911-1.022-4.132-2.133-6.665h0.533c2.888,7.109,4.932,10.664,6.132,10.664c0.311,0.178,0.667,0.267,1.067,0.267h0.533
	c0.355,0,0.711-0.533,1.066-1.6c0-1.866-1.777-4.532-5.333-7.998h0.533c0.933,0.489,3.155,2.266,6.665,5.332h0.801
	c0-0.178,0.088-0.444,0.266-0.8c0-2.044-2.311-4.354-6.931-6.932l-1.333-0.267v-0.533l5.598,1.333v-0.267
	c-2.177-2.311-4.221-3.466-6.131-3.466v-0.533c4.843,0,8.309,3.11,10.397,9.331v1.066c-0.889,4.621-3.021,6.932-6.398,6.932H27.46
	c-4.799,0-8.265-3.021-10.397-9.064c-0.178-1.511-0.267-2.755-0.267-3.732c0-3.644,3.288-6.843,9.864-9.598v-0.267h-1.066v-0.533
	c0.267,0,1.688-0.267,4.266-0.8V14.93h-0.533v-0.533c2.133-0.267,3.199-0.622,3.199-1.066c-0.268,0-0.533-0.267-0.801-0.8
	l3.732-1.066v-0.267c-0.533,0-0.799-0.178-0.799-0.533s0.621-0.622,1.865-0.8V9.598l-0.799-1.066V8.265l1.865-0.533V7.465
	c-0.711,0-1.066-0.178-1.066-0.533l1.066-1.333c-0.577,0-1.021-0.089-1.332-0.267c0.355-0.578,0.533-1.022,0.533-1.333l-0.533,0.267
	c-0.355,0-0.533-0.178-0.533-0.533h0.266c-0.222-1.066-0.488-1.6-0.799-1.6c0,0.711-0.178,1.066-0.533,1.066
	c-0.445-1.155-0.889-1.777-1.334-1.866l-0.533,1.333c1.955,0.755,2.934,1.822,2.934,3.199v1.066c0,3.466-5.332,6.932-15.997,10.397
	h-0.267c0.222-0.311,2.888-1.555,7.998-3.732c4.798-2.888,7.199-5.465,7.199-7.731c-0.845-2.133-2.533-3.199-5.066-3.199
	c-3.065,0-7.598,2.222-13.596,6.665c-1.155,0.355-1.955,0.533-2.399,0.533h-1.6c-0.533-0.178-0.8-0.711-0.8-1.6
	c0-0.844,2.577-1.555,7.731-2.133c4.532-2.844,8.087-4.266,10.664-4.266l2.934,0.533V2.133c-0.445-0.755-1.066-1.289-1.867-1.6
	c0,0.889-0.178,1.333-0.533,1.333c0-0.533-0.355-0.978-1.066-1.333L27.993,1.6c0-0.267-0.266-0.533-0.799-0.8l-1.066,1.333
	c-0.355,0-0.533-0.267-0.533-0.8c-0.355,0-0.533,0.444-0.533,1.333h-0.533l-0.8-0.533c0,0.711-0.533,1.155-1.6,1.333
	c0,0.4-0.533,0.667-1.6,0.8c0,0.267-1.422,0.978-4.266,2.133V6.132C21.95,2.044,26.127,0,28.793,0z M15.463,42.656v0.533
	c-0.533,0-0.8,0.178-0.8,0.533l1.333,1.6v0.267c-0.889-0.533-1.6-0.8-2.133-0.8l-0.8,1.066l2.399,2.666H14.93l-0.8-0.533h-0.8
	c-0.355,0-0.622,0.711-0.8,2.133c0.355,0.8,0.533,1.6,0.533,2.399c-1.244-1.6-1.866-3.555-1.866-5.865
	C11.197,44.567,12.619,43.234,15.463,42.656z M17.329,18.129h0.533c-1.066,1.6-1.6,2.844-1.6,3.732h-0.267
	c-0.355,0-0.533-0.355-0.533-1.066h-0.267c-0.355,1.6-0.533,2.755-0.533,3.466v0.267l0.267,3.199h-0.267
	c-1.066-0.8-1.6-1.777-1.6-2.933h-0.267v1.333c0,3.377,2.133,7.109,6.398,11.197h-0.267c-0.8,0-2.666-1.066-5.599-3.199
	c3.021,4.266,7.109,7.109,12.264,8.531c0.178,0,0.267,0.089,0.267,0.267l-0.533,0.267c-2.444,0-5.376-0.8-8.798-2.399v0.267
	c2.088,3.955,5.11,6.887,9.064,8.798v0.533c-3.555-1.244-6.132-2.311-7.731-3.199v0.267c0.489,1.733,2.622,4.754,6.398,9.064h-0.267
	c-2.088-1.244-4.221-3.288-6.398-6.132h-0.267v0.267c1.244,3.732,1.866,6.487,1.866,8.265h-0.533c0-2.133-1.244-4.443-3.732-6.932
	c1.066-1.733,1.6-3.51,1.6-5.332v-0.533c0-2.088-1.511-6.443-4.532-13.063c-0.355-1.6-0.533-2.755-0.533-3.466v-0.267
	C11.464,24.127,13.419,20.395,17.329,18.129z M32.792,39.19c0.711,1.422,1.066,3.11,1.066,5.065v3.466
	c0,0.8-0.178,2.222-0.533,4.266l-2.666-0.267H29.86c-1.6,0-3.555,0.622-5.866,1.866V53.32c2.088-1.911,4.666-3.244,7.731-3.999
	v-0.267c-1.466,0-3.243-0.178-5.332-0.533v-0.533h0.8c1.733,0,3.333-0.711,4.799-2.133h-4.266c-1.422,0-3.021-0.178-4.799-0.533
	v-0.533h0.267c3.51,0,6.532-0.889,9.064-2.666v-0.267c-4.443,0-6.665-0.444-6.665-1.333h1.6
	C28.348,40.523,30.215,40.079,32.792,39.19z M25.594,20.528h0.267c4.043,0,8.22,2.755,12.531,8.265
	c0.311,0.178,0.666,0.267,1.066,0.267c0.711-0.133,1.066-0.755,1.066-1.866h0.533v0.533c-0.223,2.044-0.756,3.11-1.6,3.199v0.267
	h0.266c1.378-0.711,2.178-1.155,2.4-1.333v0.533c-0.889,1.777-1.777,2.666-2.666,2.666l0.266,0.533l2.666-0.533v0.267
	c-0.844,1.244-1.999,1.866-3.465,1.866v0.267l1.332,0.267h1.334v0.533c-1.867,0.533-3.289,0.8-4.266,0.8h-0.268l-1.865-0.267v-0.267
	c0.533-1.688,0.799-3.021,0.799-3.999v-0.533c0-4.977-3.287-8.62-9.864-10.931h-0.533V20.528z M32.258,64.251h0.533
	c2,1.6,3.688,2.399,5.066,2.399v0.533l-1.334,0.267h-2.932c0,0.978,1.244,1.866,3.732,2.666v0.533h-0.801
	c-0.399,0-0.755,0.089-1.066,0.267l-3.199-0.8c1.244,1.6,2.133,2.399,2.666,2.399v0.533c-1.199,0-2.799-0.622-4.799-1.866v0.267
	c0,0.223,0.355,0.844,1.066,1.866l-0.533,0.267c-1.6-1.422-2.398-2.222-2.398-2.399C30.038,68.517,31.37,66.206,32.258,64.251z"/>
</svg>
