<?xml version="1.0" encoding="utf-8"?>
<!-- Generator: Adobe Illustrator 15.0.2, SVG Export Plug-In . SVG Version: 6.00 Build 0)  -->
<!DOCTYPE svg PUBLIC "-//W3C//DTD SVG 1.1//EN" "http://www.w3.org/Graphics/SVG/1.1/DTD/svg11.dtd">
<svg version="1.1" id="Layer_1" xmlns="http://www.w3.org/2000/svg" xmlns:xlink="http://www.w3.org/1999/xlink" x="0px" y="0px"
	 width="90.042px" height="101.89px" viewBox="0 0 90.042 101.89" enable-background="new 0 0 90.042 101.89" xml:space="preserve">
<path d="M42.059,1.481h0.889c1.432,2.765,5.282,4.147,11.551,4.147c0,0.642,1.48,1.432,4.443,2.37
	c0.789,0.592,1.185,0.987,1.185,1.185l-1.481,5.924h-0.889c0-1.037-0.691-1.629-2.072-1.777h-0.594
	c-1.579,0.198-2.369,1.086-2.369,2.666v0.888c0.79,1.58,1.777,2.37,2.963,2.37c0.443,0,1.135-0.79,2.072-2.37
	c0.494,0.444,1.186,2.32,2.074,5.628c0.296,0,0.592,0.296,0.889,0.889v0.296l-3.852-0.592c-0.641,0.395-1.234,0.592-1.777,0.592
	h-0.295c-4.345-0.987-6.517-2.073-6.517-3.258c0-0.691-0.099-1.58-0.296-2.666h-0.296c0,1.432-0.296,3.011-0.888,4.739h0.888
	c2.123,0,3.308,0.987,3.555,2.962c0,0.296,0.395,0.592,1.185,0.889c1.234-0.247,2.32-0.839,3.259-1.777h0.592
	c0.987,0.543,1.48,1.135,1.48,1.777h0.297l0.889-0.593h1.185c1.925,1.777,3.011,2.666,3.258,2.666
	c1.284-0.148,3.259-1.728,5.924-4.739c0,0.198,0.099,0.296,0.296,0.296c-0.592,2.073-0.889,3.357-0.889,3.851
	c0,1.974,1.186,2.961,3.555,2.961h2.666l1.48-0.296c0,0.197,0.1,0.296,0.297,0.296c0,1.679-2.37,2.962-7.109,3.851
	c-2.221-0.592-4.591-0.889-7.108-0.889h-0.889l-0.593,0.296l0.297,0.592v0.296c0,1.432-1.185,3.505-3.555,6.22v1.185
	c0,2.024,1.186,3.406,3.555,4.146v0.592c0,0.395-0.197,0.592-0.592,0.592c-2.32,0-4.197-1.283-5.629-3.85h-0.295v1.185
	c0.395,1.925,0.592,3.011,0.592,3.258h-0.889c-1.383-1.234-2.172-2.419-2.369-3.554h-0.296c-0.938,3.554-2.123,5.331-3.554,5.331
	c0-0.197-0.099-0.296-0.296-0.296l0.296-2.962v-1.185c0-0.395-0.198-0.592-0.593-0.592c-1.234,2.962-2.912,4.443-5.035,4.443H41.17
	c-2.567-0.148-3.85-0.543-3.85-1.185v-0.296c1.777,0,3.061-0.494,3.85-1.481h-0.296c-0.198,0-0.494,0.099-0.889,0.296
	c-3.159-0.592-4.739-2.271-4.739-5.035v-0.296c0.05-0.395,0.247-0.592,0.593-0.592c0.642,1.53,1.333,2.419,2.073,2.666h1.185
	c0.296,0,0.592-0.296,0.889-0.889c-3.949-5.381-5.924-8.836-5.924-10.367c0.296,0,0.79-0.592,1.481-1.777v-0.296
	c-0.987,0.592-1.678,0.889-2.073,0.889l-2.37-1.185v0.296c0.987,2.271,1.481,4.641,1.481,7.109c0,3.356-1.876,9.182-5.627,17.475
	c-0.395,2.222-0.592,3.801-0.592,4.739c0,4.788,1.777,7.553,5.331,8.293h1.185c0.247,0,0.74-1.678,1.481-5.035
	c1.925-2.666,4.492-5.627,7.701-8.886c0.79-0.987,1.58-2.567,2.37-4.739c0.691,0,1.481-0.395,2.37-1.185
	c0.395,0.049,0.592,0.247,0.592,0.592v0.296c0,0.839-0.198,1.629-0.592,2.37h0.592c1.53-0.642,3.208-2.024,5.035-4.147
	c1.234,1.382,2.419,2.073,3.554,2.073h0.297l-0.297-0.592v-1.185c0.05-0.395,0.248-0.592,0.593-0.592
	c0,0.592,1.382,1.086,4.147,1.481l0.592-0.296h1.48c2.567,0.346,3.852,0.741,3.852,1.185c0,1.086-3.752,2.468-11.256,4.147
	c-4.739,1.925-7.108,4.986-7.108,9.181c0,0.791,1.086,5.135,3.258,13.033v3.258c-0.197,3.555-0.691,5.332-1.481,5.332
	c-0.592-1.68-0.889-2.766-0.889-3.259c-1.234,1.975-2.221,2.962-2.962,2.962c0-1.876-1.58-3.357-4.739-4.443
	c0-0.147-0.987-1.135-2.962-2.961v0.296c0.296,1.284,1.185,2.665,2.666,4.146v1.185c0,5.529,2.468,8.293,7.405,8.293
	c3.455,0.988,5.825,2.568,7.109,4.74l0.295,0.592v0.592h-0.592c-2.715-0.986-4.492-1.48-5.332-1.48v0.297
	c1.382,1.875,2.074,2.863,2.074,2.961c0,0.396-0.296,0.593-0.889,0.593c-3.456-1.382-5.529-2.073-6.22-2.073
	c1.58,1.876,2.37,3.555,2.37,5.035l-0.592,0.297c-1.284-1.777-2.765-2.666-4.443-2.666l-2.666,0.296
	c-1.234,0-2.518-1.777-3.85-5.331c-2.567-0.938-3.851-1.629-3.851-2.074c0.987-1.48,1.481-2.468,1.481-2.961
	c-2.518-1.136-4.196-2.42-5.035-3.852c1.382-0.443,2.468-1.233,3.258-2.369c-1.185-1.53-1.777-2.616-1.777-3.258v-0.297
	c0-1.135,1.382-2.518,4.146-4.146c0.79-1.629,1.185-2.518,1.185-2.665c-0.197,0-0.296-0.099-0.296-0.296
	c-0.296,0.197-1.382,0.395-3.258,0.592c-3.159,0-6.121-2.172-8.886-6.516c-0.444,3.554-0.839,5.331-1.185,5.331
	c-0.987-1.777-1.481-3.259-1.481-4.442v-2.963c0-1.529,0.889-4.195,2.666-7.996h-0.296c-2.962-2.124-4.443-3.9-4.443-5.332
	l0.592-0.296h0.296c1.037,0.987,1.925,1.481,2.666,1.481h2.073c-1.58-1.629-2.37-3.307-2.37-5.035v-2.073
	c0.494-2.172,1.086-3.258,1.777-3.258l0.296,0.592c-0.395,0.642-0.593,1.234-0.593,1.777c0,1.185,0.593,1.975,1.777,2.37
	c2.518,0,3.999-3.061,4.443-9.182c0-5.085-1.975-8.836-5.924-11.255l-2.073-0.296c-2.616,0-4.492,3.357-5.628,10.071
	c-1.629,3.159-3.406,4.739-5.331,4.739l-0.296-0.592c0.987-1.975,1.481-3.258,1.481-3.851c-2.32,2.37-4.295,3.554-5.924,3.554
	C1.777,38.949,0,37.666,0,35.839c0.198,0,0.296-0.099,0.296-0.296c0.987,0.592,1.777,0.889,2.37,0.889h0.296
	c2.172,0,3.258-2.37,3.258-7.108V28.73c0-0.444-0.099-0.839-0.296-1.185c0.247-1.382,0.543-2.073,0.889-2.073l0.889,3.851h0.296
	v-3.851c0-3.9,2.172-6.665,6.516-8.293h0.296c5.529,0.889,8.293,1.975,8.293,3.258l-0.296,0.592c-0.74-0.395-1.53-0.592-2.369-0.592
	h-0.296c-3.604,0-6.27,1.283-7.997,3.85h0.592c0-1.135,2.468-2.123,7.405-2.962c3.801,0,7.257,2.37,10.367,7.109
	c0-1.382,0.197-2.073,0.592-2.073c0.395,0.494,0.592,0.888,0.592,1.185h1.185c-0.198-1.975-0.296-3.456-0.296-4.443v-2.962
	c0-0.543,0.395-1.925,1.185-4.146c-0.888,0-1.975-0.691-3.258-2.074l0.592-0.296l1.185,0.296c2.074,0,3.851-1.58,5.332-4.739
	l-0.592,0.296l-0.592-0.296c0.74-3.159,2.123-4.739,4.146-4.739h1.481V4.147c0-0.198-0.099-0.296-0.296-0.296l0.296-1.481V1.481z
	 M35.839,25.473h0.592c2.073-4.789,3.653-8.046,4.739-9.774h-0.296C39.295,15.698,37.616,18.957,35.839,25.473z M39.689,31.692
	h0.593c0.79-2.172,1.382-3.258,1.777-3.258c0.395,0.543,0.691,1.826,0.889,3.85l-0.296,1.185l0.296,1.185l-0.296,1.481v0.296h0.296
	c0.592-1.777,0.889-3.258,0.889-4.443V28.73c0-1.086-0.296-3.159-0.889-6.22C42.01,23.152,40.924,26.213,39.689,31.692z
	 M47.391,31.989c0,0.839-0.296,3.999-0.889,9.478v0.296h0.296c0.79-2.074,1.185-4.048,1.185-5.924c0-0.198-0.099-0.987-0.296-2.37
	h0.296c-0.197-0.346-0.296-0.839-0.296-1.481H47.391z M47.391,9.774l2.073,0.296c1.185-0.198,1.777-0.494,1.777-0.889V8.59h-0.593
	C48.477,8.886,47.391,9.281,47.391,9.774z M58.646,53.907c7.109,0,10.663,3.259,10.663,9.774v0.296l-0.296,1.481h-0.889
	c-0.395-1.58-0.79-2.369-1.186-2.369h-0.295v0.295c0,0.643,0.098,1.136,0.295,1.481c-0.295,1.975-0.69,2.962-1.184,2.962
	l-1.481-1.777c-0.198,1.037-0.296,1.629-0.296,1.777c0.543,3.159,2.123,4.739,4.738,4.739h0.297c0.395,0,2.566-0.493,6.516-1.481
	c4.641,0,7.898,1.679,9.774,5.035v0.297c0,0.395-0.197,0.592-0.593,0.592c-1.332-0.789-2.518-1.185-3.554-1.185h-1.185
	c1.382,1.827,2.073,3.209,2.073,4.147c0,0.395-0.198,0.592-0.593,0.592c-2.221-1.186-4.098-1.777-5.627-1.777
	c0.789,0.889,1.185,2.271,1.185,4.146v0.297c0,0.395-0.198,0.592-0.593,0.592c-1.875-1.777-3.356-2.666-4.443-2.666
	c-0.986,0.593-1.975,0.889-2.961,0.889h-2.074c-0.789,0-2.665-1.086-5.627-3.258c-3.455,0-5.727-0.691-6.813-2.073
	c0-0.197,1.186-0.79,3.555-1.777V74.64h-2.074c-1.579,0-3.061-0.691-4.442-2.073c0-0.396,0.987-0.691,2.962-0.889
	c0.592-0.741,0.889-1.629,0.889-2.666v-0.593c-0.444-0.986-1.037-1.48-1.777-1.48c-1.48,0.395-2.369,0.592-2.666,0.592
	c-0.79-0.888-1.185-2.27-1.185-4.146c0-5.381,2.567-8.54,7.701-9.478H58.646z M53.61,31.989l-0.296,1.481
	c0.147,2.764,0.444,4.146,0.889,4.146v-5.035C54.203,32.186,54.005,31.989,53.61,31.989z M62.792,34.951h3.555
	c3.109,0,6.368,1.58,9.774,4.739c0.938,0.987,2.122,1.481,3.554,1.481c1.383,0,2.963-0.691,4.739-2.073
	c1.087,0,2.37,0.987,3.851,2.962c0.444,0,1.037,1.382,1.777,4.147l-0.592,0.296c-1.729-1.382-2.913-2.073-3.555-2.073v0.296
	c0.789,0.839,1.185,2.418,1.185,4.739c0,0.395-0.198,0.592-0.593,0.592c-1.036-1.382-2.221-2.37-3.555-2.962v0.296
	c0.594,0,1.087,1.975,1.481,5.924h-0.593c-0.838-1.432-3.801-2.715-8.885-3.851v0.592c0.197,0.395,0.296,0.691,0.296,0.889h-1.185
	c-2.369-1.728-3.555-2.913-3.555-3.554h-0.592v0.889l0.296,2.073l-0.593,0.296c-0.443-0.049-1.629-1.826-3.555-5.331v0.296
	c0.396,0.79,0.594,1.382,0.594,1.777l-0.594,0.296h-0.888c-2.468,0-4.442-1.777-5.924-5.331v-0.592
	C59.337,40.776,60.521,38.505,62.792,34.951z M64.866,0c0,0.198,0.098,0.296,0.296,0.296l-0.296,1.481
	c0.197,1.58,0.592,2.37,1.184,2.37c0.938-2.172,2.32-3.258,4.147-3.258h0.593c0.986,0,1.875,0.494,2.665,1.481
	c-2.172,1.185-3.258,2.172-3.258,2.962c0.197,1.185,0.493,1.777,0.889,1.777c1.136-0.592,2.122-0.889,2.962-0.889
	c2.32,0.642,3.505,1.234,3.555,1.777v0.296c-1.58,1.135-2.37,1.827-2.37,2.073c0.74,1.037,1.233,1.925,1.481,2.666
	c0,0.494-0.791,1.58-2.37,3.258v0.296c0,1.678,1.579,2.962,4.739,3.851v0.592c-0.099,0.592-0.889,0.889-2.369,0.889H74.64
	c0.1,0.395,1.481,1.58,4.146,3.554l-0.889,0.592h-1.776l-2.962-0.296c0,1.185,1.086,2.37,3.258,3.555
	c0,0.296-0.296,0.592-0.889,0.888h-3.258c-1.777-0.296-2.666-1.086-2.666-2.369l0.297-4.739l-0.297-1.481h-0.296
	c0,2.123-1.975,4.196-5.924,6.22l-0.296-0.593c1.58-4.443,2.369-7.799,2.369-10.07c0-1.382-1.185-4.937-3.555-10.663V4.443
	C62.299,1.481,63.286,0,64.866,0z"/>
</svg>
