<?xml version="1.0" encoding="utf-8"?>
<!-- Generator: Adobe Illustrator 15.0.2, SVG Export Plug-In . SVG Version: 6.00 Build 0)  -->
<!DOCTYPE svg PUBLIC "-//W3C//DTD SVG 1.1//EN" "http://www.w3.org/Graphics/SVG/1.1/DTD/svg11.dtd">
<svg version="1.1" id="Layer_1" xmlns="http://www.w3.org/2000/svg" xmlns:xlink="http://www.w3.org/1999/xlink" x="0px" y="0px"
	 width="37.969px" height="90.967px" viewBox="0 0 37.969 90.967" enable-background="new 0 0 37.969 90.967" xml:space="preserve">
<path d="M0,1.846c2.637,1.494,4.922,3.34,6.855,5.537H6.592C4.526,6.24,2.329,4.482,0,2.109V1.846z M1.318,4.746h0.264
	c4.219,2.505,6.504,4.087,6.855,4.746H7.91L1.318,5.273V4.746z M2.9,7.383h0.264c1.274,0.352,3.56,1.934,6.855,4.746H9.492L2.9,7.91
	V7.383z M14.766,25.049c-1.055,1.187-1.582,1.89-1.582,2.109h0.264c1.011-0.879,1.89-1.318,2.637-1.318v0.264
	c-1.055,1.099-1.582,1.89-1.582,2.373c2.681-1.406,5.317-2.109,7.91-2.109v0.527c-1.626,0-3.56,0.615-5.801,1.846v0.264l2.373-0.527
	l1.582,0.264v0.527c-1.582,0.132-2.373,0.747-2.373,1.846c0,2.988,1.494,4.922,4.482,5.801h0.264c1.934-0.352,2.9-1.23,2.9-2.637
	c0-0.176-0.352-0.703-1.055-1.582v-0.264h0.264c0.879,0.439,1.318,1.23,1.318,2.373c-0.747,1.934-1.978,2.9-3.691,2.9
	c-2.461,0-4.307-1.846-5.537-5.537h-0.264v1.055c0,5.801,1.67,11.602,5.01,17.402c-0.439,0-1.318-1.318-2.637-3.955h-0.264
	c-0.747,0.703-1.45,1.055-2.109,1.055c0.791,2.065,2.988,5.405,6.592,10.02v0.791h-0.791c-2.944-3.208-5.493-6.724-7.646-10.547
	c-1.143,0-2.285-0.352-3.428-1.055c0,3.076,3.604,9.932,10.811,20.566c0,0.088,0.703,1.406,2.109,3.955
	c0,0.352-0.176,0.527-0.527,0.527c-2.769-4.658-6.372-10.02-10.811-16.084c-1.582-2.373-3.164-6.943-4.746-13.711
	c-0.352,0-0.527-0.703-0.527-2.109H7.383c-0.176,1.758-0.264,3.076-0.264,3.955v1.582c0,5.889,2.637,10.283,7.91,13.184
	c0,0.176,0.088,0.439,0.264,0.791l-0.527,0.264c-6.152-2.417-9.229-7.427-9.229-15.029c0-3.999,1.055-8.042,3.164-12.129v-0.264
	H8.438c-2.988,5.361-4.482,8.877-4.482,10.547H3.428v-0.264c1.978-6.724,4.351-11.118,7.119-13.184v-0.264H10.02
	c0,0.527-1.582,0.967-4.746,1.318H4.219v-0.527h0.264c2.856,0,6.021-1.67,9.492-5.01H14.766z M4.746,10.283h0.527
	c2.109,1.055,4.131,2.285,6.064,3.691c0,0.352-0.439,0.527-1.318,0.527v0.264c1.406,0.571,2.109,1.011,2.109,1.318v0.264
	c-0.396,0-0.747-0.088-1.055-0.264h-0.264v0.264c1.274,0.527,1.978,0.791,2.109,0.791v0.527h-0.264l-1.055-0.264h-0.264v0.264
	c0.22,0,1.099,0.352,2.637,1.055l0.527-0.791v-0.264c-0.879-0.132-1.318-0.396-1.318-0.791c0.352,0,0.527-0.176,0.527-0.527
	c-0.703,0-1.23-0.352-1.582-1.055h1.055v-0.264c-0.615,0-1.318-0.527-2.109-1.582v-0.264h0.264c1.274,0.703,2.241,1.055,2.9,1.055
	v0.527h-0.264c-0.352-0.176-0.615-0.264-0.791-0.264c0,0.396,0.439,0.659,1.318,0.791v0.527h-0.791v0.264
	c0.879,0.132,1.318,0.396,1.318,0.791v0.264h-0.527v0.264c0.703,0.088,1.055,0.352,1.055,0.791
	c-0.527,0.176-0.791,0.352-0.791,0.527v0.791c-0.571-0.352-1.099-0.527-1.582-0.527h-1.055v0.264l1.846,0.527v0.527
	c-0.22,0-1.187-0.352-2.9-1.055v-0.527c0.527,0,0.791-0.176,0.791-0.527l-1.582-0.527v-0.527h0.527v-0.527
	c-1.055-0.527-1.758-0.791-2.109-0.791v-0.527h1.318v-0.264c-0.747,0-1.714-0.615-2.9-1.846h1.582
	C8.701,13.052,7.383,12.085,4.746,10.283z M6.855,6.064c3.516,3.779,5.977,5.889,7.383,6.328v0.527h-0.264
	C10.02,10.723,7.646,8.438,6.855,6.064z M8.438,39.023c0,0.352,0.176,1.406,0.527,3.164h0.264c0-3.999,1.055-7.954,3.164-11.865
	v-0.264C9.756,33.091,8.438,36.079,8.438,39.023z M9.756,10.811l5.01,3.164h-0.264c-2.417-0.703-3.999-1.67-4.746-2.9V10.811z
	 M24.785,60.117h0.264c2.109,2.373,3.164,5.098,3.164,8.174c0,3.911-2.549,6.812-7.646,8.701h-0.264v-0.527
	c0.527,0,0.791-0.176,0.791-0.527H20.83l-1.846,0.264c-4.79,0-7.515-2.9-8.174-8.701c0.439-3.34,1.055-5.01,1.846-5.01v0.264
	c-0.352,1.143-0.527,1.934-0.527,2.373v2.109c0,0.527,0.264,1.582,0.791,3.164h0.264v-2.9h0.527c0,2.373,1.23,4.307,3.691,5.801
	h0.264l-1.582-2.109V70.4c1.802,1.758,3.56,2.637,5.273,2.637c2.153,0,3.999-1.143,5.537-3.428v-0.527l-0.527,0.264h-0.791
	l-1.318-0.264v-0.527l1.318,0.264h0.264c0.879-0.527,1.318-1.055,1.318-1.582c0-2.153-0.967-4.438-2.9-6.855L24.785,60.117z
	 M13.711,31.113c-1.758,4.131-2.637,8.438-2.637,12.92c0,2.109,1.318,3.164,3.955,3.164c-1.23-2.549-1.846-5.361-1.846-8.438v-0.527
	c0-1.934,0.264-4.219,0.791-6.855v-0.264H13.711z M11.865,0c2.725,2.329,5.01,5.581,6.855,9.756v0.791
	c-0.22,0-2.505-3.428-6.855-10.283V0z M12.129,2.637h0.264c1.758,1.758,4.746,6.328,8.965,13.711H20.83
	c0-0.396-1.143-1.978-3.428-4.746v0.527c0.352,1.099,0.527,1.802,0.527,2.109c-0.176,0.308-0.264,0.659-0.264,1.055
	c0.176,0,0.264,0.088,0.264,0.264c0.352-0.176,0.615-0.264,0.791-0.264l-0.264-1.318c0.308,0.044,1.274,1.187,2.9,3.428v0.264
	l-0.527-0.264h-0.264v0.264l0.527,0.791h-1.055c0.352,0.703,0.879,1.055,1.582,1.055v0.527h-1.582v0.527
	c0.967,0.352,1.494,0.527,1.582,0.527v0.527l-1.582,0.527v0.264h0.791c0.352-0.176,0.615-0.264,0.791-0.264v0.264
	c-0.703,0.791-1.055,1.23-1.055,1.318v0.264h0.264c0.22-0.176,0.659-0.264,1.318-0.264c-0.176,0.352-0.264,0.615-0.264,0.791
	l1.318-1.055h0.264v1.055l1.318-1.055v0.264c-0.571,1.011-1.187,1.714-1.846,2.109c-0.352,0-0.527-0.176-0.527-0.527
	c0.176,0,0.264-0.088,0.264-0.264h-0.264c-0.659,0.527-1.187,0.791-1.582,0.791c0-0.176-0.088-0.264-0.264-0.264l0.527-1.055H20.83
	c-0.571,0.352-1.011,0.527-1.318,0.527v-0.264c0-0.352,0.264-0.967,0.791-1.846h-0.527c-1.318,0.483-2.021,0.923-2.109,1.318h0.527
	c0.352-0.176,0.615-0.264,0.791-0.264v0.264c-0.527,0.483-0.791,1.099-0.791,1.846l1.318-0.264c0,0.483-0.879,0.835-2.637,1.055
	v-0.791l0.527-0.791h-0.264l-1.318,0.264l-0.264-0.527c0.923-0.923,2.065-1.714,3.428-2.373c0.352-0.703,0.791-1.055,1.318-1.055
	v-0.264c0-0.439-0.352-0.703-1.055-0.791v-0.264c0-0.352,0.264-0.527,0.791-0.527v-0.264l-1.055-1.318l0.527-0.791
	c-0.396,0-0.659-0.439-0.791-1.318l-0.527,0.264c-0.527-0.308-1.406-1.45-2.637-3.428v-0.264h0.527
	c-1.055-1.802-1.582-2.856-1.582-3.164l1.055,0.791c-1.582-2.637-2.373-4.219-2.373-4.746l1.846,2.109V7.383L12.129,2.637z
	 M13.447,20.566c1.582,0.088,2.373,0.352,2.373,0.791v0.264h-2.373l-1.318-0.264V20.83L13.447,20.566z M13.711,22.148h1.055
	c1.23,0.659,1.846,1.099,1.846,1.318c0,0.352-0.967,0.791-2.9,1.318l-0.264-0.527l0.527-0.791l-1.055-0.264v-0.264
	C12.92,22.676,13.184,22.412,13.711,22.148z M25.049,74.883h0.264c0.483,0,0.835,2.021,1.055,6.064
	c-0.132,2.109-0.396,3.164-0.791,3.164c0-0.176-0.088-0.264-0.264-0.264v0.791h0.527v0.264c-0.703,0-1.055,0.703-1.055,2.109
	c-0.923,1.934-1.802,2.9-2.637,2.9c0.703-1.011,1.055-1.802,1.055-2.373c-2.109,2.285-4.131,3.428-6.064,3.428
	c-1.187,0-2.065-0.439-2.637-1.318v-0.264c0.659,0.527,1.274,0.791,1.846,0.791h0.527c2.856,0,5.229-2.549,7.119-7.646
	c-1.45,1.23-3.12,1.846-5.01,1.846h-0.527v-0.527h0.791c3.867-0.835,5.801-3.296,5.801-7.383V74.883z M15.557,32.168
	c-0.527,2.197-0.791,4.482-0.791,6.855c0,3.164,0.703,5.889,2.109,8.174c1.099-0.352,1.714-0.791,1.846-1.318
	c-1.934-4.131-2.9-7.998-2.9-11.602v-2.109H15.557z M15.557,19.775h1.582c1.582,0.352,2.373,0.791,2.373,1.318
	c-0.308,0.176-0.659,0.264-1.055,0.264v0.264h0.791v0.527l-1.846,0.527H15.82v-0.791c1.582-0.176,2.373-0.439,2.373-0.791
	c-1.758-0.22-2.637-0.571-2.637-1.055V19.775z M16.348,15.029c1.406,1.494,2.109,2.373,2.109,2.637L17.93,17.93L15.82,15.82v-0.264
	C15.864,15.205,16.04,15.029,16.348,15.029z M16.348,17.666c1.67,0.439,2.637,0.967,2.9,1.582l-0.527,0.264
	c-1.67-0.439-2.637-0.967-2.9-1.582L16.348,17.666z M26.367,45.352h0.264c2.461,1.67,3.691,3.34,3.691,5.01v2.109l-0.264,1.582
	v0.264h0.264c0.044-0.659,0.396-1.187,1.055-1.582v0.527c-2.373,4.746-5.977,7.119-10.811,7.119h-1.846
	c-0.264,0-0.527-0.264-0.791-0.791v-0.264h2.373c4.043-0.352,6.064-1.846,6.064-4.482v-2.109c0.352,0,0.615,0.615,0.791,1.846
	c-0.176,0.703-0.264,1.318-0.264,1.846c0.571,0,1.099-1.23,1.582-3.691c0-1.406-0.527-2.725-1.582-3.955h0.264
	c1.406,1.274,2.109,2.417,2.109,3.428h0.264v-0.791c0-2.505-1.055-4.351-3.164-5.537V45.352z M18.721,8.174h0.527
	c0.308,2.065,1.714,4.79,4.219,8.174l0.527,2.373C21.094,15.557,19.336,12.041,18.721,8.174z M25.313,28.477v0.527
	c-2.417,1.23-4.087,1.846-5.01,1.846v-0.527L25.313,28.477z M22.676,27.422v0.527l-1.582,0.264v-0.527
	C21.226,27.686,21.753,27.598,22.676,27.422z M22.676,33.223c0,0.791,0.088,1.318,0.264,1.582h-0.264
	c-0.352,0-0.527-0.176-0.527-0.527V33.75C22.192,33.398,22.368,33.223,22.676,33.223z M22.412,51.152
	c0.264,0,0.615,0.352,1.055,1.055h-0.264c-0.264,0-0.527-0.264-0.791-0.791V51.152z M23.203,18.984
	c2.813,1.538,5.098,3.12,6.855,4.746h-0.527c-2.856-1.406-4.966-2.9-6.328-4.482V18.984z M23.994,32.168h0.264v0.527h-0.791
	C23.511,32.344,23.687,32.168,23.994,32.168z M23.73,67.236h0.527v1.318c-0.352,0-0.527-0.176-0.527-0.527V67.236z M30.85,22.939
	c1.274,0,2.593,1.055,3.955,3.164h0.264v-0.791c0.352,0.044,0.527,0.22,0.527,0.527v3.428c0,1.934-0.879,2.988-2.637,3.164h-0.264
	c-1.582-0.703-2.988-1.055-4.219-1.055c-1.758-2.285-3.252-3.428-4.482-3.428v-0.527c1.187,0,2.944,1.055,5.273,3.164h0.264
	l1.318-0.264c0.527,0.879,1.143,1.318,1.846,1.318c0.747,0,1.362-0.703,1.846-2.109c-0.352-1.055-0.703-1.582-1.055-1.582h-0.527
	l-0.791,0.527c0.352,0.571,0.527,1.011,0.527,1.318h-0.527c-0.352,0-0.527-0.176-0.527-0.527v-1.055l1.055-1.318
	c-1.626-1.406-3.12-2.109-4.482-2.109h-0.527v-0.527h0.264c2.373,0,4.482,0.967,6.328,2.9v-0.264c0-0.747-1.143-1.978-3.428-3.691
	V22.939z M25.049,22.148h1.055c1.23,0.659,1.846,1.099,1.846,1.318l-0.527,0.264H25.84l0.527-0.791
	C25.488,22.72,25.049,22.456,25.049,22.148z M25.84,25.313c2.769,0,4.614,0.703,5.537,2.109c-0.396,0-0.659,0.439-0.791,1.318
	c0.176,0,0.264,0.088,0.264,0.264l-0.527,0.264c-0.967,0-1.67-0.439-2.109-1.318v-0.264h0.264c0.571,0.352,1.099,0.527,1.582,0.527
	l0.264-0.527c-0.659-1.23-2.153-1.846-4.482-1.846V25.313z M33.486,29.531v0.527h-0.791v-0.264
	C32.871,29.795,33.135,29.707,33.486,29.531z M33.486,28.477l0.264,0.527l-0.527,0.264l-0.264-0.527L33.486,28.477z M33.486,32.432
	h1.318c0.615,0,1.67,2.549,3.164,7.646h-0.527c0-1.362-1.318-3.823-3.955-7.383V32.432z"/>
</svg>
