<!-- Generator: Adobe Illustrator 15.0.2, SVG Export Plug-In . SVG Version: 6.00 Build 0)  -->
<!DOCTYPE svg PUBLIC "-//W3C//DTD SVG 1.1//EN" "http://www.w3.org/Graphics/SVG/1.1/DTD/svg11.dtd">
<svg version="1.1" id="Layer_1" xmlns="http://www.w3.org/2000/svg" xmlns:xlink="http://www.w3.org/1999/xlink" x="0px" y="0px"
	 width="63.898px" height="90.677px" viewBox="0 0 63.898 90.677" enable-background="new 0 0 63.898 90.677" xml:space="preserve">
<path d="M11.931,24.393v0.265c-6.01,4.684-9.015,11.047-9.015,19.09c0,7.732,3.889,14.715,11.666,20.945
	c3.182,3.756,5.568,7.114,7.159,10.075c-0.177,0-0.265,0.089-0.265,0.265c-2.166-0.795-6.85-4.949-14.052-12.461
	c-1.282-1.9-2.166-3.491-2.651-4.772H4.507v0.265c0,3.094,5.303,9.016,15.908,17.765c5.303,5.788,8.131,10.737,8.484,14.848h-0.265
	c-2.917-5.436-8.484-11.092-16.704-16.969C3.977,67.035,0,57.756,0,45.869c0-6.629,2.209-12.639,6.628-18.03
	C8.352,26.292,10.119,25.144,11.931,24.393z M20.416,16.438v0.53c-4.684,5.479-10.075,8.219-16.173,8.219
	c-1.768-0.177-3.093-0.265-3.977-0.265v-0.53c3.314-0.398,7.291-2.166,11.931-5.303c2.165-1.591,3.756-2.386,4.772-2.386v0.53
	c-1.944,0.928-4.772,2.872-8.484,5.833H8.219v0.265h0.265C12.727,22.404,16.704,20.106,20.416,16.438z M23.862,17.764h0.53v1.326
	c0,0.397-0.088,0.751-0.265,1.061l0.265,0.53c0,0.177-0.088,0.265-0.265,0.265c0.663,4.684,1.9,8.308,3.712,10.871l-0.265,0.53
	c-4.64-3.712-8.352-5.568-11.136-5.568c-3.712,0.53-5.568,2.386-5.568,5.568c0,3.844,2.651,6.849,7.954,9.015
	c1.768,0.707,4.507,1.149,8.219,1.326l3.712-0.53l0.265,0.53c-1.502,2.122-3.712,3.182-6.628,3.182h-1.061
	c-5.436,0-10.12-2.033-14.052-6.099v0.265c1.193,2.74,3.844,4.949,7.954,6.628c2.784,0.707,4.64,1.061,5.568,1.061h1.061
	c1.635,0,4.286-0.441,7.954-1.326v0.266c-2.74,3.182-5.214,4.772-7.424,4.772h-2.651c-4.596,0-8.396-1.944-11.401-5.833h-0.265v0.53
	c3.8,5.126,8.219,7.688,13.257,7.688v0.531h-0.265l-3.182,0.265v-0.265c-0.177,0-0.265,0.088-0.265,0.265
	c-4.596,0-8.838-2.828-12.727-8.484l-0.795-2.121H5.833v0.265c0.265,3.049,3.624,7.645,10.075,13.787
	c2.121,3.359,3.182,6.188,3.182,8.484h-0.53C8.838,58.507,3.977,50.994,3.977,44.013v-1.591c0-7.91,3.093-13.39,9.28-16.438
	l1.856-0.265v-1.856c0.044-0.354,0.221-0.53,0.53-0.53c0.486,1.591,1.37,2.386,2.651,2.386v-0.265
	c-0.354-0.884-0.53-2.209-0.53-3.977h0.265l2.121,3.977c0.044,0.354,0.221,0.53,0.53,0.53c0-0.354,0.088-0.53,0.265-0.53
	c-0.354-0.884-0.53-2.475-0.53-4.772V19.62h0.265c0.309,0,0.751,1.502,1.326,4.507c0.265,0,0.619,0.795,1.061,2.386h0.265v-0.265
	l-0.265-2.651C23.244,20.857,23.509,18.913,23.862,17.764z M18.825,10.871c1.812,0,3.844,0.265,6.098,0.795l3.182-0.53l0.265,0.53
	c-2.475,2.828-6.717,4.242-12.727,4.242c-2.033,0-5.038,0.707-9.015,2.121v-0.265c1.546-2.033,5.435-3.624,11.666-4.772v-0.265
	h-0.795c-1.061,0-2.74,0.177-5.038,0.53v-0.265C12.461,12.24,14.583,11.533,18.825,10.871z M13.787,4.772
	c0.972,1.414,2.298,2.121,3.977,2.121h1.591l7.689-1.061c3.182,0,5.568,0.884,7.159,2.651V8.75c-5.259,1.414-8.352,2.121-9.28,2.121
	c-1.547,0-2.873-0.442-3.977-1.326V9.28h1.591c1.016,0,2.784-0.177,5.303-0.53V8.484l-1.326-0.265h-2.121l-1.326,0.265V8.219
	l-0.53,0.265H19.09c-2.917,0-4.861-1.149-5.833-3.447L13.787,4.772z M41.626,23.332c2.254,0.574,3.402,1.104,3.447,1.591v0.265
	h-0.266c-0.973-0.53-1.944-0.795-2.916-0.795c-2.652,0.354-3.978,0.795-3.978,1.326c1.503-0.177,2.651-0.265,3.446-0.265
	c1.503,0.265,2.917,1.061,4.242,2.386v0.265h-0.529c-1.061-0.707-2.121-1.061-3.182-1.061h-1.061c-1.768,0-3.624,0.795-5.568,2.386
	h0.266c1.59-0.53,2.916-0.795,3.977-0.795h1.061c2.475,0,4.684,1.237,6.629,3.712h-0.266c-2.387-1.414-4.154-2.121-5.303-2.121
	c-5.833,0.486-8.75,2.607-8.75,6.363v0.795h-0.795l-0.265-1.061c-2.873,2.651-5.877,3.977-9.015,3.977
	c-4.242,0-6.363-1.856-6.363-5.568c0.309-1.237,0.663-1.856,1.061-1.856c0,0.177,0.088,0.265,0.265,0.265l-0.265,0.53v0.53
	c0,2.121,1.414,3.447,4.242,3.977c0.309-0.177,0.663-0.265,1.061-0.265v-0.265c-3.005-0.354-4.507-1.856-4.507-4.507
	c0.619-2.121,1.326-3.358,2.121-3.712h0.265v0.265c-0.53,1.635-0.795,2.607-0.795,2.917c0.309,2.121,1.37,3.182,3.182,3.182
	c2.607,0,6.407-3.27,11.401-9.81C36.147,24.216,38.533,23.332,41.626,23.332z M36.589,9.545c0.309,0.177,0.75,0.265,1.325,0.265
	v0.53c-3.889,1.149-6.628,3.093-8.219,5.833c-1.237,2.298-1.856,4.949-1.856,7.954c0,1.414,0.442,3.27,1.326,5.568H28.9
	c-1.944-2.563-2.917-5.126-2.917-7.689V19.62c0-4.065,2.386-7.159,7.159-9.28L36.589,9.545z M36.324,0h0.53
	c2.077,1.281,5.523,2.519,10.341,3.712c4.064,3.049,6.098,5.17,6.098,6.363h0.266c1.325-1.061,2.386-1.591,3.182-1.591
	c-1.061,1.104-1.592,2.342-1.592,3.712c0,1.149,1.68,4.065,5.038,8.75c0,0.397,0.265,0.928,0.796,1.591v0.795
	c-5.789-7.38-10.738-11.71-14.848-12.992c-6.629-1.635-11.666-3.226-15.113-4.772c-2.828-2.166-4.242-3.491-4.242-3.977V1.326
	c1.768,1.944,8.396,4.065,19.885,6.363l4.508,2.386h0.266c-1.414-2.121-4.773-3.889-10.076-5.303c-2.961,0-6.054-1.061-9.279-3.182
	h0.53c2.077,0.707,4.816,1.326,8.22,1.856h0.265V3.182C40.167,3.182,38.578,2.121,36.324,0z M42.421,11.136
	c3.049,0,5.966,1.414,8.75,4.242v0.265c-2.254-1.635-4.287-2.519-6.098-2.651h-2.387c-4.684,0-7.865,2.386-9.545,7.159v0.265h0.266
	c2.209-3.535,5.567-5.303,10.074-5.303c1.813,0,3.756,0.707,5.834,2.121v0.265c-1.856,1.812-3.094,3.756-3.713,5.833h-0.265
	c-2.165-0.707-3.491-1.061-3.978-1.061h-0.265c-4.242,0-7.601,2.033-10.075,6.098h-0.265c-0.707,0-1.149-1.591-1.326-4.772v-0.53
	c0-5.436,2.917-9.236,8.749-11.401C39.196,11.313,40.61,11.136,42.421,11.136z M38.71,31.551h0.265v0.53
	c-1.9,0-3.314,2.475-4.242,7.424c0.354,1.768,0.53,2.828,0.53,3.182h0.53c0.177-1.679,2.563-4.419,7.159-8.219v-0.795l-0.531-0.265
	c-1.855,0-3.8,1.414-5.832,4.242v-0.53c1.635-3.535,3.756-5.303,6.363-5.303c1.768,0.486,2.65,1.016,2.65,1.591v0.53
	c-5.125,4.596-7.688,7.335-7.688,8.219l-0.265,1.856v0.265c0,1.9,0.618,3.402,1.855,4.508c-0.177,0-0.266,0.088-0.266,0.266
	c-4.242-1.945-6.363-4.949-6.363-9.015c0-2.961,1.326-5.612,3.977-7.954L38.71,31.551z M51.966,35.263v0.53
	c-1.016,1.768-3.668,2.651-7.953,2.651h-1.592v-0.53C48.785,37.031,51.966,36.147,51.966,35.263z M52.762,16.969v0.53
	c-1.061,0-2.032,1.414-2.917,4.242c0,2.033,1.238,3.447,3.713,4.242h1.061c0.354-0.177,0.618-0.265,0.795-0.265l0.266,0.53
	c-0.752,0.707-1.636,1.061-2.652,1.061h-1.325c-0.575,0-1.547-0.265-2.917-0.795v1.856c1.768,0.088,2.652,0.265,2.652,0.53
	c0.221-0.133,1.457-0.31,3.711-0.53v0.265c-1.458,1.768-3.049,2.651-4.771,2.651v0.265c0,0.265,0.265,0.53,0.795,0.795
	c1.369,0,2.872-0.619,4.508-1.856l0.265,0.53c0,0.574-0.884,1.458-2.651,2.651v0.265h2.387c0.928,0,1.988-0.707,3.182-2.121h0.265
	c0,1.944-1.503,3.182-4.507,3.712h-2.121c-3.889-2.033-5.834-4.949-5.834-8.75v-0.53c0-3.845,1.945-6.938,5.834-9.28H52.762z
	 M54.087,18.825h0.531c1.325,0.221,2.032,0.574,2.121,1.061v0.265l-1.326-0.265h-1.061c-0.884,0.354-1.326,0.972-1.326,1.856v0.53
	c0,0.265,0.354,0.619,1.061,1.061h0.266l1.326-0.265v-1.061l-0.531,0.265h-0.529c-0.266,0-0.531-0.265-0.796-0.795
	c0-0.265,0.265-0.53,0.796-0.795h0.265c1.237,0,1.856,0.619,1.856,1.856s-0.973,2.033-2.917,2.386
	c-1.768-0.486-2.651-1.37-2.651-2.651C51.392,19.974,52.365,18.825,54.087,18.825z M59.125,28.104h0.265
	c1.635,0,2.695,1.149,3.182,3.447c0,0.265-0.265,0.53-0.795,0.795c-0.973,0-1.68-0.442-2.121-1.326h0.266l1.59,0.265v-0.53
	c-0.574-1.061-1.281-1.591-2.121-1.591L58.33,29.96c0-0.177-0.088-0.265-0.265-0.265C58.418,28.635,58.772,28.104,59.125,28.104z
	 M62.837,24.127c0.266,0,0.619,0.354,1.061,1.061c-0.663,1.414-1.547,2.121-2.651,2.121h-0.265l1.59-1.591
	c-0.354-0.177-0.618-0.265-0.795-0.265c-0.707,0.309-1.768,1.016-3.182,2.121H58.33C59.921,25.276,61.423,24.127,62.837,24.127z"/>
</svg>
