<?xml version="1.0" encoding="utf-8"?>
<!-- Generator: Adobe Illustrator 15.0.2, SVG Export Plug-In . SVG Version: 6.00 Build 0)  -->
<!DOCTYPE svg PUBLIC "-//W3C//DTD SVG 1.1//EN" "http://www.w3.org/Graphics/SVG/1.1/DTD/svg11.dtd">
<svg version="1.1" id="Layer_1" xmlns="http://www.w3.org/2000/svg" xmlns:xlink="http://www.w3.org/1999/xlink" x="0px" y="0px"
	 width="90.339px" height="34.094px" viewBox="0 0 90.339 34.094" enable-background="new 0 0 90.339 34.094" xml:space="preserve">
<path d="M47.983,26.513v-0.362c-1.33,0-2.64-0.092-3.925-0.273c-1.286-0.185-2.573-0.37-3.859-0.569
	c-1.286-0.196-2.573-0.384-3.859-0.569c-1.286-0.177-2.581-0.27-3.881-0.27c-0.122,0-0.303,0.007-0.545,0.022
	c-0.242,0.019-0.394,0.022-0.454,0.022c-0.152,0.092-0.401,0.281-0.749,0.569c-0.349,0.288-0.711,0.587-1.09,0.905
	c-0.378,0.317-0.75,0.613-1.112,0.887c-0.364,0.273-0.606,0.473-0.726,0.591c-0.212,0.181-0.508,0.406-0.887,0.68
	c-0.378,0.273-0.696,0.502-0.953,0.68c-0.257,0.185-0.401,0.288-0.43,0.317H25.15c0.333-0.694,0.591-1.322,0.772-1.884
	c0.181-0.558,0.271-1.2,0.271-1.928c0-0.694-0.135-1.256-0.408-1.677c-0.271-0.425-0.621-0.765-1.043-1.021
	c-0.425-0.257-0.924-0.462-1.499-0.613c-0.574-0.151-1.15-0.318-1.725-0.5c-0.181-0.059-0.43-0.127-0.748-0.203
	c-0.318-0.076-0.508-0.115-0.569-0.115c-0.03,0-0.113,0.031-0.25,0.092c-0.135,0.061-0.279,0.135-0.43,0.226
	c-0.152,0.092-0.289,0.168-0.409,0.227c-0.122,0.061-0.197,0.09-0.227,0.09c-0.031,0-0.137,0.009-0.318,0.024
	c-0.183,0.015-0.303,0.022-0.364,0.022c-0.425,0-0.765-0.046-1.021-0.137s-0.583-0.318-0.975-0.68h1.542
	c0.122-0.273,0.151-0.455,0.09-0.545c-0.09-0.273-0.34-0.491-0.748-0.66c-0.408-0.164-0.855-0.293-1.339-0.384
	c-0.484-0.092-0.953-0.159-1.408-0.205c-0.454-0.046-0.772-0.068-0.953-0.068h-0.499c-1.241,2.089-2.62,3.851-4.132,5.288
	c-1.513,1.438-3.329,2.76-5.447,3.972c-0.091,0.063-0.235,0.137-0.431,0.229c-0.197,0.089-0.402,0.196-0.613,0.318
	c-0.212,0.118-0.408,0.225-0.591,0.318c-0.181,0.088-0.303,0.133-0.362,0.133C1.166,29.494,1.059,29.509,1,29.509
	c-0.061,0-0.129-0.007-0.205-0.022c-0.076-0.019-0.129-0.026-0.159-0.026c0.12-0.118,0.318-0.333,0.591-0.635
	c0.271-0.299,0.56-0.628,0.863-0.976c0.301-0.347,0.597-0.702,0.885-1.064c0.286-0.362,0.506-0.68,0.658-0.953l2.996-5.948
	c0.029-0.061,0.061-0.205,0.09-0.432c0.03-0.227,0.061-0.46,0.092-0.704c0.03-0.242,0.059-0.477,0.091-0.704
	c0.029-0.226,0.044-0.386,0.044-0.477V17.16c0-0.937-0.234-1.967-0.704-3.086c-0.469-1.12-1.059-2.224-1.77-3.314
	C3.761,9.67,3.003,8.648,2.202,7.695C1.4,6.742,0.665,5.948,0,5.313h0.318c0.696,0,1.43,0.181,2.202,0.545
	C3.292,6.219,4.04,6.674,4.768,7.219c0.726,0.545,1.398,1.128,2.019,1.748c0.621,0.621,1.127,1.173,1.522,1.657
	c0.091,0.091,0.309,0.364,0.658,0.818c0.347,0.453,0.726,0.938,1.134,1.452c0.408,0.515,0.794,0.999,1.158,1.452
	c0.364,0.455,0.589,0.743,0.682,0.863c0.242,0.273,0.392,0.462,0.453,0.569c0.061,0.105,0.166,0.159,0.317,0.159h0.455
	c0.484,0,1.059-0.039,1.725-0.114c0.665-0.076,1.21-0.279,1.635-0.613c0.091-0.059,0.03-0.211-0.183-0.453h-1.088
	c0.029-0.031,0.12-0.092,0.271-0.183c0.151-0.09,0.317-0.181,0.499-0.271c0.183-0.09,0.356-0.173,0.523-0.249
	c0.166-0.076,0.279-0.129,0.34-0.159h0.318c0.515,0,0.992,0.12,1.431,0.362c0.438,0.244,0.944,0.364,1.521,0.364
	c0.12,0,0.301-0.007,0.545-0.022c0.242-0.015,0.392-0.024,0.455-0.024c0.149-0.029,0.521-0.09,1.112-0.181
	c0.589-0.091,1.217-0.196,1.884-0.318c0.333-0.061,0.657-0.113,0.975-0.159c0.318-0.046,0.597-0.098,0.84-0.159
	c0.333-0.029,0.589-0.061,0.771-0.09c0.183-0.03,0.318-0.061,0.41-0.09c0.059-0.03,0.165-0.046,0.318-0.046
	c0.149,0,0.347-0.015,0.589-0.046c0.575-0.029,1.293-0.074,2.156-0.135s1.718-0.114,2.566-0.159
	c0.846-0.046,1.611-0.091,2.292-0.137c0.682-0.046,1.126-0.083,1.339-0.113c0.12,0,0.56-0.068,1.317-0.205
	c0.755-0.137,1.611-0.295,2.564-0.477s1.899-0.371,2.837-0.567c0.938-0.198,1.681-0.342,2.226-0.432
	c0.059-0.03,0.218-0.074,0.477-0.135c0.257-0.061,0.431-0.122,0.521-0.183V9.625c0-1.755-0.347-3.451-1.044-5.085
	C44.61,2.905,43.732,1.393,42.674,0h0.362c0.635,0,1.376,0.288,2.224,0.862c0.848,0.577,1.673,1.256,2.475,2.043
	c0.802,0.789,1.526,1.589,2.176,2.407c0.654,0.816,1.116,1.483,1.389,1.997c0.029,0.091,0.111,0.259,0.247,0.499
	c0.137,0.244,0.273,0.5,0.41,0.772c0.133,0.273,0.266,0.538,0.384,0.794c0.122,0.258,0.214,0.447,0.273,0.569
	c0.118,0.362,0.229,0.658,0.318,0.885c0.088,0.227,0.196,0.447,0.317,0.658c0.119,0.212,0.244,0.349,0.362,0.408
	c1.212,0.635,2.416,1.271,3.609,1.908c1.193,0.635,2.405,1.225,3.632,1.77s2.468,1.021,3.724,1.43
	c1.256,0.408,2.564,0.704,3.924,0.885h1.544c0.757,0,1.552,0.009,2.387,0.024c0.831,0.015,1.596,0.022,2.291,0.022h1.544
	c2.39,0,4.736-0.068,7.034-0.205c2.302-0.135,4.647-0.203,7.038-0.203v0.589l-22.155,1.454c-0.089,0-0.262,0.007-0.517,0.022
	c-0.259,0.015-0.547,0.046-0.865,0.091c-0.318,0.046-0.628,0.114-0.931,0.205c-0.303,0.091-0.532,0.196-0.68,0.318h4.629v0.318
	c-1.999,0.271-3.905,0.765-5.723,1.474c-1.814,0.713-3.643,1.43-5.49,2.157l-2.996,1.001c-0.698,0.24-1.149,0.502-1.363,0.791
	c-0.21,0.288-0.333,0.576-0.362,0.864c-0.03,0.289-0.052,0.554-0.066,0.794c-0.015,0.24-0.192,0.425-0.525,0.543
	c-0.059-0.059-0.151-0.155-0.273-0.295c-0.118-0.133-0.248-0.273-0.384-0.406c-0.136-0.137-0.273-0.266-0.406-0.384
	c-0.14-0.125-0.222-0.2-0.251-0.229c-0.122-0.03-0.2-0.044-0.229-0.044l-0.089,0.044c-0.938,1.452-1.969,2.8-3.088,4.042
	c-1.12,1.241-2.405,2.313-3.859,3.222c0-0.029-0.015-0.089-0.044-0.181c0-0.366,0.174-0.839,0.523-1.43
	c0.347-0.592,0.726-1.227,1.134-1.907c0.407-0.68,0.787-1.378,1.134-2.091C47.81,27.776,47.983,27.119,47.983,26.513z"/>
</svg>
