<?xml version="1.0" encoding="utf-8"?>
<!-- Generator: Adobe Illustrator 15.0.2, SVG Export Plug-In . SVG Version: 6.00 Build 0)  -->
<!DOCTYPE svg PUBLIC "-//W3C//DTD SVG 1.1//EN" "http://www.w3.org/Graphics/SVG/1.1/DTD/svg11.dtd">
<svg version="1.1" id="Layer_1" xmlns="http://www.w3.org/2000/svg" xmlns:xlink="http://www.w3.org/1999/xlink" x="0px" y="0px"
	 width="76.885px" height="90.152px" viewBox="0 0 76.885 90.152" enable-background="new 0 0 76.885 90.152" xml:space="preserve">
<path d="M0,56.158c0-0.536,0.058-1.202,0.177-2.006c0.12-0.804,0.474-1.321,1.068-1.557c0.119-0.058,0.387-0.043,0.804,0.043
	c0.413,0.09,0.681,0.134,0.8,0.134v-0.978c0.355-0.475,0.844-0.996,1.466-1.557c0.623-0.565,1.112-1.173,1.47-1.825
	c0.949-1.72,1.883-3.396,2.803-5.029c0.92-1.629,1.941-3.277,3.07-4.939c0-0.058,0.087-0.145,0.268-0.268
	c0-0.058,0.011-0.188,0.043-0.398c0.029-0.207,0.043-0.369,0.043-0.489c0-1.304-0.148-2.582-0.445-3.828
	c-0.297-1.246-0.503-2.549-0.623-3.914c0-0.12,0-0.445,0-0.981c0-0.532-0.015-1.141-0.043-1.825
	c-0.033-0.681-0.062-1.347-0.091-1.999c-0.029-0.655-0.072-1.159-0.134-1.514v-1.068c0-8.723,3.918-14.89,11.747-18.511
	c0.119,0,0.268-0.029,0.445-0.09c0.181-0.058,0.297-0.087,0.358-0.087l5.25-1.068c0.59-0.12,1.126-0.312,1.601-0.58
	c0.474-0.268,0.934-0.518,1.379-0.756c0.445-0.235,0.92-0.446,1.423-0.623c0.503-0.177,1.083-0.264,1.734-0.264
	c0.474,0,0.934,0.177,1.379,0.532s0.876,0.532,1.293,0.532L39.958,0h0.177c0.771,0,1.423,0.076,1.959,0.225
	c0.533,0.148,1.021,0.34,1.467,0.579c0.445,0.235,0.919,0.503,1.427,0.8c0.503,0.297,1.111,0.565,1.821,0.8
	c1.839,0.594,3.498,1.039,4.99,1.336c1.477,0.297,2.853,0.681,4.128,1.155c1.274,0.475,2.477,1.173,3.606,2.093
	c1.13,0.92,2.289,2.329,3.476,4.226c0.652,1.01,1.333,2.285,2.042,3.827c0.709,1.542,1.072,2.995,1.072,4.36
	c0,0.177-0.029,0.326-0.087,0.445c-0.065,0.12-0.094,0.239-0.094,0.355c0,0.536,0.08,1.159,0.225,1.868
	c0.145,0.713,0.217,1.307,0.217,1.782v0.623v0.8v0.355c0,0.12-0.029,0.373-0.087,0.757c-0.058,0.387-0.116,0.666-0.174,0.847
	c0,0.12-0.058,0.445-0.181,0.978H65.5c0.174,0.833,0.116,1.274-0.181,1.336v0.71v1.958v0.623c0,0.949,0,1.778,0,2.491
	s0.094,1.485,0.268,2.314c0,0.239,0.116,0.417,0.355,0.532c1.304,2.079,2.549,4.2,3.737,6.366c1.188,2.166,2.644,4.135,4.367,5.917
	v1.068c0.115,0,0.362-0.058,0.753-0.177c0.384-0.12,0.638-0.148,0.753-0.091c0.594,0.239,0.964,0.771,1.115,1.604
	c0.146,0.833,0.218,1.485,0.218,1.956c0,1.601-0.29,3.136-0.884,4.584c-0.594,1.456-1.332,2.817-2.23,4.092
	c-0.884,1.282-1.897,2.484-3.027,3.606c-1.123,1.123-2.216,2.224-3.288,3.295l-2.136,1.781l-0.181,0.348
	c-0.29,0-0.5,0.058-0.623,0.181l-7.829,7.293l-0.181-0.261c-0.174,0.231-0.485,0.666-0.927,1.289
	c-0.449,0.623-0.927,1.26-1.427,1.912c-0.507,0.652-0.992,1.289-1.47,1.912s-0.796,1.058-0.978,1.289
	c-0.529,0.651-1.173,1.354-1.912,2.093c-0.746,0.746-1.586,1.115-2.542,1.115c-0.768,0-1.496-0.181-2.176-0.536
	c-0.681-0.354-1.336-0.789-1.959-1.289c-0.623-0.499-1.217-1.035-1.778-1.601c-0.565-0.564-1.112-1.057-1.648-1.47
	c-0.058-0.058-0.253-0.195-0.579-0.398c-0.326-0.21-0.667-0.435-1.021-0.666c-0.355-0.239-0.685-0.463-0.978-0.667
	c-0.3-0.21-0.478-0.348-0.536-0.405c-0.417-0.297-0.667-0.493-0.757-0.58c-0.087-0.087-0.312-0.13-0.667-0.13h-0.445
	c-0.177,0.116-0.46,0.326-0.844,0.623c-0.387,0.297-0.804,0.608-1.249,0.934c-0.442,0.326-0.858,0.652-1.246,0.978
	c-0.384,0.326-0.637,0.55-0.757,0.667c-0.475,0.362-1.007,0.79-1.601,1.289c-0.594,0.508-1.202,1.015-1.825,1.514
	c-0.623,0.507-1.26,0.92-1.912,1.253c-0.655,0.319-1.336,0.485-2.046,0.485c-1.427,0-2.73-0.608-3.918-1.825
	c-1.188-1.217-2.238-2.643-3.157-4.272c-0.92-1.629-1.735-3.31-2.448-5.026c-0.713-1.716-1.307-3.114-1.778-4.179
	c0-0.065-0.047-0.152-0.134-0.275c-0.091-0.116-0.167-0.203-0.225-0.261c-1.246-1.072-2.535-2.245-3.871-3.52
	c-1.333-1.274-2.582-2.636-3.737-4.092c-1.159-1.456-2.107-2.991-2.846-4.627C0.369,59.642,0,57.933,0,56.158z M46.186,73.51
	c0.297,0,0.5,0.058,0.623,0.174c0,0.116,0.094,0.333,0.268,0.623c0.174,0.304,0.354,0.594,0.536,0.891
	c0.174,0.297,0.34,0.58,0.493,0.847c0.145,0.261,0.246,0.435,0.304,0.493v0.087h0.087c0.058,0,0.152-0.015,0.275-0.043
	c0.116-0.029,0.174-0.072,0.174-0.138c0.058-0.297,0.116-0.5,0.174-0.623c0.058-0.116,0.152-0.326,0.275-0.623
	c0.174-0.413,0.362-0.876,0.579-1.383c0.203-0.5,0.362-0.869,0.485-1.108l0.442,0.529c0.058,0.065,0.167,0.203,0.318,0.405
	c0.145,0.21,0.304,0.449,0.485,0.71c0.181,0.268,0.34,0.521,0.485,0.76c0.152,0.239,0.261,0.413,0.318,0.529h0.087h0.174
	c0.239-0.116,0.362-0.203,0.362-0.261l1.781-4.012c0.29,0.304,0.652,0.775,1.065,1.434c0.413,0.652,0.833,0.97,1.246,0.97
	l0.087-0.087l0.181-0.174c0.116-0.536,0.304-1.101,0.58-1.694c0.261-0.594,0.543-1.173,0.84-1.738
	c0.297-0.565,0.564-1.108,0.804-1.644c0.239-0.528,0.355-1.006,0.355-1.426V66.92l-0.268-0.797v-0.181
	c0.065-0.116,0.195-0.34,0.398-0.666c0.21-0.326,0.347-0.543,0.405-0.667c0-0.065,0.029-0.224,0.087-0.492s0.116-0.457,0.174-0.572
	c0.058-0.058,0.217-0.094,0.449-0.094c0.231,0,0.391-0.058,0.449-0.181v-0.087c0-0.29-0.058-0.565-0.181-0.797
	c-0.123-0.239-0.181-0.507-0.181-0.804c0.362,0,0.564-0.029,0.623-0.094c0.058-0.058,0.087-0.116,0.087-0.174
	c0-0.116,0.015-0.232,0.051-0.355c0.029-0.123,0.138-0.239,0.312-0.355c0.29-0.058,0.507-0.087,0.623-0.087c0.174,0,0.326,0,0.449,0
	c0.116,0,0.188-0.029,0.217-0.094c0.029-0.058,0.043-0.297,0.043-0.71c0-0.297-0.043-0.5-0.13-0.623s-0.13-0.355-0.13-0.717
	c0-0.116,0.007-0.261,0.043-0.441c0.029-0.181,0.188-0.21,0.485-0.087c0.124-1.369,0.594-2.542,1.427-3.513
	c0.826-0.985,1.84-1.738,3.027-2.274v-0.264c0-0.062-0.246-0.431-0.717-1.115c-0.471-0.681-0.862-1.17-1.152-1.467
	c-0.065-0.058-0.217-0.224-0.449-0.489c-0.239-0.268-0.493-0.536-0.753-0.8c-0.275-0.268-0.521-0.536-0.76-0.804
	c-0.239-0.264-0.384-0.427-0.442-0.489c-0.123-0.178-0.275-0.427-0.449-0.757c-0.174-0.326-0.384-0.652-0.623-0.978
	c-0.231-0.326-0.478-0.608-0.709-0.844c-0.239-0.239-0.478-0.358-0.71-0.358c-0.362,0-0.717,0.043-1.072,0.134
	s-0.709,0.134-1.072,0.134h-0.261l1.064-1.6c0.065-0.12,0.094-0.21,0.094-0.268H59.62v-0.268c0.181-0.297,0.246-0.474,0.181-0.532
	c0-0.12-0.123-0.268-0.355-0.445c-0.239-0.178-0.42-0.297-0.536-0.358l0.891-1.246l-1.514-0.533v-0.268
	c0.058-0.116,0.181-0.268,0.362-0.446c0.174-0.177,0.318-0.293,0.441-0.354c-0.354-0.12-0.55-0.297-0.579-0.532
	c-0.029-0.239-0.043-0.445-0.043-0.623c0-0.417,0.145-0.699,0.442-0.847c0.297-0.148,0.449-0.402,0.449-0.757v-0.087l-0.268-0.268
	v-0.177v-0.091l0.529-1.6v-0.178c-0.471-0.652-0.97-0.981-1.506-0.981c0-0.355,0.072-0.667,0.217-0.935
	c0.152-0.264,0.225-0.576,0.225-0.934v-0.087l-0.529-0.445v-0.268v-0.09l0.261-0.532v-0.091v-0.177
	c-0.116,0-0.456-0.043-1.021-0.134c-0.565-0.087-0.848-0.279-0.848-0.576s0.145-0.833,0.449-1.604c0.29-0.768,0.5-1.304,0.623-1.601
	h-0.268c-0.355,0-0.659,0.076-0.891,0.221c-0.239,0.148-0.507,0.224-0.796,0.224c-0.123,0-0.261-0.014-0.406-0.043
	c-0.145-0.032-0.217-0.163-0.217-0.402c0-0.594,0.087-1.188,0.261-1.781c0.181-0.59,0.268-1.126,0.268-1.601
	c-0.355,0-0.681,0.134-0.978,0.402c-0.297,0.264-0.594,0.489-0.891,0.667c-0.124,0.058-0.442,0-0.978-0.178
	c0-0.652,0.029-1.274,0.087-1.868c0.058-0.594,0.087-1.159,0.087-1.691c0-0.474-0.087-0.713-0.261-0.713h-0.181l-3.295,3.205
	c-0.174,0-0.326-0.207-0.442-0.623c-0.123-0.417-0.224-0.891-0.311-1.423c-0.087-0.536-0.16-1.068-0.225-1.604
	c-0.058-0.532-0.152-0.919-0.268-1.155c-0.231,0.177-0.456,0.46-0.666,0.844c-0.203,0.387-0.413,0.8-0.623,1.246
	c-0.203,0.445-0.435,0.833-0.666,1.159c-0.239,0.326-0.475,0.489-0.713,0.489H44.94c-0.119-0.235-0.268-0.637-0.445-1.202
	c-0.177-0.562-0.355-1.126-0.532-1.691c-0.177-0.562-0.373-1.068-0.58-1.514c-0.206-0.442-0.431-0.667-0.666-0.667l-0.177,0.091
	c-0.062,0.235-0.283,0.757-0.67,1.557c-0.384,0.8-0.638,1.289-0.757,1.466c-0.058,0.12-0.12,0.195-0.178,0.225
	c-0.058,0.029-0.119,0.072-0.177,0.134c-0.058,0.058-0.12,0.087-0.177,0.087c-0.417,0-0.728-0.235-0.935-0.709
	c-0.21-0.475-0.402-1.01-0.579-1.604c-0.178-0.59-0.388-1.126-0.623-1.6c-0.235-0.475-0.565-0.713-0.978-0.713
	c-0.355,0-0.594,0.311-0.713,0.934c-0.12,0.623-0.177,1.292-0.177,2.002c0,0.713-0.043,1.379-0.134,2.002
	c-0.087,0.623-0.369,0.934-0.844,0.934c-0.062,0-0.148-0.029-0.268-0.087c-0.297-0.239-0.58-0.55-0.844-0.934
	c-0.268-0.388-0.521-0.757-0.757-1.115c-0.239-0.355-0.478-0.667-0.713-0.934c-0.239-0.265-0.503-0.398-0.8-0.398
	s-0.489,0.235-0.579,0.709c-0.087,0.478-0.134,0.981-0.134,1.514c0,0.536-0.043,1.039-0.134,1.514
	c-0.087,0.474-0.283,0.713-0.576,0.713c-0.478,0-0.876-0.163-1.202-0.493c-0.326-0.322-0.623-0.695-0.891-1.111
	c-0.268-0.413-0.532-0.83-0.8-1.246c-0.268-0.413-0.608-0.681-1.024-0.8c0,0.119-0.029,0.282-0.087,0.489
	c-0.062,0.21-0.091,0.373-0.091,0.489c0,0.177-0.029,0.431-0.087,0.757c-0.062,0.326-0.105,0.67-0.134,1.025
	c-0.033,0.354-0.062,0.699-0.09,1.021c-0.029,0.33-0.043,0.55-0.043,0.67c-0.062,0.119-0.12,0.264-0.178,0.445
	c-0.062,0.058-0.119,0.087-0.177,0.087l-0.09-0.087c-0.713-0.536-1.217-0.905-1.514-1.115c-0.297-0.207-0.475-0.34-0.532-0.398
	l-0.091,0.087c0,0.12-0.029,0.417-0.087,0.891c-0.062,0.478-0.09,0.771-0.09,0.891c-0.12,0.177-0.239,0.521-0.355,1.024
	c-0.12,0.503-0.268,0.753-0.445,0.753h-0.177h-0.268H22.07h-0.087c-0.181,0.119-0.344,0.268-0.493,0.445s-0.282,0.33-0.398,0.445
	c-0.062,0.062-0.015,0.297,0.134,0.713c0.145,0.417,0.221,0.681,0.221,0.8c-0.354,0-0.651-0.043-0.891-0.134
	c-0.235-0.087-0.503-0.134-0.8-0.134v0.268l0.623,0.8v0.09c0,0.12-0.105,0.235-0.312,0.355s-0.34,0.239-0.398,0.355
	c0,0.119,0.087,0.387,0.265,0.804c0.181,0.413,0.326,0.681,0.445,0.8v0.087v0.09l-1.333,0.8c0.116,0.297,0.101,0.637-0.047,1.025
	c-0.148,0.384-0.221,0.728-0.221,1.021c0,0.301,0.015,0.58,0.043,0.847c0.029,0.268,0.192,0.547,0.489,0.844
	c-0.532,0.12-0.876,0.431-1.021,0.935c-0.148,0.507-0.225,0.996-0.225,1.47c0,0.297,0.029,0.58,0.09,0.844
	c0.058,0.268,0.087,0.55,0.087,0.848c0,0.119,0,0.326,0,0.623c0,0.235-0.148,0.355-0.441,0.355c0.116,0.12,0.25,0.282,0.398,0.489
	c0.149,0.21,0.254,0.312,0.312,0.312c0.058,0.062,0.091,0.119,0.091,0.177l-0.091,0.181l-1.514,0.442l1.068,1.336
	c-0.12,0.12-0.312,0.253-0.576,0.402c-0.268,0.148-0.435,0.312-0.493,0.489c-0.058,0-0.043,0.076,0.047,0.221
	c0.087,0.148,0.163,0.224,0.221,0.224c0,0.058-0.014,0.12-0.043,0.178c-0.033,0.058-0.043,0.12-0.043,0.177h-0.713v0.178
	l0.978,1.604h-0.178c-0.417,0-0.786-0.047-1.111-0.134c-0.326-0.09-0.667-0.134-1.025-0.134c-0.297,0-0.565,0.12-0.8,0.355
	c-0.239,0.239-0.475,0.521-0.713,0.847c-0.235,0.326-0.442,0.637-0.623,0.934c-0.178,0.297-0.355,0.532-0.533,0.71
	c-0.062,0.062-0.192,0.225-0.402,0.489c-0.206,0.268-0.441,0.536-0.709,0.804c-0.268,0.265-0.536,0.532-0.8,0.8
	c-0.268,0.268-0.431,0.431-0.493,0.489c-0.235,0.355-0.576,0.876-1.021,1.557c-0.445,0.685-0.67,1.054-0.67,1.115v0.174
	c1.188,0.536,2.194,1.289,3.027,2.274c0.829,0.971,1.303,2.144,1.423,3.513c0.297-0.058,0.46,0,0.489,0.181
	c0.033,0.174,0.047,0.319,0.047,0.442c0,0.297-0.062,0.471-0.178,0.529c-0.119,0.065-0.239,0.138-0.358,0.231
	c-0.12,0.087-0.235,0.232-0.355,0.442c-0.119,0.21-0.177,0.572-0.177,1.108h2.136c0.058,0.247,0.087,0.42,0.087,0.536
	c0.178,0.297,0.402,0.42,0.67,0.362c0.265-0.065,0.457,0.058,0.576,0.348l-0.623,1.072v0.174v0.094c0,0.058,0.239,0.152,0.713,0.268
	c0.058,0,0.119,0.159,0.177,0.485c0.058,0.326,0.12,0.521,0.178,0.579c0.058,0.123,0.192,0.326,0.402,0.623
	c0.206,0.297,0.34,0.507,0.398,0.623v0.181v0.087l-0.354,0.891v0.181c0,0.29,0.072,0.652,0.221,1.065
	c0.148,0.413,0.358,0.804,0.626,1.151c0.264,0.362,0.576,0.673,0.934,0.941c0.355,0.261,0.71,0.34,1.065,0.217v1.607
	c0-0.058,0.047-0.21,0.134-0.449c0.09-0.232,0.181-0.493,0.268-0.753c0.09-0.268,0.177-0.507,0.268-0.709
	c0.087-0.21,0.163-0.348,0.221-0.406c0-0.116,0.076-0.231,0.225-0.354c0.145-0.124,0.25-0.181,0.311-0.181
	c0.178,0.181,0.355,0.42,0.532,0.709c0.178,0.304,0.37,0.565,0.58,0.811c0.207,0.232,0.431,0.406,0.666,0.529
	c0.239,0.123,0.536,0.123,0.891,0c0,0.058,0.029,0.326,0.09,0.804c0.058,0.471,0.235,0.71,0.532,0.71s0.532-0.174,0.713-0.536
	c0.178-0.354,0.355-0.753,0.532-1.202c0.178-0.441,0.37-0.854,0.58-1.246c0.207-0.384,0.489-0.579,0.844-0.579
	c0.297,0,0.503,0.181,0.623,0.536c0.12,0.355,0.225,0.739,0.312,1.159c0.09,0.413,0.21,0.797,0.358,1.159
	c0.145,0.348,0.427,0.536,0.844,0.536c0.12-0.123,0.207-0.246,0.268-0.362c0.116-0.174,0.221-0.413,0.312-0.709
	c0.087-0.297,0.192-0.594,0.311-0.891c0.12-0.297,0.235-0.565,0.355-0.804c0.12-0.231,0.235-0.354,0.355-0.354
	s0.268,0.094,0.445,0.268l0.981,2.042h0.623v0.449c0,0.362,0.102,0.804,0.312,1.333c0.207,0.536,0.695,0.804,1.466,0.804
	c0.536,0,0.949-0.239,1.246-0.71c0.297-0.471,0.551-0.978,0.757-1.514c0.207-0.536,0.417-1.042,0.623-1.513s0.46-0.717,0.757-0.717
	h0.09c0.297,0.123,0.503,0.376,0.623,0.761c0.116,0.384,0.25,0.789,0.398,1.202c0.148,0.413,0.326,0.789,0.536,1.108
	c0.207,0.333,0.518,0.492,0.934,0.492c0.178,0,0.355-0.13,0.532-0.398c0.178-0.268,0.359-0.565,0.536-0.891
	c0.177-0.326,0.355-0.651,0.532-0.978c0.177-0.326,0.358-0.579,0.536-0.76c0.293,0.181,0.518,0.42,0.666,0.709
	c0.148,0.304,0.297,0.594,0.445,0.898c0.148,0.29,0.312,0.551,0.489,0.753c0.178,0.21,0.446,0.312,0.8,0.312
	c0.358,0,0.58-0.181,0.67-0.529C45.697,73.684,45.889,73.51,46.186,73.51z M22.247,89.348c0.058,0,0.091,0.123,0.091,0.354
	c0,0.298-0.033,0.449-0.091,0.449c-0.119,0-0.177-0.151-0.177-0.449C22.07,89.471,22.128,89.348,22.247,89.348z M65.587,30.348
	c0.174,0,0.268,0.058,0.268,0.177c0,0.239-0.094,0.355-0.268,0.355s-0.268-0.116-0.268-0.355
	C65.319,30.406,65.413,30.348,65.587,30.348z"/>
</svg>
