<?xml version="1.0" encoding="utf-8"?>
<!-- Generator: Adobe Illustrator 15.0.2, SVG Export Plug-In . SVG Version: 6.00 Build 0)  -->
<!DOCTYPE svg PUBLIC "-//W3C//DTD SVG 1.1//EN" "http://www.w3.org/Graphics/SVG/1.1/DTD/svg11.dtd">
<svg version="1.1" id="Layer_1" xmlns="http://www.w3.org/2000/svg" xmlns:xlink="http://www.w3.org/1999/xlink" x="0px" y="0px"
	 width="90.074px" height="88.377px" viewBox="0 0 90.074 88.377" enable-background="new 0 0 90.074 88.377" xml:space="preserve">
<path d="M4.282,55.37c0-0.147-0.881-2.235-2.637-6.262C0.545,46.47,0,44.204,0,42.295c0-1.538,0.291-3.075,0.876-4.613
	c0-0.876,0.183-1.792,0.55-2.745c0.585-1.538,0.917-2.378,0.988-2.525c0.733-1.761,2.602-4.027,5.605-6.812
	c0.657-0.219,1.318-0.331,1.976-0.331c1.757,0,4.577,1.431,8.457,4.287c0.585,1.024,1.574,2.525,2.968,4.501
	c-0.076,0.952,0.018,1.779,0.272,2.472c0.259,0.697,0.384,1.448,0.384,2.253h0.55c0.148,1.757,0.295,3.513,0.443,5.274
	c0,1.685-0.331,3.366-0.993,5.051c0.072,1.466-0.326,2.767-1.207,3.902c-0.881,1.136-1.685,2.249-2.418,3.348
	c-2.785,1.757-5.27,2.633-7.469,2.633c-0.585,0-1.171-0.071-1.756-0.214c-1.833-0.805-2.821-1.252-2.968-1.323
	C5.234,56.872,4.573,56.174,4.282,55.37z M35.809,85.578c-2.49-0.59-4.135-0.286-4.944,0.876c-5.489,0.519-7.795,0.769-6.919,0.769
	c-2.271,0-3.992-0.545-5.163-1.645c-0.881-0.072-1.538-0.438-1.976-1.091c-0.442-0.662-0.845-1.323-1.211-1.985
	c-0.733-2.78-1.095-4.505-1.095-5.167c0-1.162,0.291-2.083,0.876-2.736c0.442-1.466,1.43-3.263,2.968-5.382
	c1.976-2.789,3.223-4.622,3.732-5.498c0.733-2.047,1.904-4.461,3.518-7.25c2.561-4.465,3.88-6.776,3.956-6.924
	c0.876-0.072,1.515-0.769,1.922-2.087c0.398-1.314,1.153-1.9,2.249-1.757c0.809-1.1,2.235-1.976,4.287-2.637
	c2.195-0.219,3.844,0.188,4.944,1.211c0.366,0.291,0.876,0.733,1.538,1.318c0.585-0.147,1.792-0.585,3.625-1.318
	c1.828-0.733,3.223-1.1,4.179-1.1c1.162,0,2.19,0.366,3.076,1.1c1.385-0.367,2.271,0.071,2.628,1.318
	c0,0.291,0.072,0.657,0.224,1.095c1.609,0.809,2.637,2.311,3.076,4.506c0.366-0.147,0.563,0.036,0.599,0.55
	c0.036,0.514,0.134,0.769,0.286,0.769c0.581,1.171,1.27,3.076,2.083,5.708c0.509,0.885,1.457,2.021,2.852,3.415
	c-0.071,0.286,0,0.653,0.224,1.091c0.725,0.447,1.609,1.323,2.637,2.637c0.072,0.224,0.162,0.438,0.269,0.662
	c0.116,0.224,0.313,0.259,0.608,0.107c0.661,1.243,1.904,2.816,3.736,4.729c0.662,2.7,0.984,4.863,0.984,6.473
	c0,2.422-0.546,4.327-1.646,5.721c-0.438,0.072-0.769,0.322-0.983,0.769c-0.375,0.733-0.555,1.126-0.555,1.198
	c-2.565,1.842-5.561,2.754-9.012,2.754c-1.895,0-3.701-0.367-5.381-1.1c-0.071,0-0.322-0.295-0.769-0.885
	c-0.367-0.214-0.769-0.286-1.207-0.214c-0.224,0.339-0.769,0.732-1.645,1.216c-0.885,0.465-1.43,0.867-1.654,1.197
	c0.224,0-1.538,0.116-5.27,0.34c-2.195,0.144-4.027-0.044-5.489-0.554c-0.371-0.144-1.501-0.367-3.406-0.662
	C37.163,86.901,36.251,86.382,35.809,85.578z M20.101,27.115c-0.952-2.494-1.318-5.288-1.1-8.376c0-0.143,0.13-0.675,0.385-1.596
	c0.254-0.916,0.384-1.671,0.384-2.257c0-0.442-0.13-0.88-0.384-1.323c-0.255-0.443-0.385-0.773-0.385-0.993
	c0-0.295,0.242-0.845,0.724-1.654c0.479-0.809,0.68-1.47,0.608-1.984c1.256-1.69,2.552-3.379,3.884-5.074
	c1.551-1.98,3.29-3.267,5.212-3.853c3.182-0.076,5.659,0.702,7.433,2.333c-0.223,0.818,0.112,1.265,1.001,1.336
	c0.514,0.67,1.068,1.39,1.663,2.172c0.59,0.778,0.773,1.685,0.554,2.727h0.555c0.219,1.686,0.442,3.366,0.666,5.051
	c0.291,2.347,0.331,4.139,0.111,5.382c0.072,0.59-0.183,2.199-0.769,4.836c-0.367,0.219-0.662,0.805-0.881,1.757
	c-0.219,0.952-0.549,1.573-0.988,1.868c0.219,0.952-0.111,1.645-0.988,2.087l-2.199,1.314c-0.366,0.514-1.1,0.92-2.195,1.211
	c-1.538,0.514-2.382,0.805-2.53,0.876c-0.585,0.076-1.171,0.112-1.757,0.112c-1.904,0-3.661-0.662-5.27-1.985
	C23.324,30.646,22.077,29.323,20.101,27.115z M47.676,27.138c-1.466-3.371-2.199-7.103-2.199-11.206
	c0-4.466,0.988-7.908,2.968-10.326c1.9-3.442,5.342-4.904,10.321-4.394c2.789,0.733,4.542,1.94,5.274,3.625
	c0.805,0.219,1.431,0.715,1.869,1.484c0.438,0.769,0.84,1.52,1.206,2.252c-0.071,0.291,0,0.693,0.224,1.207
	c0.224,0,0.438,0.219,0.652,0.657c0.376,0.662,0.59,0.992,0.662,0.992c0.447,0.585,0.697,1.573,0.769,2.963c0,1.1,0,2.199,0,3.294
	c0,0.662,0.107,1.211,0.331,1.649l-1.1,3.956c0,0.657-0.25,1.354-0.77,2.087c-0.51,0.733-0.769,1.426-0.769,2.087
	c-0.59,0.876-1.171,1.721-1.752,2.525c-0.661,1.1-1.466,1.757-2.414,1.976c-0.08,0.076-0.465,0.147-1.162,0.219
	c-0.697,0.076-1.073,0.331-1.144,0.769c-0.967,0.371-1.95,0.55-2.969,0.55C53.715,33.507,50.38,31.384,47.676,27.138z M70.638,55.15
	c-0.662-1.685-1.359-3.37-2.092-5.055c-0.876-2.124-1.323-3.952-1.323-5.494c0-1.314,0.259-2.633,0.769-3.952
	c0.224-2.418,1.502-5.824,3.844-10.218c0.886-0.804,2.236-1.868,4.077-3.187c0.653,0.076,1.609,0.022,2.853-0.161
	c1.242-0.183,2.082-0.277,2.529-0.277c1.386,0,2.378,0.479,2.959,1.431c0.152,0.438,1.028,1.135,2.638,2.087
	c1.323,0.805,1.832,1.864,1.537,3.183h0.555c0.733,4.103,1.091,6.888,1.091,8.35c0,1.757-0.251,3.259-0.77,4.506
	c0.152,0.514,0.09,1.153-0.16,1.922c-0.26,0.769-0.313,1.444-0.161,2.029c-0.224-0.071-0.482-0.036-0.769,0.112
	c0,0.076,0.25,0.147,0.769,0.219c-0.304-0.143-0.519-0.089-0.662,0.165c-0.143,0.259-0.179,0.532-0.106,0.823
	c-0.376,0.733-1.073,1.538-2.092,2.418c-1.252,1.028-2.057,1.797-2.414,2.307c-1.914,1.167-4.22,1.757-6.92,1.757
	C73.713,58.114,71.658,57.126,70.638,55.15z"/>
</svg>
