<?xml version="1.0" encoding="utf-8"?>
<!-- Generator: Adobe Illustrator 15.0.2, SVG Export Plug-In . SVG Version: 6.00 Build 0)  -->
<!DOCTYPE svg PUBLIC "-//W3C//DTD SVG 1.1//EN" "http://www.w3.org/Graphics/SVG/1.1/DTD/svg11.dtd">
<svg version="1.1" id="Layer_1" xmlns="http://www.w3.org/2000/svg" xmlns:xlink="http://www.w3.org/1999/xlink" x="0px" y="0px"
	 width="90.97px" height="47.852px" viewBox="0 0 90.97 47.852" enable-background="new 0 0 90.97 47.852" xml:space="preserve">
<path d="M81.493,38.046c-1.47-0.531-2.836-1.008-4.104-1.428c-1.268-0.424-2.512-0.775-3.734-1.058
	c-1.218-0.279-2.459-0.5-3.727-0.657c-1.268-0.157-2.634-0.233-4.108-0.233c-2.375,0-4.727,0.179-7.056,0.538
	c-2.333,0.359-4.666,0.775-6.994,1.241c-2.329,0.473-4.66,0.924-6.989,1.363c-2.331,0.439-4.685,0.722-7.061,0.844v0.283
	c0.219,0.596,0.446,1.126,0.681,1.596c0.233,0.466,0.43,0.932,0.586,1.382c0.156,0.454,0.288,0.916,0.399,1.382
	c0.109,0.474,0.164,1.004,0.164,1.596v0.237c0,0.156-0.01,0.298-0.025,0.42c-0.015,0.13-0.023,0.268-0.023,0.424v0.282
	c0,0.126-0.063,0.21-0.187,0.256c-0.126,0.046-0.258,0.08-0.399,0.096s-0.283,0.016-0.422,0c-0.141-0.016-0.227-0.023-0.258-0.023
	c-1.002,0-1.995-0.225-2.98-0.683c-0.985-0.451-1.939-1.009-2.861-1.665c-0.924-0.656-1.791-1.352-2.604-2.084
	c-0.813-0.737-1.533-1.401-2.159-1.993l-0.563-0.283c-0.031,0-0.281-0.03-0.75-0.095s-1.063-0.134-1.783-0.21
	c-0.72-0.077-1.533-0.168-2.44-0.26s-1.813-0.187-2.72-0.282c-0.907-0.092-1.783-0.168-2.627-0.233
	c-0.846-0.065-1.565-0.111-2.159-0.142c-0.156,0-0.594-0.007-1.313-0.023c-0.72-0.015-1.493-0.038-2.322-0.068
	c-0.83-0.031-1.604-0.073-2.323-0.119c-0.72-0.049-1.157-0.088-1.313-0.118c-0.47,0-1.111-0.077-1.924-0.237
	c-0.813-0.153-1.619-0.382-2.415-0.68c-0.798-0.298-1.495-0.687-2.088-1.168C0.298,35.756,0,35.187,0,34.53
	c0-0.348,0.118-0.745,0.351-1.195c0.235-0.454,0.43-0.81,0.588-1.058c1.094-1.97,2.5-3.715,4.221-5.23
	c1.72-1.518,3.606-2.831,5.654-3.942c2.048-1.109,4.19-2.033,6.428-2.768c2.235-0.733,4.402-1.321,6.498-1.758
	c0.938-0.189,1.852-0.336,2.743-0.447c0.892-0.109,1.743-0.258,2.558-0.445c0.813-0.189,1.609-0.437,2.392-0.75
	c0.781-0.313,1.548-0.783,2.298-1.409c0.344-0.281,0.682-0.601,1.01-0.962c0.328-0.359,0.616-0.758,0.866-1.195
	c0.094-0.189,0.329-0.657,0.705-1.407c0.376-0.752,0.781-1.548,1.22-2.394c0.438-0.844,0.844-1.642,1.22-2.392
	c0.374-0.75,0.624-1.22,0.75-1.409c0.313-0.531,0.705-1.132,1.172-1.806c0.469-0.672,0.993-1.296,1.573-1.876
	c0.579-0.578,1.203-1.071,1.876-1.478C44.797,0.202,45.492,0,46.211,0c0.469,0,0.798,0.124,0.987,0.374
	c0.187,0.252,0.281,0.581,0.281,0.985c0,0.72-0.142,1.331-0.422,1.831c-0.283,0.5-0.563,1.079-0.846,1.735
	c-0.468,1.002-0.743,2.058-0.821,3.167c-0.079,1.111-0.117,2.228-0.117,3.354v0.518c0,0.25,0.008,0.5,0.023,0.75
	s0.025,0.5,0.025,0.75v0.563c0.124,0.626,0.429,1.157,0.914,1.594c0.485,0.439,1.046,0.823,1.688,1.151
	c0.641,0.329,1.298,0.586,1.972,0.773c0.672,0.187,1.271,0.328,1.806,0.422c2.97,0.626,5.841,1.346,8.609,2.159
	c2.768,0.813,5.448,1.783,8.044,2.908c2.597,1.126,5.109,2.449,7.529,3.965c2.424,1.518,4.796,3.278,7.109,5.278h0.328
	c0.53,0,1.038-0.053,1.527-0.164c0.48-0.107,0.992-0.164,1.523-0.164c0.309,0,0.726,0.042,1.24,0.118
	c0.52,0.077,1.023,0.21,1.527,0.397c0.497,0.191,0.932,0.432,1.291,0.726c0.358,0.298,0.538,0.684,0.538,1.153
	c0,0.252-0.088,0.436-0.256,0.562c-0.176,0.126-0.378,0.218-0.61,0.282c-0.237,0.065-0.47,0.104-0.703,0.119
	c-0.236,0.015-0.436,0.023-0.588,0.023c-0.03,0.061-0.088,0.21-0.168,0.443c-0.076,0.237-0.146,0.37-0.206,0.401
	c0,0.065-0.05,0.172-0.146,0.328c-0.091,0.157-0.137,0.264-0.137,0.329s0.091,0.217,0.282,0.47c0.184,0.252,0.31,0.389,0.374,0.42
	c0.282,0.534,0.474,0.993,0.588,1.386c0.107,0.393,0.184,0.791,0.233,1.195c0.046,0.408,0.084,0.84,0.118,1.29
	c0.03,0.455,0.106,0.993,0.232,1.619c0.157,0.879,0.359,1.643,0.607,2.299c0.252,0.656,0.378,1.439,0.378,2.345
	c-1.126,0-2.05-0.169-2.768-0.512c-0.718-0.344-1.329-0.81-1.829-1.387c-0.5-0.576-0.917-1.218-1.245-1.924
	c-0.328-0.702-0.664-1.424-1.008-2.157c-0.348-0.733-0.714-1.439-1.104-2.111S82.116,38.52,81.493,38.046z M6.708,37.718
	c0.376,0.03,0.987,0.088,1.831,0.168c0.844,0.076,1.798,0.153,2.861,0.233c1.063,0.08,2.182,0.164,3.354,0.256
	c1.174,0.095,2.283,0.183,3.331,0.259c1.048,0.077,1.995,0.149,2.839,0.214c0.844,0.061,1.47,0.092,1.876,0.092h0.235
	c0.187,0,0.382,0.007,0.586,0.023c0.202,0.015,0.399,0.023,0.586,0.023h0.424h0.329c0.187,0,0.381-0.008,0.586-0.023
	c0.202-0.016,0.382-0.023,0.538-0.023h0.376c-0.72-0.848-1.417-1.565-2.089-2.161c-0.672-0.592-1.384-1.069-2.134-1.428
	c-0.75-0.359-1.571-0.619-2.462-0.775c-0.892-0.156-1.917-0.233-3.074-0.233c-1.97,0-3.995,0.023-6.074,0.069
	C8.546,34.458,6.521,34.656,4.551,35c-0.22,0.031-0.5,0.077-0.844,0.138c-0.346,0.065-0.682,0.137-1.01,0.214
	c-0.328,0.076-0.727,0.164-1.195,0.259L1.22,35.889c0.187,0.348,0.523,0.626,1.008,0.844c0.485,0.222,1.002,0.401,1.548,0.542
	c0.548,0.137,1.088,0.24,1.619,0.305C5.927,37.642,6.365,37.688,6.708,37.718z M10.322,29.979c0,0.248,0.031,0.439,0.094,0.561
	c0.063,0.126,0.218,0.191,0.47,0.191c0.374,0,1.039-0.015,1.993-0.049c0.955-0.031,1.924-0.103,2.91-0.21
	c0.985-0.107,1.854-0.252,2.604-0.42c0.75-0.176,1.126-0.401,1.126-0.684c0-0.344-0.227-0.607-0.682-0.798
	c-0.452-0.187-0.977-0.329-1.571-0.422c-0.594-0.094-1.157-0.147-1.689-0.165c-0.531-0.015-0.859-0.022-0.985-0.022
	c-0.343,0-0.758,0.007-1.243,0.022c-0.485,0.018-0.955,0.079-1.407,0.189c-0.455,0.109-0.838,0.306-1.149,0.588
	C10.479,29.04,10.322,29.448,10.322,29.979z M36.783,37.436c-0.063,0.252-0.025,0.424,0.116,0.519
	c0.142,0.092,0.289,0.138,0.447,0.138h0.281c0.063,0,0.179-0.004,0.351-0.023c0.172-0.015,0.275-0.023,0.306-0.023
	c0.563-0.03,1.313-0.099,2.252-0.21c0.938-0.111,1.876-0.21,2.814-0.305c0.939-0.096,1.768-0.18,2.487-0.256
	c0.72-0.077,1.142-0.134,1.266-0.168c0.346-0.062,0.884-0.161,1.619-0.302s1.563-0.298,2.487-0.47
	c0.92-0.172,1.89-0.351,2.909-0.542c1.016-0.184,1.985-0.375,2.906-0.562c0.924-0.187,1.745-0.351,2.466-0.492
	c0.718-0.142,1.252-0.26,1.596-0.352c1.531-0.187,3.115-0.298,4.761-0.328c1.642-0.031,3.211-0.031,4.715,0
	c-1.031-0.596-2.096-1.046-3.192-1.359c-1.092-0.313-2.207-0.535-3.329-0.657c-1.126-0.126-2.26-0.183-3.402-0.168
	s-2.295,0.042-3.448,0.073c-0.344-0.126-0.596-0.248-0.752-0.378c-0.156-0.123-0.232-0.359-0.232-0.703
	c0-0.218,0.084-0.466,0.255-0.749c0.172-0.282,0.417-0.424,0.729-0.424h7.598c0.313-0.248,0.5-0.404,0.565-0.469
	c0.062-0.061,0.123-0.115,0.188-0.165c0.061-0.045,0.095-0.084,0.095-0.118v-0.183c0-0.502-0.328-0.941-0.985-1.315
	c-0.657-0.376-1.409-0.682-2.253-0.917c-0.848-0.235-1.672-0.405-2.489-0.515c-0.813-0.109-1.39-0.165-1.733-0.165
	c-1.378,0-2.558,0.298-3.543,0.892s-1.886,1.331-2.695,2.203c-0.817,0.878-1.604,1.81-2.371,2.795
	c-0.768,0.985-1.588,1.867-2.465,2.649c-0.626,0.565-1.376,1.016-2.25,1.359c-0.876,0.344-1.783,0.626-2.722,0.848
	c-0.938,0.218-1.876,0.389-2.814,0.512C38.376,37.237,37.533,37.344,36.783,37.436z M71.124,34.389
	c0.031-0.091-0.015-0.141-0.141-0.141c-0.122,0-0.172,0.05-0.137,0.141c0.03,0.092,0.076,0.142,0.137,0.142
	C71.078,34.53,71.124,34.48,71.124,34.389z"/>
</svg>
