<?xml version="1.0" encoding="utf-8"?>
<!-- Generator: Adobe Illustrator 15.0.2, SVG Export Plug-In . SVG Version: 6.00 Build 0)  -->
<!DOCTYPE svg PUBLIC "-//W3C//DTD SVG 1.1//EN" "http://www.w3.org/Graphics/SVG/1.1/DTD/svg11.dtd">
<svg version="1.1" id="Layer_1" xmlns="http://www.w3.org/2000/svg" xmlns:xlink="http://www.w3.org/1999/xlink" x="0px" y="0px"
	 width="90.171px" height="110.349px" viewBox="0 0 90.171 110.349" enable-background="new 0 0 90.171 110.349"
	 xml:space="preserve">
<path d="M5.903,77.69C2.15,73.759,0.185,68.575,0,62.176c0.089,0.089,0.229,0.044,0.414-0.14c-0.095-0.732-0.05-2.379,0.134-4.938
	c0.916-1.926,1.943-3.892,3.088-5.902c1.145-2.011,2.859-3.206,5.149-3.569c1.005,0.184,1.921,0.665,2.742,1.441
	c0.827,0.776,1.647,1.575,2.474,2.401c-0.095,0.458,0.022,1.145,0.341,2.061c0.318,0.916,1.212,2.24,2.675,3.977
	c0.095,0.458,0.458,0.871,1.1,1.234c0.637,0.369,1.234,0.736,1.787,1.1c0.547,1.012,1.05,1.463,1.508,1.374
	c1.921,2.29,2.424,6.222,1.508,11.806c-2.379,4.301-5.127,6.725-8.232,7.271c-0.553,0.09-1.1,0.135-1.647,0.135
	C11.393,80.427,9.014,79.522,5.903,77.69z M5.077,38.295c0.553-3.569,1.737-6.266,3.568-8.098c0.643-0.185,1.05-0.045,1.234,0.408
	c0.279,0.737,0.458,1.145,0.553,1.24c-0.273,0-0.413,0.134-0.413,0.408v0.687c0.184,0.185,0.318,1.19,0.413,3.021
	c0,0.642,0.134,1.095,0.414,1.374c-1.285,1.279-3.072,2.239-5.356,2.881L5.077,38.295z M24.02,97.304
	c-0.274-0.815-0.414-1.688-0.414-2.603c0-2.101,0.503-3.697,1.508-4.804c0.916-2.289,3.591-4.322,8.031-6.109
	c4.439-1.787,7.115-3.819,8.031-6.098c1.279-3.027,3.703-4.535,7.271-4.535c1.737,0,3.658,0.547,5.769,1.652
	c0.916,1.185,2.234,3.061,3.977,5.619c0.458-0.09,0.782-0.135,0.96-0.135v0.414h-0.268c0.536,2.01,2.971,3.406,7.271,4.178
	c4.3,0.781,6.858,2.188,7.685,4.199h0.547v2.602c0.269,0.279,0.414,0.548,0.414,0.816c0,0.279-0.123,0.691-0.347,1.239
	s-0.29,0.961-0.201,1.239c-0.368-0.088-0.559,0.225-0.559,0.961c-0.089,0.09-0.491,0.961-1.229,2.604
	c-0.458,1.016-1.05,1.597-1.787,1.787c-0.458,1.283-1.464,2.424-3.016,3.428c-2.011,1.375-3.251,2.335-3.708,2.883
	c-3.843,2.479-8.646,3.707-14.409,3.707c-6.864,0-13.041-1.508-18.53-4.534C27.538,103.167,25.209,100.331,24.02,97.304z
	 M24.293,45.707c0.089-0.553,0.045-1.33-0.14-2.334c-0.547-1.737-0.502-3.111,0.14-4.116c0.274-3.753,2.24-7.69,5.903-11.806v-0.96
	c0.363,0.185,0.687,0.274,0.96,0.274c0.363,0,0.754-0.251,1.167-0.754c0.408-0.502,0.754-0.798,1.028-0.894h3.429v0.14
	c2.016-0.458,3.569,0.229,4.669,2.061c0.185,0.821,0.687,1.781,1.508,2.882v0.408c-0.184-0.089-0.408-0.045-0.687,0.139
	c0,0.089,0.229,0.185,0.687,0.274c-0.089,0.547-0.044,1.189,0.14,1.921c0.185,0.732,0.274,1.19,0.274,1.374
	c0,0.369-0.14,0.687-0.414,0.96c-0.089,0.643-0.134,1.189-0.134,1.647c0,1.095,0.318,2.195,0.96,3.295l1.782,2.742h0.553
	c0.91,1.743,1.368,3.569,1.368,5.49c0,2.474-0.687,4.485-2.055,6.043c-0.273,1.463-1.284,2.469-3.021,3.016
	c-0.368,0.184-2.016,0.502-4.942,0.961c-3.568-0.18-6.45-1.692-8.645-4.53C27.907,52.844,26.399,50.096,24.293,45.707z
	 M27.449,20.039c-0.089-4.116,1.279-8.188,4.116-12.214h1.24c-0.095,1.832-0.05,4.574,0.134,8.232h0.687v2.334
	c-0.273,0-0.547,0.095-0.821,0.273c-0.642,0.274-1.424,0.916-2.334,1.921h-0.687l-0.14,1.374
	C28.912,22.055,28.181,21.413,27.449,20.039z M56.003,52.57c-2.39-2.837-3.574-5.126-3.574-6.863c0-0.643,0.045-1.285,0.134-1.921
	c0.827-1.832,0.827-3.658,0-5.49c-1.826-4.853-2.742-7.779-2.742-8.785s0.14-2.011,0.413-3.021c0.274-1.826,2.329-3.155,6.171-3.982
	c0.469-0.089,1.262,0.073,2.413,0.48c1.139,0.413,2.033,0.53,2.669,0.346c0.726,0.363,1.642,1.095,2.748,2.195
	c2.01,0.642,3.104,1.921,3.295,3.842c1.921,1.558,2.971,3.479,3.149,5.763h0.559c0.357,1.19,0.536,2.608,0.536,4.256
	s-0.179,3.11-0.536,4.395c-0.47,0.273-0.782,0.821-0.96,1.647l-0.559,2.195c-1.464,2.468-4.479,4.529-9.048,6.177
	C58.841,53.988,57.277,53.575,56.003,52.57z M54.619,14.689c0.089-3.111,0.234-7.824,0.424-14.141c0.357-0.731,1.05-0.731,2.055,0
	c0.179,0.737,0.737,1.463,1.653,2.195l2.323,7.964c-0.179,0.089-0.335,0.458-0.48,1.094c-0.134,0.643-0.48,0.872-1.028,0.687
	c-0.368-0.089-0.636-0.134-0.815-0.134c-0.469,0-0.827,0.296-1.106,0.888c-0.279,0.598-0.48,0.966-0.614,1.101
	c-0.134,0.139-0.492,0.665-1.028,1.58c-0.469,0.089-0.849,0.022-1.173-0.207C54.507,15.487,54.44,15.147,54.619,14.689z
	 M69.172,68.899c-1.374-3.199-1.776-5.166-1.239-5.902c-0.09-0.548-0.135-1.051-0.135-1.508c0-2.379,1.653-4.893,4.938-7.551
	c3.752-3.016,5.953-5.305,6.59-6.863c0.647-1.279,2.792-2.195,6.455-2.742c0.18,0.458,0.76,0.96,1.721,1.508
	c0.961,0.553,1.43,1.234,1.43,2.061c0.279,0.185,0.424,0.804,0.424,1.854c0,1.05,0.269,1.625,0.816,1.714v1.1
	c-0.279,0-0.548,0.089-0.816,0.274l0.816,0.134v2.748H89.49c0.357,2.563-0.135,4.937-1.52,7.137
	c-1.362,1.737-2.736,3.479-4.109,5.223c-0.369,0.178-1.42,0.915-3.15,2.188c-1.296,0.916-2.613,1.374-3.988,1.374
	C73.785,71.837,71.283,70.921,69.172,68.899z M80.152,41.177v-1.921c0.279-0.089,0.413-0.184,0.413-0.279l-0.413-0.408
	c-0.179-0.184-0.179-0.413,0-0.687c0.09-1.279-0.045-2.971-0.402-5.077c0.269-0.369,0.402-0.776,0.402-1.24
	c0-0.179-0.134-0.687-0.402-1.508c-0.189-0.637-0.189-1.234,0-1.782c0.626-0.369,1.408-0.229,2.324,0.408
	c0.367,0.184,0.646,0.754,0.826,1.714c0.178,0.966,0.637,1.447,1.373,1.447c0,0.637,0.258,1.441,0.749,2.401
	c0.514,0.96,0.759,1.759,0.759,2.401c-0.547,1.005-1.005,1.692-1.373,2.055c-0.637,0.642-1.419,1.011-2.334,1.1
	c-0.18,2.29-0.682,3.429-1.509,3.429C80.287,43.232,80.152,42.545,80.152,41.177z"/>
</svg>
