<!-- Generator: Adobe Illustrator 15.0.2, SVG Export Plug-In . SVG Version: 6.00 Build 0)  -->
<!DOCTYPE svg PUBLIC "-//W3C//DTD SVG 1.1//EN" "http://www.w3.org/Graphics/SVG/1.1/DTD/svg11.dtd">
<svg version="1.1" id="Layer_1" xmlns="http://www.w3.org/2000/svg" xmlns:xlink="http://www.w3.org/1999/xlink" x="0px" y="0px"
	 width="90.494px" height="62.384px" viewBox="0 0 90.494 62.384" enable-background="new 0 0 90.494 62.384" xml:space="preserve">
<path d="M7.644,0c8.753,0,18.781,6.575,30.083,19.726c2.671,4.315,4.232,7.356,4.685,9.124v0.246h-0.493
	c-1.85-3.657-4.645-7.356-8.383-11.096c-3.371-3.041-6.083-4.685-8.138-4.932c-0.74,0.329-1.151,0.658-1.233,0.986v1.233
	c2.014,3.165,5.876,6.781,11.589,10.85c3.164,1.808,5.383,3.288,6.657,4.438v0.247c-0.411,0-4.109-1.972-11.096-5.917
	c-3.042-0.986-5.261-1.479-6.658-1.479h-0.493c-3.74,0-6.37,1.973-7.891,5.918c0,1.644,2.301,2.465,6.904,2.465
	c5.096,1.479,8.712,2.219,10.849,2.219c3.781-0.288,6.576-0.863,8.384-1.726v0.247c-2.712,1.973-5.835,2.959-9.37,2.959
	l-11.342-1.479h-0.74c-0.904,0-2.466,0.247-4.685,0.74h-1.726c-3.123,0-4.685-3.616-4.685-10.849c0-6.699-3.042-12.37-9.124-17.014
	C0.247,5.794,0,5.055,0,4.685C0,2.178,2.548,0.616,7.644,0z M9.863,2.959c0,0.164,2.383,1.808,7.15,4.931l1.726,1.973h-0.247
	C14.26,7.068,10.973,5.671,8.63,5.671C7.315,5.794,6.658,6.452,6.658,7.644c0,2.055,1.973,3.206,5.917,3.452
	c2.959,0,5.589,0.576,7.891,1.726v-0.247c0.699-1.644,1.603-2.466,2.712-2.466h0.74V9.863C17.384,5.26,12.699,2.959,9.863,2.959z
	 M11.589,18v0.493c0,1.603,1.315,2.589,3.945,2.959h0.74c1.11,0,3.822-0.575,8.137-1.726c0.329,0.165,0.575,0.247,0.74,0.247v-0.247
	c-2.753-3.452-6.041-5.178-9.863-5.178C12.822,15.206,11.589,16.356,11.589,18z M26.384,36v0.493
	c-4.932,1.973-7.397,4.85-7.397,8.63v0.247c0.781,2.959,2.178,4.438,4.192,4.438h1.973c2.794,0,8.63-4.028,17.507-12.083h0.246
	v0.493c-7.932,7.973-12.123,12.411-12.575,13.315c-0.329,1.028-0.493,1.603-0.493,1.726C30,53.589,30.082,53.836,30.082,54
	c-0.164,0-0.246,0.083-0.246,0.247l1.479,1.232c2.178,0,5.63-3.534,10.356-10.603c0.863-1.151,1.355-1.726,1.479-1.726h0.247v0.247
	C41.014,48.329,37.479,54,32.795,60.411c0,0.575-1.563,1.233-4.685,1.973h-0.493c-4.809,0-9.247-3.041-13.315-9.124
	c-1.15-1.767-1.726-3.822-1.726-6.164C12.575,41.26,17.178,37.562,26.384,36z M15.781,48.083v1.479c0,1.644,0.658,2.876,1.973,3.698
	c0.658-0.164,0.986-0.657,0.986-1.479c-1.315-3.986-1.973-6.37-1.973-7.151C16.274,44.63,15.945,45.781,15.781,48.083z
	 M18.986,28.11c0.329,0.041,0.493,0.205,0.493,0.493v0.247c0,0.329-0.165,0.493-0.493,0.493s-0.493-0.165-0.493-0.493v-0.247
	C18.534,28.274,18.699,28.11,18.986,28.11z M21.206,57.452c0.658,0,0.986,0.082,0.986,0.247c2.671,0,4.315-1.315,4.932-3.946
	c0-1.15-0.493-1.726-1.479-1.726C22.685,53.137,21.206,54.945,21.206,57.452z M22.192,26.384h0.247
	c0.329,0.041,0.493,0.205,0.493,0.493c0,0.329-0.165,0.493-0.493,0.493h-0.247c-0.329,0-0.493-0.165-0.493-0.493
	C21.74,26.548,21.904,26.384,22.192,26.384z M22.932,45.37h0.247c0.247,0,0.493,0.247,0.74,0.74v0.247
	c0,0.329-0.165,0.493-0.493,0.493h-0.493c-0.329,0-0.493-0.165-0.493-0.493v-0.493C22.479,45.534,22.644,45.37,22.932,45.37z
	 M23.425,29.096h0.247c0.247,0,0.493,0.247,0.74,0.74l-0.74,0.493h-0.247c-0.329,0-0.493-0.164-0.493-0.493v-0.247
	C22.973,29.26,23.137,29.096,23.425,29.096z M23.671,40.438h0.493c0.247,0,0.493,0.247,0.74,0.74
	c-0.329,0.74-0.658,1.151-0.986,1.233h-0.247c-0.247,0-0.493-0.247-0.74-0.74v-0.493C22.932,40.932,23.178,40.685,23.671,40.438z
	 M23.918,24.165h0.74c0,0.329-0.165,0.493-0.493,0.493L23.918,24.165z M26.63,26.384h0.74c0.329,0.041,0.493,0.205,0.493,0.493v0.74
	c0,0.329-0.165,0.493-0.493,0.493h-0.74c-0.329,0-0.493-0.165-0.493-0.493v-0.74C26.178,26.548,26.343,26.384,26.63,26.384z
	 M28.85,40.192c0.657,0.247,0.986,0.493,0.986,0.74v0.986c-0.247,0.658-0.822,0.986-1.726,0.986c-0.247,0-0.576-0.329-0.986-0.986
	v-0.74C27.411,40.521,27.986,40.192,28.85,40.192z M28.11,45.124c0.657,0.247,0.986,0.493,0.986,0.74v0.247
	c0,0.247-0.247,0.493-0.74,0.74h-0.493c-0.329,0-0.493-0.165-0.493-0.493v-0.493C27.37,45.617,27.617,45.37,28.11,45.124z
	 M27.37,59.179l1.233,0.246h0.247c0.904,0,1.562-0.411,1.973-1.232v-0.493c0-0.247-0.246-0.493-0.74-0.74
	C29.096,56.959,28.192,57.699,27.37,59.179z M30.576,36.986l0.492,0.74v0.247c0,0.247-0.246,0.493-0.739,0.74h-0.493
	c-0.329,0-0.493-0.165-0.493-0.493v-0.493C29.343,37.356,29.753,37.11,30.576,36.986z M30.082,19.233
	c0.329,0.041,0.494,0.206,0.494,0.493l-0.494,0.247c-0.329,0-0.493-0.165-0.493-0.493L30.082,19.233z M31.068,27.863h0.494
	c0.328,0.041,0.492,0.205,0.492,0.493h-0.492C31.232,28.356,31.068,28.192,31.068,27.863z M31.809,52.521h0.246
	c0.329,0.042,0.494,0.206,0.494,0.493c0,0.329-0.165,0.493-0.494,0.493h-0.739v-0.493C31.356,52.685,31.521,52.521,31.809,52.521z
	 M32.055,17.753h0.247v0.74h-0.247c-0.328,0-0.492-0.165-0.492-0.493L32.055,17.753z M33.041,31.068h0.74
	c0.246,0,0.492,0.247,0.739,0.74v0.493c0,0.247-0.329,0.493-0.985,0.74c-0.74-0.329-1.151-0.657-1.233-0.986v-0.247
	C32.302,31.562,32.549,31.315,33.041,31.068z M33.041,41.918c0.246,0,0.494,0.247,0.74,0.74v0.247c0,0.329-0.164,0.493-0.494,0.493
	h-0.492c-0.329,0-0.493-0.165-0.493-0.493v-0.247C32.302,42.411,32.549,42.165,33.041,41.918z M33.041,20.466h0.246
	c0.248,0,0.494,0.247,0.74,0.74c0,0.329-0.164,0.493-0.492,0.493h-0.494c-0.328,0-0.492-0.165-0.492-0.493v-0.247
	C32.59,20.63,32.754,20.466,33.041,20.466z M33.041,50.055c0.329,0.041,0.494,0.205,0.494,0.493l-0.494,0.247
	c-0.328,0-0.492-0.165-0.492-0.493L33.041,50.055z M34.027,38.219h0.246c0.33,0.041,0.494,0.206,0.494,0.493
	c0,0.329-0.164,0.493-0.494,0.493h-0.246c-0.328,0-0.492-0.165-0.492-0.493C33.576,38.384,33.74,38.219,34.027,38.219z
	 M34.521,51.288h0.247c0.328,0.041,0.492,0.205,0.492,0.493l-0.492,0.246h-0.247V51.288z M36,29.835h0.74v0.247
	c0,0.329-0.164,0.493-0.494,0.493H36V29.835z M37.479,45.37l0.247,0.493l-0.494,0.247l-0.246-0.493L37.479,45.37z M37.479,25.397
	h0.739c0,0.329-0.164,0.493-0.492,0.493L37.479,25.397z M38.713,12.082h0.246c1.15,0.781,1.727,1.85,1.727,3.206
	c-0.329,2.219-0.494,3.699-0.494,4.438c0,0.616,1.068,2.342,3.206,5.178c0,0.288,0.165,0.698,0.493,1.233l0.493-0.247h1.233
	l1.232,0.247c0-0.781,1.15-2.589,3.452-5.425l0.247-1.726c-0.33-1.562-0.494-2.794-0.494-3.699v-0.493
	c0.494-1.808,0.986-2.712,1.48-2.712h0.246c0.246,0,0.493,0.247,0.74,0.74v0.247c-1.316,0.904-1.973,1.479-1.973,1.726l0.492,4.685
	c0,0.945-1.232,3.082-3.698,6.411v0.493c0.329,0.534,0.493,0.945,0.493,1.233c-0.493,1.767-0.74,3-0.74,3.698
	c0,0.699,0.494,1.603,1.48,2.712c-0.041,0.452-0.617,1.521-1.727,3.206c-0.37,14.794-0.781,22.192-1.232,22.192h-0.494
	c-0.821-4.232-1.232-11.466-1.232-21.699c-1.15-2.014-1.727-3.329-1.727-3.945c0.453,0,0.945-0.904,1.48-2.712
	c-0.494-1.849-0.74-3.247-0.74-4.191c0.328,0,0.493-0.165,0.493-0.493v-0.247c-2.63-3.822-3.945-6.124-3.945-6.904
	c0.493-1.932,0.739-3.411,0.739-4.438c0-0.329-0.656-0.822-1.973-1.479v-0.74C38.26,12.247,38.425,12.082,38.713,12.082z
	 M38.219,35.26h0.247c0.329,0.041,0.493,0.206,0.493,0.493L38.466,36h-0.247V35.26z M38.713,37.973h0.246
	c0.329,0.041,0.493,0.206,0.493,0.493c0,0.329-0.164,0.493-0.493,0.493h-0.74v-0.493C38.26,38.137,38.425,37.973,38.713,37.973z
	 M39.452,31.315l0.247,0.493l-0.494,0.247l-0.246-0.493L39.452,31.315z M64.356,36h0.493c8.877,1.644,13.314,5.507,13.314,11.589
	c0,2.959-1.561,6.082-4.684,9.37c-3.33,3.616-6.781,5.425-10.357,5.425h-0.739c-3.288,0-6.821-3.698-10.603-11.096
	c-0.329,0-1.809-2.712-4.438-8.137h0.247c5.753,8.219,9.533,12.329,11.342,12.329c0.658,0,1.232-0.411,1.727-1.232v-0.74
	c0-2.055-2.877-5.589-8.631-10.603l-4.685-5.178l0.493-0.247C56.754,45.863,63,50.055,66.576,50.055
	c3.041,0,4.767-1.891,5.178-5.671c0-2.712-2.219-5.26-6.658-7.644c-0.328-0.165-0.574-0.247-0.739-0.247V36z M82.85,0
	c4.191,0,6.74,1.479,7.645,4.438v0.74c0,0.945-1.563,2.753-4.686,5.424C82.191,14.26,80.385,21,80.385,30.822
	c-1.068,2.63-2.467,3.945-4.192,3.945v0.247c-3.781-0.657-6-0.986-6.657-0.986h-1.233c-6.452,0.986-10.151,1.479-11.097,1.479
	c-3.164,0-6.123-0.986-8.876-2.959v-0.247h0.247c2.712,1.151,5.424,1.726,8.137,1.726c1.562,0,5.342-0.74,11.342-2.219
	c4.274,0,6.412-0.74,6.412-2.219c-1.563-4.109-4.027-6.164-7.398-6.164H65.59c-3.082,0-8.59,2.383-16.521,7.15
	c-0.328,0.165-0.574,0.247-0.739,0.247l-0.247-0.493c5.549-2.835,11.385-7.356,17.508-13.562c0.657-0.986,0.986-1.726,0.986-2.219
	c0-0.74-0.494-1.233-1.48-1.479c-2.671,0-6.78,3.288-12.328,9.863l-4.438,6.164h-0.247v-0.493
	c3.74-9.247,11.385-17.548,22.932-24.904C75.288,1.233,79.232,0,82.85,0z M51.288,31.315c0.329,0.042,0.493,0.206,0.493,0.493
	l-0.493,0.247c-0.329,0-0.493-0.164-0.493-0.493L51.288,31.315z M51.781,37.726c0.246,0,0.493,0.247,0.74,0.74
	c0,0.329-0.165,0.493-0.494,0.493h-0.246c-0.329,0-0.493-0.165-0.493-0.493v-0.247C51.329,37.891,51.494,37.726,51.781,37.726z
	 M51.781,35.26h0.246c0.329,0.041,0.494,0.206,0.494,0.493L52.027,36h-0.246V35.26z M53.508,45.37v0.74
	c-0.33,0-0.494-0.165-0.494-0.493L53.508,45.37z M54,29.835h0.247c0.329,0.042,0.493,0.206,0.493,0.493l-0.493,0.247H54V29.835z
	 M55.973,51.288l0.246,0.493l-0.492,0.246l-0.246-0.493L55.973,51.288z M56.466,38.219h0.247c0.328,0.041,0.492,0.206,0.492,0.493
	c0,0.329-0.164,0.493-0.492,0.493h-0.247c-0.329,0-0.493-0.165-0.493-0.493C56.014,38.384,56.178,38.219,56.466,38.219z
	 M56.713,31.068h0.739c0.247,0,0.493,0.247,0.739,0.74v0.493c-0.164,0.493-0.656,0.74-1.479,0.74l-0.494-0.74v-0.74
	C56.261,31.233,56.425,31.068,56.713,31.068z M57.205,20.466h0.247c0.329,0.041,0.493,0.206,0.493,0.493v0.247
	c0,0.329-0.164,0.493-0.493,0.493h-0.247c-0.328,0-0.492-0.165-0.492-0.493v-0.247C56.754,20.63,56.918,20.466,57.205,20.466z
	 M57.205,42.165h0.74c0.329,0.041,0.493,0.206,0.493,0.493v0.247c0,0.329-0.164,0.493-0.493,0.493h-0.493
	c-0.247,0-0.493-0.247-0.739-0.74C56.754,42.329,56.918,42.165,57.205,42.165z M57.699,50.055c0.328,0.041,0.492,0.205,0.492,0.493
	l-0.492,0.247c-0.329,0-0.494-0.165-0.494-0.493L57.699,50.055z M58.686,52.521h0.246c0.329,0.042,0.493,0.206,0.493,0.493
	c0,0.329-0.164,0.493-0.493,0.493h-0.246c-0.329,0-0.494-0.164-0.494-0.493C58.233,52.685,58.397,52.521,58.686,52.521z
	 M58.438,17.753c0.329,0.041,0.493,0.206,0.493,0.493l-0.493,0.247V17.753z M58.686,27.863h0.739v0.493h-0.739V27.863z
	 M60.411,36.986c0.247,0,0.575,0.329,0.986,0.986c0,0.247-0.247,0.493-0.739,0.74h-0.247c-0.247,0-0.493-0.247-0.739-0.74v-0.247
	C59.672,37.479,59.918,37.233,60.411,36.986z M60.164,56.959l-0.246,0.493v0.986c0.287,0.657,0.863,0.986,1.727,0.986h0.986
	c0.328,0,0.492-0.164,0.492-0.493C62.508,57.616,61.521,56.959,60.164,56.959z M60.658,19.233h0.246v0.74h-0.74v-0.247
	C60.205,19.397,60.37,19.233,60.658,19.233z M61.645,40.192h0.246c1.15,0,1.727,0.493,1.727,1.479
	c-0.247,0.822-0.74,1.233-1.48,1.233c-0.986-0.411-1.479-0.904-1.479-1.479C60.986,40.685,61.315,40.274,61.645,40.192z
	 M62.137,45.37h0.74c0.329,0.041,0.493,0.206,0.493,0.493v0.493c0,0.329-0.164,0.493-0.493,0.493h-0.74
	c-0.328,0-0.492-0.165-0.492-0.493v-0.493C61.686,45.534,61.85,45.37,62.137,45.37z M63.37,26.384h0.739
	c0.329,0.041,0.494,0.205,0.494,0.493v0.74c0,0.329-0.165,0.493-0.494,0.493H63.37c-0.247,0-0.493-0.247-0.739-0.74v-0.247
	C62.631,26.877,62.877,26.63,63.37,26.384z M63.617,53.507v0.247c0,2.055,1.561,3.37,4.685,3.946
	c0.288-0.165,0.698-0.247,1.233-0.247c0-2.343-1.48-4.15-4.439-5.425h-0.739C63.863,52.192,63.617,52.685,63.617,53.507z
	 M64.109,14.548h0.74c0,0.329-0.164,0.493-0.493,0.493h-0.247V14.548z M65.59,19.479v0.493h0.492c0.658,0,3.206,0.493,7.645,1.479
	h1.479c2.137,0,3.452-1.068,3.944-3.206c-0.574-2.466-1.972-3.699-4.191-3.699h-0.246C71.549,14.548,68.508,16.192,65.59,19.479z
	 M66.329,40.438h0.739c0.247,0,0.494,0.247,0.74,0.74v0.493c0,0.247-0.246,0.493-0.74,0.74h-0.246c-0.246,0-0.575-0.329-0.986-0.986
	v-0.493C65.877,40.603,66.041,40.438,66.329,40.438z M66.822,29.096h0.493c0.329,0.042,0.493,0.206,0.493,0.493v0.247
	c0,0.247-0.246,0.493-0.74,0.74c-0.246,0-0.492-0.247-0.739-0.74v-0.247C66.37,29.26,66.535,29.096,66.822,29.096z M66.576,10.109
	c2.301,0,3.451,0.986,3.451,2.959c2.179-1.315,4.48-1.973,6.904-1.973h2.467c2.26,0,3.82-1.233,4.684-3.699
	c-0.287-1.15-1.027-1.726-2.219-1.726c-2.219,0-5.424,1.397-9.616,4.191H72V9.616c2.179-2.301,5.055-4.356,8.631-6.164V2.959h-0.246
	C76.068,3.822,71.467,6.206,66.576,10.109z M67.315,45.37h0.247c0.246,0,0.492,0.247,0.739,0.74v0.247
	c0,0.329-0.165,0.493-0.493,0.493h-0.493c-0.329,0-0.493-0.165-0.493-0.493v-0.493C66.863,45.534,67.027,45.37,67.315,45.37z
	 M68.302,26.384c0.329,0.041,0.493,0.205,0.493,0.493v0.247c0,0.329-0.164,0.493-0.493,0.493s-0.493-0.165-0.493-0.493v-0.247
	C67.85,26.548,68.014,26.384,68.302,26.384z M71.508,28.11h0.246c0.328,0.041,0.493,0.205,0.493,0.493v0.247
	c0,0.329-0.165,0.493-0.493,0.493c-0.246,0-0.493-0.247-0.74-0.74C71.055,28.274,71.22,28.11,71.508,28.11z M73.973,44.63
	c0,0.863-0.657,3-1.973,6.411c0,0.37-0.082,0.698-0.246,0.986c0.287,0.822,0.781,1.233,1.479,1.233
	c1.15-0.986,1.726-2.794,1.726-5.424c0-0.534-0.246-1.603-0.739-3.206H73.973z"/>
</svg>
