<?xml version="1.0" encoding="utf-8"?>
<!-- Generator: Adobe Illustrator 15.0.2, SVG Export Plug-In . SVG Version: 6.00 Build 0)  -->
<!DOCTYPE svg PUBLIC "-//W3C//DTD SVG 1.1//EN" "http://www.w3.org/Graphics/SVG/1.1/DTD/svg11.dtd">
<svg version="1.1" id="Layer_1" xmlns="http://www.w3.org/2000/svg" xmlns:xlink="http://www.w3.org/1999/xlink" x="0px" y="0px"
	 width="90.505px" height="60.813px" viewBox="0 0 90.505 60.813" enable-background="new 0 0 90.505 60.813" xml:space="preserve">
<path d="M38.166,12.875l-4.362,0.629l0.336,0.125c0.699,0.531,1.174,0.853,1.426,0.965c0.363,0.224,0.805,0.433,1.321,0.629
	s0.985,0.335,1.405,0.419c0.419,0.112,0.873,0.196,1.363,0.252c0.488,0.056,0.943,0.083,1.363,0.083
	c0.475,0.028,1.006,0.021,1.594-0.021c0.586-0.042,1.117-0.091,1.594-0.146c0.363-0.056,0.768-0.126,1.216-0.21
	c0.447-0.083,0.853-0.167,1.216-0.251c0.615-0.112,1.293-0.272,2.034-0.482c0.741-0.209,1.419-0.371,2.034-0.482
	c0.392-0.083,0.832-0.167,1.324-0.251c0.49-0.084,0.924-0.154,1.314-0.209c0.392-0.056,0.839-0.126,1.342-0.21
	c0.504-0.084,0.965-0.126,1.385-0.126c0.503,0,1.076,0.021,1.705,0.063s1.188,0.091,1.691,0.147c0.42,0.084,0.938,0.217,1.553,0.398
	s1.034,0.3,1.258,0.356c0.195,0.084,0.573,0.301,1.118,0.65c0.546,0.35,0.853,0.524,0.937,0.524c0.112,0.028,0.434,0.21,0.951,0.545
	s0.824,0.559,0.937,0.671c0.112,0.084,0.294,0.14,0.531,0.168c0.237,0.028,0.434,0.042,0.601,0.042
	c0.28,0.028,0.686-0.042,1.217-0.209c0.308-0.084,0.629-0.238,0.965-0.461s0.656-0.377,0.965-0.461
	c0.223-0.083,0.531-0.14,0.908-0.167c0.377-0.028,0.615-0.042,0.727-0.042c0.141,0,0.434,0.028,0.867,0.084
	c0.434,0.056,0.783,0.056,1.063,0c0.279-0.028,0.573-0.147,0.881-0.356c0.308-0.21,0.602-0.315,0.881-0.315s0.656-0.021,1.133-0.063
	c0.475-0.042,0.895-0.049,1.258-0.021c0.504,0.028,1.133,0.077,1.887,0.146c0.756,0.07,1.272,0.147,1.553,0.231
	c1.006,0.251,1.845,0.657,2.502,1.216c0.657,0.559,1.314,1.3,1.984,2.223c0.084,0.028,0.266,0.356,0.547,0.985
	c0.279,0.629,0.461,1.028,0.545,1.195c0.055,0.168,0.252,0.539,0.572,1.112c0.322,0.573,0.477,0.93,0.477,1.069
	c0.166,0.587,0.391,1.146,0.656,1.678s0.643,0.964,1.146,1.3c-0.391,0.112-0.699-0.014-0.922-0.377
	c-0.225-0.363-0.434-0.776-0.645-1.237c-0.209-0.461-0.447-0.888-0.713-1.279c-0.266-0.392-0.643-0.56-1.117-0.503l1.047,1.384
	c0.645,1.062,1.021,2.195,1.119,3.397s0.643,2.237,1.65,3.104c-0.561-0.056-0.951-0.279-1.189-0.671
	c-0.236-0.392-0.447-0.832-0.629-1.321s-0.391-0.951-0.629-1.384c-0.238-0.434-0.643-0.72-1.203-0.86
	c1.176,1.594,1.818,2.943,1.916,4.047c0.098,1.104,0.504,2.412,1.23,3.921c0.027,0.167,0.182,0.615,0.461,1.342
	c-0.867-1.063-1.635-2.153-2.307-3.271c-0.67-1.119-1.342-2.293-2.014-3.524c-0.166-0.167-0.293-0.266-0.391-0.293
	s-0.098,0.014,0.014,0.126c0.531,0.811,0.965,1.824,1.301,3.041c0.336,1.216,0.434,2.09,0.293,2.621
	c-0.336-1.23-0.783-2.433-1.342-3.607s-1.301-2.195-2.223-3.062c0.671,1.146,1.202,2.412,1.594,3.796
	c0.391,1.384,0.363,2.732-0.084,4.047c0-1.453-0.141-2.873-0.42-4.257s-0.992-2.607-2.139-3.669c0.643,1.23,1.133,2.579,1.469,4.047
	c0.335,1.468,0.266,2.914-0.211,4.34c0.057-1.761-0.182-3.48-0.713-5.158c-0.531-1.678-1.285-3.244-2.264-4.698
	c0.083,0,0.223,0.287,0.419,0.86c0.195,0.573,0.378,1.265,0.545,2.076c0.168,0.811,0.308,1.643,0.405,2.496
	c0.098,0.853,0.084,1.545-0.027,2.076c-0.336-1.035-0.56-2.174-0.686-3.418c-0.125-1.244-0.713-2.621-1.748-4.131
	c0,0.503-0.027,1.133-0.083,1.888s0.069,1.328,0.378,1.719c0.363,1.091,0.586,2.048,0.656,2.873c0.07,0.825-0.224,1.741-0.867,2.748
	c0.028-1.007,0.015-1.79-0.041-2.35c-0.141-0.866-0.336-1.628-0.602-2.285s-0.518-1.377-0.74-2.16
	c-0.225-0.783-0.378-1.706-0.462-2.768s-0.015-2.418,0.21-4.068c-0.336,1.034-0.811,2.034-1.426,2.999s-1.412,1.685-2.391,2.16
	c0.866-0.895,1.594-1.916,2.166-3.062c0.574-1.146,0.881-2.502,0.938-4.068c-0.756,1.594-1.594,3.054-2.531,4.382
	c-0.936,1.328-1.565,1.922-1.873,1.783c0.279,0.168,0.672-0.384,1.174-1.657c0.504-1.272,0.797-2.915,0.881-4.928
	c0.057,0.056-0.014,0.454-0.209,1.195c-0.195,0.741-0.42,1.517-0.686,2.328c-0.266,0.811-0.545,1.51-0.824,2.097
	c-0.279,0.587-0.476,0.741-0.588,0.461c0,0.028,0.084-0.196,0.238-0.671c0.154-0.476,0.321-1,0.503-1.573
	c0.183-0.573,0.321-1.119,0.434-1.636s0.14-0.818,0.084-0.902c-0.308,1.091-0.769,2.181-1.384,3.271s-1.553,1.65-2.811,1.678
	c-0.224,0.028-0.518,0.07-0.881,0.125c1.203-0.419,2.195-1.104,2.964-2.055s0.503-2.055-0.782-3.313
	c-0.084-0.112-0.322,0.937-0.713,3.146c-0.447-0.727-0.588-1.573-0.434-2.537c0.153-0.965-0.518-1.503-2-1.615
	c0.783,1.677,1.175,2.544,1.175,2.6c0,0.084,0.028,0.384,0.069,0.902c0.043,0.517,0.057,0.972,0.057,1.363
	c0.027,0.392-0.154,0.979-0.545,1.762l-1.175,1.761l-1.762,2.307l-1.804,1.635l-1.594,1.175l-0.419,1.048
	c0.028,0.84,0.042,1.301,0.042,1.385c-0.027,0.084,0.154,0.363,0.545,0.838l1.049,1.301l1.887,1.93l1.091,1.049l0.042,1.048
	l-1.3,1.552c-1.007,1.202-1.524,1.846-1.552,1.93c-0.057,0.111-0.783,0.992-2.182,2.642l-1.467,2.224
	c-0.615,1.229-0.965,1.9-1.049,2.013s-0.182,0.266-0.294,0.462c-0.112,0.195-0.21,0.363-0.294,0.502
	c-0.084,0.112-0.195,0.176-0.335,0.189s-0.224,0.188-0.252,0.524c-0.056,0.392-0.028,0.552,0.084,0.481
	c0.112-0.069,0.168-0.021,0.168,0.147c0,0.224,0.028,0.405,0.083,0.546c0.029,0.083,0.099,0.153,0.211,0.209
	c0.111,0.057,0.195,0.14,0.251,0.252c0.028,0.084,0.028,0.188-0.014,0.314c-0.042,0.125-0.07,0.244-0.07,0.356
	c-0.028,0.224-0.042,0.476-0.042,0.755s-0.027,0.531-0.084,0.755c-0.14,0.587-0.321,1.021-0.545,1.3
	c-0.111,0.195-0.643,0.406-1.594,0.629c-0.195,0.252-0.363-0.111-0.518-1.09c-0.153-0.979-0.434-1.762-0.824-2.349
	c0-0.644,0.014-1.049,0.041-1.216c0.029-0.196,0.084-0.413,0.168-0.65c0.084-0.238,0.154-0.44,0.211-0.608
	c0.027-0.28,0.055-0.615,0.083-1.007c0.028-0.391,0.042-0.699,0.042-0.922c0-0.168,0.154-0.413,0.461-0.734
	c0.309-0.322,0.462-0.539,0.462-0.65s0.476-0.783,1.426-2.014l1.929-2.936l-1.51,1.342l-1.929,2.475
	c-0.95,1.146-1.481,1.748-1.594,1.805c-0.112,0.055-0.363,0.328-0.755,0.817s-0.629,0.804-0.713,0.943
	c-0.084,0.168-0.266,0.482-0.545,0.944c-0.279,0.461-0.588,0.762-0.924,0.901c0.113-0.028,0.043-0.028-0.209,0
	c-0.359,0.083-0.625,0.195-0.793,0.335c-0.252,0.196-0.42,0.42-0.504,0.672c-0.084,0.335-0.07,0.67,0.042,1.006
	c0.028,0.112,0.099,0.203,0.21,0.273c0.111,0.069,0.195,0.16,0.252,0.271c0.084,0.252,0.111,0.477,0.084,0.672
	c-0.084,0.279-0.245,0.545-0.482,0.797c-0.238,0.252-0.441,0.475-0.608,0.671c-0.168,0.224-0.434,0.44-0.797,0.649
	c-0.364,0.211-0.615,0.385-0.755,0.525c-0.168,0.111-0.657,0.279-1.469,0.502c-0.195-0.895-0.293-1.467-0.293-1.719
	s0.014-0.518,0.042-0.797s0.098-0.531,0.21-0.755c0.084-0.168,0.217-0.314,0.398-0.44s0.314-0.272,0.398-0.44
	c0.195-0.308,0.356-0.692,0.482-1.153c0.125-0.461,0.272-0.874,0.439-1.237c0.196-0.392,0.469-0.86,0.818-1.405
	s0.553-0.873,0.607-0.985c0.057-0.14,0.812-1.007,2.262-2.601l3.104-3.313c0.393-0.728,0.588-1.175,0.588-1.343
	c0-0.14-0.043-0.685-0.126-1.636l-0.21-1.426l-0.629-1.385c-0.559-1.648-0.839-2.543-0.839-2.684c0-0.111-0.126-0.622-0.378-1.531
	c-0.252-0.908-0.377-1.502-0.377-1.781c0-0.28-0.182-0.477-0.545-0.588c-0.309-0.671-0.56-1.076-0.756-1.217
	c-0.223-0.111-0.404-0.125-0.545-0.041l-0.625,0.168l-0.42,0.293l-2.768,1.51l-3.23,1.174c-2.963,0.477-4.585,0.713-4.864,0.713
	c-0.28,0-1.552,0.099-3.817,0.295l-3.773,0.084l-0.42,1.132l-0.923,0.839v0.965l-0.377,2.181l-1.006,2.433
	c-0.531,1.118-0.839,1.762-0.923,1.93c-0.084,0.195-0.182,0.363-0.293,0.502l0.167,0.63l1.552,0.964l2.224,0.672l3.02,0.587h1.426
	c0.671,0.503,1.021,0.825,1.049,0.965c0.027,0.167,0.209,0.279,0.545,0.335l0.629-0.797c0.699-0.391,1.23-0.615,1.594-0.67
	c0.168,0,0.545,0.404,1.133,1.216l0.67,1.845l-0.041,1.343H41.27c-0.923-0.336-1.496-0.518-1.72-0.546
	c-0.252-0.027-0.503-0.153-0.755-0.377c-0.392,0.027-0.713-0.027-0.964-0.168c-0.28-0.14-0.602-0.182-0.965-0.125
	c-0.476,0-0.84,0-1.091,0c-0.28,0-0.482-0.021-0.608-0.063c-0.125-0.042-0.244-0.063-0.356-0.063c-0.14,0-0.657-0.217-1.552-0.649
	c-0.895-0.434-1.453-0.664-1.678-0.692c-0.224-0.027-1.23-0.321-3.02-0.881c-0.475-0.084-0.783-0.125-0.923-0.125
	c-0.167,0-0.573-0.238-1.216-0.713l-1.132-1.217c-0.167-0.727-0.251-1.146-0.251-1.258c0-0.112,0.112-0.825,0.335-2.14l0.21-3.606
	l-0.042-2.936l-0.419,0.293l-1.384,0.881c-1.342,0.559-2.069,0.881-2.181,0.965c-0.084,0.111-0.643,0.336-1.678,0.671l-0.713,0.839
	c-0.252,0.615-0.392,0.937-0.419,0.965c-0.056,0.139,0.196,0.685,0.755,1.635l1.048,1.343c0.951,1.007,1.482,1.51,1.594,1.51
	c0.084,0,0.293,0.133,0.629,0.398c0.335,0.266,0.531,0.482,0.587,0.649c0.028,0.168,0.084,0.462,0.168,0.881l0.587,0.672
	l0.629-0.168l0.377-0.377l0.461-0.42l1.09,0.797c0.363,0.279,0.573,0.678,0.629,1.195c0.056,0.518,0.112,1.055,0.168,1.615V53.6
	l-0.545,0.042l-0.881-0.546l-1.09-0.838c-1.006-0.56-1.566-0.909-1.678-1.049c-0.112-0.111-0.489-0.182-1.132-0.21l-0.755-0.378
	c-0.419-0.615-0.741-0.922-0.964-0.922c-0.252,0-0.503-0.301-0.755-0.902c-0.251-0.601-0.391-0.985-0.419-1.152
	c-0.056-0.141-0.461-0.707-1.216-1.699c-0.755-0.992-1.203-1.545-1.342-1.656c-0.419-0.279-0.713-0.588-0.881-0.924
	c-0.112-0.223-0.14-0.517-0.084-0.88c0.056-0.364,0.07-0.601,0.042-0.714c-0.028-0.111,0.07-0.488,0.294-1.132
	c0.699-0.698,1.062-1.118,1.09-1.259c0.028-0.139,0.671-0.74,1.929-1.803l1.678-2.181l1.048-1.762l-0.503-0.335
	c-0.839-0.951-1.286-1.482-1.342-1.594c-0.084-0.112-0.259-0.462-0.524-1.049c-0.266-0.587-0.468-1.034-0.608-1.342
	c-0.112-0.308-0.203-0.797-0.273-1.468c-0.07-0.671-0.105-1.314-0.105-1.93c0-0.615-0.167-1.398-0.503-2.349l-1.552-2.684
	l-1.3-2.894c-0.699-1.454-1.174-2.292-1.426-2.516c-0.28-0.224-0.545-0.629-0.797-1.216c-0.727,0.112-1.258,0.182-1.594,0.209
	c-0.336,0.028-0.552,0.035-0.65,0.021c-0.098-0.014-0.217-0.021-0.356-0.021c-0.167,0-0.335,0.084-0.503,0.252
	c-0.895,0.867-1.384,1.328-1.468,1.384c-0.112,0.112-0.377,0.301-0.797,0.566s-0.755,0.552-1.006,0.86
	C6.249,17.811,6.025,18,5.83,18.097c-0.196,0.098-0.335,0.272-0.419,0.524c-0.056,0.112-0.098,0.258-0.125,0.44
	c-0.028,0.182-0.07,0.342-0.126,0.482c-0.084,0.168-0.154,0.336-0.209,0.503c-0.056,0.168-0.126,0.308-0.21,0.419
	c-0.112,0.168-0.251,0.293-0.419,0.377c-0.196,0.112-0.461,0.189-0.797,0.231s-0.545,0.063-0.629,0.063
	c-0.531-0.056-0.839-0.083-0.923-0.083S1.79,21.04,1.678,21.012c-0.084-0.028-0.189-0.147-0.314-0.356
	c-0.126-0.21-0.245-0.343-0.357-0.398c-0.167-0.168-0.363-0.566-0.587-1.195c-0.224-0.629-0.363-1-0.419-1.112
	c0.196-0.95,0.308-1.523,0.335-1.719c0.056-0.168,0.21-0.51,0.461-1.028c0.251-0.517,0.461-0.958,0.629-1.321
	c0.224-0.476,0.545-1.104,0.965-1.888C2.81,11.212,3.02,10.75,3.02,10.611c0-0.112,0.077-0.377,0.231-0.797s0.258-0.671,0.314-0.755
	C3.593,8.975,4.18,7.885,5.327,5.788c0.279-0.587,0.419-0.993,0.419-1.216c0-0.167,0.084-0.433,0.252-0.797L5.83,3.02L5.494,1.594V0
	l0.419,0.545l1.174,1.049L8.22,2.516h0.294h1.006l0.084-0.125L9.227,1.677l0.922,0.713l0.419-0.168
	c0.084-0.251,0.161-0.496,0.231-0.734s-0.035-0.552-0.314-0.944c0.587,0.476,0.797,0.923,0.629,1.342
	c0.559-0.363,1.111-0.769,1.657-1.216c0.545-0.447,1.139-0.335,1.782,0.335c-0.251-0.196-0.489-0.293-0.713-0.293
	c-0.979,0.084-1.706,0.643-2.181,1.678c0.838-0.252,1.398-0.434,1.677-0.545c0.839-0.447,1.817-0.762,2.936-0.944
	c1.118-0.182,2.209-0.021,3.271,0.482c0.167,0.028,0.419,0.266,0.755,0.713c-0.503-0.195-0.853-0.307-1.049-0.335
	c-0.615-0.056-1.16-0.07-1.635-0.042C17.14,1.748,16.734,2.041,16.399,2.6c0.783-0.14,1.3-0.209,1.552-0.209
	c1.006-0.056,2.02-0.175,3.041-0.356c1.021-0.182,2.048-0.147,3.083,0.104c0.196,0,0.294,0.084,0.294,0.252
	c-0.364,0.056-0.825,0.119-1.384,0.188s-0.839,0.356-0.839,0.86l0.713-0.293c1.51-0.419,2.468-0.447,2.873-0.084
	s0.832,0.727,1.279,1.09c-1.426-0.699-2.782-0.601-4.068,0.293c0.839-0.112,1.65-0.203,2.433-0.272s1.384,0.119,1.804,0.566
	c-1.287,0-2.349,0.279-3.188,0.839c1.565-0.196,3.18-0.413,4.844-0.65c1.664-0.237,3.208,0.147,4.635,1.153l-0.21,0.126
	c-1.453-0.643-2.796-0.783-4.026-0.419c-1.23,0.364-1.748,0.811-1.552,1.342c1.007-0.56,2.125-0.86,3.355-0.902
	s2.236,0.482,3.02,1.573c-0.951-0.503-2.125-0.741-3.523-0.713s-1.957,0.671-1.678,1.929c1.119-0.643,2-0.776,2.642-0.398
	c0.644,0.377,1.314,0.762,2.014,1.153c-0.531-0.112-1.342-0.335-2.433-0.671s-1.552-0.014-1.384,0.964
	c0.587-0.14,1.174-0.203,1.762-0.188c0.586,0.014,1.174,0.049,1.761,0.105l1.132,0.293c-0.67-0.056-1.551-0.021-2.642,0.105
	c-1.09,0.125-1.51,0.496-1.258,1.111c1.035-0.755,2.154-1.028,3.355-0.818c1.203,0.209,2.266,0.468,3.188,0.776
	c-0.307,0.167-0.72,0.217-1.236,0.146c-0.518-0.07-1.008-0.125-1.469-0.167s-0.838,0.007-1.133,0.147
	c-0.293,0.14-0.369,0.503-0.23,1.09c0.756-0.308,1.629-0.419,2.621-0.335C36.537,12.414,37.411,12.596,38.166,12.875z"/>
</svg>
