<?xml version="1.0" encoding="utf-8"?>
<!-- Generator: Adobe Illustrator 15.0.2, SVG Export Plug-In . SVG Version: 6.00 Build 0)  -->
<!DOCTYPE svg PUBLIC "-//W3C//DTD SVG 1.1//EN" "http://www.w3.org/Graphics/SVG/1.1/DTD/svg11.dtd">
<svg version="1.1" id="Layer_1" xmlns="http://www.w3.org/2000/svg" xmlns:xlink="http://www.w3.org/1999/xlink" x="0px" y="0px"
	 width="90.523px" height="31.583px" viewBox="0 0 90.523 31.583" enable-background="new 0 0 90.523 31.583" xml:space="preserve">
<path d="M65.107,26.987c0-0.523-0.067-1.059-0.204-1.609c-0.137-0.547-0.276-1.089-0.414-1.627
	c-0.137-0.536-0.246-1.071-0.334-1.606c-0.088-0.535-0.082-1.064,0.018-1.587c-1.171-0.049-2.373-0.143-3.607-0.28
	c-1.231-0.137-2.467-0.274-3.698-0.414c-1.235-0.134-2.467-0.261-3.702-0.371c-1.231-0.112-2.448-0.17-3.644-0.17
	c-0.475,0-0.91,0.082-1.308,0.243c-0.398,0.164-0.791,0.344-1.177,0.542c-0.386,0.201-0.778,0.383-1.177,0.542
	c-0.398,0.164-0.821,0.243-1.271,0.243c-0.173,0-0.38-0.104-0.618-0.316s-0.465-0.456-0.69-0.73s-0.441-0.542-0.654-0.803
	c-0.213-0.262-0.393-0.454-0.542-0.578c0.173-0.076,0.341-0.15,0.505-0.225c0.161-0.075,0.292-0.199,0.393-0.374
	c-0.326-0.149-0.605-0.268-0.843-0.354c-0.237-0.086-0.465-0.155-0.69-0.205c-0.225-0.05-0.45-0.081-0.672-0.095
	c-0.225-0.012-0.486-0.018-0.785-0.018c-0.35,0-0.66,0.068-0.934,0.206c-0.277,0.137-0.544,0.287-0.806,0.448
	c-0.262,0.163-0.523,0.312-0.785,0.449c-0.262,0.137-0.542,0.206-0.839,0.206c-0.35,0-0.605-0.173-0.767-0.523
	c-0.161-0.348-0.307-0.636-0.429-0.859H33.3c0.35-0.273,0.736-0.46,1.159-0.561c0.423-0.099,0.846-0.173,1.271-0.224
	c-1.046-0.35-2.093-0.591-3.139-0.73c-1.046-0.135-2.108-0.205-3.178-0.205c-0.447,0-0.904,0.119-1.363,0.356
	c-0.462,0.237-0.916,0.523-1.366,0.859c-0.447,0.336-0.885,0.68-1.308,1.028c-0.423,0.35-0.809,0.624-1.159,0.823
	c-0.499,0.274-1.071,0.604-1.719,0.992c-0.647,0.383-1.332,0.76-2.056,1.119c-0.724,0.362-1.457,0.672-2.205,0.934
	c-0.748,0.265-1.445,0.393-2.093,0.393c0-0.547,0.106-1.059,0.316-1.533c0.213-0.472,0.45-0.937,0.712-1.401
	c0.262-0.461,0.499-0.928,0.708-1.401c0.213-0.473,0.319-0.984,0.319-1.533c0-0.598-0.188-1.177-0.563-1.738
	c-0.371-0.56-0.809-0.99-1.308-1.29L7.549,7.251c-0.225-0.151-0.468-0.405-0.73-0.767c-0.262-0.36-0.542-0.71-0.839-1.046
	c-0.301-0.336-0.618-0.61-0.955-0.823C4.69,4.404,4.322,4.372,3.924,4.523C3.349,3.875,2.695,3.277,1.962,2.729
	C1.226,2.181,0.572,1.569,0,0.897c0.073,0,0.222-0.006,0.447-0.018c0.225-0.014,0.374-0.02,0.447-0.02
	c1.223,0,2.461,0.205,3.72,0.617c1.259,0.411,2.449,0.829,3.571,1.252c0.222,0.1,0.596,0.255,1.12,0.467
	c0.523,0.213,1.122,0.449,1.794,0.71c0.672,0.262,1.378,0.549,2.111,0.859c0.736,0.313,1.445,0.605,2.132,0.879
	c0.684,0.274,1.308,0.529,1.868,0.767c0.56,0.237,0.979,0.417,1.253,0.542c0.073,0.05,0.225,0.125,0.447,0.225
	c0.225,0.099,0.468,0.217,0.73,0.354c0.262,0.137,0.511,0.261,0.748,0.374c0.234,0.112,0.405,0.193,0.505,0.243
	c0.298,0.149,0.821,0.443,1.57,0.877c0.745,0.437,1.536,0.897,2.372,1.383c0.833,0.486,1.625,0.947,2.373,1.384
	c0.749,0.437,1.259,0.741,1.533,0.916h0.337c0.672,0,1.387-0.155,2.147-0.467c0.761-0.312,1.479-0.66,2.15-1.046
	c0.672-0.386,1.263-0.736,1.773-1.048c0.511-0.311,0.843-0.467,0.992-0.467s0.35,0.056,0.599,0.168
	c0.247,0.113,0.496,0.244,0.745,0.393s0.469,0.286,0.654,0.411c0.188,0.125,0.295,0.199,0.319,0.225l0.112,0.037
	c0.024,0,0.055-0.006,0.091-0.019c0.04-0.012,0.07-0.018,0.094-0.018c0.301-0.101,0.836-0.237,1.609-0.412
	c0.77-0.173,1.588-0.354,2.446-0.542c0.861-0.187,1.682-0.36,2.467-0.523c0.788-0.162,1.329-0.268,1.627-0.318
	c0.125-0.024,0.38-0.063,0.767-0.113c0.386-0.049,0.84-0.105,1.363-0.167c0.523-0.063,1.08-0.125,1.664-0.188
	c0.587-0.062,1.135-0.125,1.646-0.187c0.511-0.062,0.964-0.119,1.362-0.168c0.398-0.049,0.66-0.087,0.785-0.111
	c0.6-0.076,1.068-0.281,1.402-0.617c0.338-0.336,0.587-0.735,0.749-1.195c0.161-0.461,0.255-0.96,0.28-1.495
	c0.024-0.537,0.036-1.066,0.036-1.589c0-0.547-0.103-1.071-0.316-1.569c-0.213-0.499-0.316-1.01-0.316-1.533V0
	c0.995,0.299,1.898,0.704,2.707,1.215c0.812,0.511,1.584,1.083,2.318,1.719c0.736,0.636,1.444,1.328,2.132,2.074
	c0.685,0.749,1.427,1.495,2.224,2.244c0.274,0.05,0.584,0.119,0.934,0.205c0.35,0.088,0.636,0.219,0.861,0.393l14.238,2.13h0.486
	c0-0.598-0.006-1.084-0.018-1.458c-0.013-0.373,0.048-0.654,0.186-0.841c0.137-0.187,0.367-0.31,0.693-0.373
	c0.322-0.063,0.821-0.094,1.493-0.094c0.523,0,0.897,0,1.122,0c0.226,0,0.523,0.112,0.897,0.336c0.174,0.15,0.478,0.442,0.916,0.879
	c0.435,0.437,0.879,0.91,1.326,1.42c0.45,0.511,0.842,1.016,1.177,1.513c0.338,0.499,0.505,0.873,0.505,1.121
	c0,0.424-0.055,1.098-0.167,2.018c-0.113,0.923-0.295,1.857-0.542,2.805c-0.249,0.947-0.587,1.781-1.01,2.503
	c-0.426,0.724-0.934,1.083-1.533,1.083c-0.225,0-0.593-0.006-1.101-0.018c-0.511-0.012-1.028-0.061-1.552-0.149
	c-0.522-0.088-0.985-0.234-1.384-0.447s-0.599-0.517-0.599-0.919c0-0.645,0.094-1.287,0.279-1.922
	c0.188-0.635,0.283-1.29,0.283-1.963c-0.027,0-0.07-0.004-0.131-0.018c-0.063-0.012-0.106-0.018-0.131-0.018
	c-0.849,0.249-1.776,0.517-2.786,0.803c-1.01,0.288-2.017,0.598-3.026,0.936c-1.01,0.336-1.98,0.71-2.917,1.121
	c-0.934,0.411-1.749,0.865-2.445,1.364c-0.028,0.024-0.07,0.119-0.131,0.28c-0.064,0.161-0.119,0.271-0.17,0.319l-2.129,5.457
	c-0.125,0.273-0.374,0.736-0.748,1.381c-0.374,0.65-0.791,1.302-1.253,1.965c-0.459,0.657-0.928,1.244-1.399,1.755
	c-0.475,0.511-0.873,0.767-1.198,0.767c0-0.797,0.063-1.563,0.188-2.3C65.046,28.551,65.107,27.784,65.107,26.987z"/>
</svg>
