<?xml version="1.0" encoding="utf-8"?>
<!-- Generator: Adobe Illustrator 15.0.2, SVG Export Plug-In . SVG Version: 6.00 Build 0)  -->
<!DOCTYPE svg PUBLIC "-//W3C//DTD SVG 1.1//EN" "http://www.w3.org/Graphics/SVG/1.1/DTD/svg11.dtd">
<svg version="1.1" id="Ebene_1" xmlns="http://www.w3.org/2000/svg" xmlns:xlink="http://www.w3.org/1999/xlink" x="0px" y="0px"
	 width="926.36px" height="102.05px" viewBox="0 0 926.36 102.05" enable-background="new 0 0 926.36 102.05" xml:space="preserve">
<g>
	<path d="M92.719,22.905h-13.41v-4.841h32.642v4.841H98.476v39.249h-5.756V22.905z"/>
	<path d="M115.222,47.37c0.131,7.784,5.037,10.989,10.859,10.989c4.121,0,6.672-0.72,8.766-1.636l1.046,4.121
		c-2.028,0.916-5.56,2.028-10.597,2.028c-9.747,0-15.568-6.477-15.568-16.026c0-9.551,5.625-17.008,14.849-17.008
		c10.401,0,13.083,9.027,13.083,14.849c0,1.178-0.065,2.028-0.196,2.683H115.222z M132.099,43.249
		c0.065-3.599-1.504-9.289-7.98-9.289c-5.887,0-8.373,5.298-8.831,9.289H132.099z"/>
	<path d="M144.004,56.331c1.766,1.047,4.775,2.225,7.653,2.225c4.121,0,6.084-2.028,6.084-4.71c0-2.747-1.636-4.187-5.822-5.757
		c-5.756-2.093-8.438-5.167-8.438-8.961c0-5.103,4.187-9.289,10.924-9.289c3.206,0,6.018,0.851,7.719,1.962l-1.374,4.187
		c-1.243-0.785-3.532-1.896-6.476-1.896c-3.401,0-5.233,1.962-5.233,4.317c0,2.616,1.832,3.794,5.953,5.429
		c5.429,2.028,8.308,4.775,8.308,9.485c0,5.626-4.383,9.551-11.774,9.551c-3.467,0-6.672-0.916-8.896-2.225L144.004,56.331z"/>
	<path d="M177.626,22.905v7.588h8.242v4.383h-8.242v17.072c0,3.926,1.112,6.149,4.317,6.149c1.57,0,2.486-0.131,3.336-0.393
		l0.262,4.383c-1.112,0.393-2.878,0.785-5.103,0.785c-2.682,0-4.841-0.916-6.214-2.421c-1.57-1.766-2.224-4.578-2.224-8.308V34.876
		h-4.906v-4.383h4.906v-5.888L177.626,22.905z"/>
</g>
</svg>
