<?xml version="1.0" encoding="utf-8"?>
<!-- Generator: Adobe Illustrator 15.0.2, SVG Export Plug-In . SVG Version: 6.00 Build 0)  -->
<!DOCTYPE svg PUBLIC "-//W3C//DTD SVG 1.1//EN" "http://www.w3.org/Graphics/SVG/1.1/DTD/svg11.dtd">
<svg version="1.1" id="Layer_1" xmlns="http://www.w3.org/2000/svg" xmlns:xlink="http://www.w3.org/1999/xlink" x="0px" y="0px"
	 width="90.142px" height="49.468px" viewBox="0 0 90.142 49.468" enable-background="new 0 0 90.142 49.468" xml:space="preserve">
<path d="M78.803,13.242c-0.178-0.152-0.469-0.558-0.875-1.218c-0.381,1.167-0.622,1.915-0.723,2.245
	c-0.355,1.04-0.71,2.067-1.078,3.082s-0.837,1.991-1.395,2.93c-0.051,0.076-0.165,0.368-0.343,0.875c0,1.243,0,2.055,0,2.436
	c-0.025,0.253-0.063,0.545-0.114,0.875s-0.114,0.609-0.19,0.837c-0.051,0.203-0.14,0.412-0.267,0.627
	c-0.127,0.216-0.241,0.4-0.342,0.552c-0.102,0.152-0.305,0.482-0.609,0.99v1.864l3.044,4.414c0.736,0.685,1.104,1.065,1.104,1.142
	s0.038,0.178,0.114,0.305c0.076,0.126,0.127,0.241,0.152,0.342c0.051,0.304,0.038,0.558-0.038,0.761
	c-0.025,0.076-0.013,0.228,0.025,0.457c0.038,0.228,0.051,0.406,0.051,0.533c0,0.177,0.013,0.368,0.025,0.571
	c0.013,0.203-0.025,0.38-0.102,0.533c-0.051,0.177-0.165,0.342-0.342,0.495c-0.178,0.152-0.317,0.304-0.419,0.457
	c-0.126,0.203-0.266,0.444-0.431,0.723c-0.165,0.279-0.304,0.533-0.406,0.761c-0.152,0.229-0.431,0.774-0.837,1.636l-0.342,0.914
	l-0.342,0.685l-0.99,0.609l-0.723,0.114l-0.267,0.267l-0.647,0.571c-0.279,0.101-0.444,0.152-0.495,0.152s-0.063,0.076-0.038,0.229
	l-0.951,0.685c-0.837,0.431-1.281,0.646-1.332,0.646c-0.025,0-0.279,0-0.761,0l-0.19-0.799l0.114-1.865l0.418-0.799l0.99-0.723
	c0.583-0.051,0.926-0.076,1.027-0.076c0.101,0,0.304,0.267,0.609,0.799l0.304-0.19l-0.114-0.647l0.305-0.609l0.571-0.342
	c0.431-0.482,0.71-0.799,0.837-0.951c0.355-0.381,0.66-0.761,0.913-1.142c0.127-0.229,0.279-0.488,0.444-0.78
	c0.165-0.292,0.292-0.564,0.393-0.818c0.025-0.127,0.051-0.394,0.076-0.799l-0.076-0.989l-0.418-0.342
	c-0.66-0.406-1.015-0.622-1.065-0.647c-0.076-0.025-0.305-0.108-0.698-0.248s-0.622-0.209-0.672-0.209s-0.773-0.432-2.169-1.294
	l-1.332-1.065c-0.279,0.304-0.608,0.552-0.989,0.742c-0.38,0.19-0.773,0.336-1.18,0.438c-0.076,0.279-0.114,0.457-0.114,0.533
	c-0.051,0.406-0.076,0.862-0.076,1.37s0.013,0.952,0.038,1.332c0,0.558,0.025,1.167,0.076,1.827c0.05,0.659,0.114,1.255,0.19,1.788
	c0.025,0.33,0.114,0.679,0.254,1.046c0.14,0.368,0.177,0.691,0.127,0.971c-0.025,0.152-0.089,0.298-0.203,0.438
	s-0.229,0.26-0.33,0.361c-0.025,0.025-0.165,0.152-0.418,0.38c-0.152,0.127-0.317,0.279-0.507,0.457
	c-0.19,0.177-0.33,0.292-0.406,0.342c-0.051,0.025-0.305,0.057-0.761,0.095s-0.71,0.057-0.761,0.057s-0.292,0.063-0.736,0.19
	c-0.444,0.127-0.71,0.203-0.787,0.229c-0.076,0.025-0.406,0.121-0.989,0.285c-0.583,0.165-0.888,0.273-0.913,0.324
	c-0.051,0.051-0.305,0.152-0.761,0.304c-0.457,0.152-0.824,0.241-1.104,0.267c-0.304,0.051-0.558,0.038-0.761-0.038
	c-0.102-0.025-0.292-0.152-0.571-0.38c-1.319,0-2.004,0-2.055,0c-0.076,0-0.152,0.063-0.229,0.19l-3.006,0.038L51.177,45.7
	l0.495-1.142l0.685-0.989c0.482-0.33,0.749-0.482,0.799-0.457s0.507,0.089,1.37,0.19c0.203,0.609,0.317,0.938,0.343,0.989
	s0.215,0.152,0.571,0.304l1.104,0.038c0.533-0.126,0.875-0.215,1.027-0.266c0.127-0.025,0.266-0.07,0.406-0.133
	s0.254-0.108,0.355-0.133c0.178-0.025,0.558-0.025,1.142,0l1.903-0.761l1.56-0.609l0.305-0.418l-0.952-1.827
	c-0.735-1.396-1.192-2.917-1.37-4.566c-0.102-0.304-0.178-0.495-0.229-0.571c-0.127-0.253-0.457-0.748-0.989-1.484
	c-0.355-0.203-0.596-0.317-0.723-0.342c-0.457-0.102-0.977-0.159-1.56-0.171s-1.116-0.032-1.598-0.057
	c-1.776-0.051-3.539-0.241-5.289-0.571c-1.748-0.33-3.396-0.951-4.944-1.865c-0.33-0.177-0.666-0.406-1.008-0.685
	c-0.342-0.279-0.666-0.533-0.97-0.761c-0.178-0.102-0.399-0.26-0.666-0.476s-0.425-0.336-0.476-0.361c-0.076,0-0.279,0-0.609,0
	l-0.076,1.674l-0.228,1.94c-0.051,0.837-0.114,1.382-0.19,1.636c-0.051,0.178-0.133,0.355-0.248,0.533
	c-0.114,0.178-0.196,0.355-0.247,0.533c-0.025,0.127-0.038,0.267-0.038,0.418c0,0.152,0,0.292,0,0.419c0,0.33,0,0.697,0,1.104
	c0,0.406,0.051,0.748,0.152,1.027c0.025,0.126,0.101,0.272,0.228,0.438s0.203,0.272,0.229,0.323s0.317,0.305,0.875,0.761
	s1.015,0.812,1.37,1.065c0.304,0.229,0.659,0.469,1.065,0.723c0.406,0.253,0.786,0.482,1.142,0.685
	c0.33,0.229,0.773,0.533,1.332,0.914c0.558,0.38,0.863,0.583,0.914,0.609c0.025,0.051,0.19,0.368,0.495,0.951l0.913,1.142l1.1,0.951
	c0.152,0.558,0.229,0.9,0.229,1.027c0.025,0.152,0.165,0.52,0.418,1.104l0.076,0.799l-1.065,0.114l-1.557-0.305L47.87,48.63
	l-0.304-0.609l0.076-0.799c0.025-0.051,0.089-0.305,0.19-0.761l-0.38-0.495l-0.685,0.038l-0.495-0.19l-0.38-0.761l-0.19-0.305
	c-0.837-0.71-1.37-1.167-1.598-1.37c-0.305-0.254-0.977-0.799-2.017-1.636c-0.025,1.142-0.038,1.75-0.038,1.826
	s-0.025,0.507-0.076,1.294l-0.19,0.38l-0.228,0.875l-0.952,1.255c-0.127,0.102-0.253,0.152-0.38,0.152s-0.431-0.292-0.913-0.875
	l-0.533-1.294l-0.114-1.18l0.228-0.723l0.571-1.027l-0.228-0.38l0.038-0.875c-0.381-0.432-0.634-0.698-0.761-0.799
	c-0.229-0.228-0.482-0.476-0.761-0.742c-0.279-0.266-0.533-0.488-0.761-0.666c-0.305-0.279-0.647-0.571-1.027-0.875
	c-0.381-0.304-0.723-0.596-1.027-0.875c-0.355-0.254-1.18-0.837-2.474-1.75l-1.56-1.256l-0.418-0.646v-0.761l1.902-1.903
	l1.789-1.864c-1.319-0.583-2.486-1.3-3.501-2.15c-1.015-0.85-1.813-1.96-2.397-3.33c-0.051,0.609,0.006,1.211,0.171,1.807
	c0.165,0.596,0.336,1.186,0.514,1.77l-1.979-4.909c0.482,1.269,0.749,2.093,0.799,2.474c0.076,0.482-0.241,1.522-0.952,3.12
	c0.355-1.547,0.457-2.549,0.305-3.006c-0.127-0.33-0.495-1.053-1.104-2.169c-0.229,0.583-0.393,0.952-0.495,1.104
	c-0.254,0.355-0.799,0.622-1.636,0.799c0.126,0.888-0.127,1.712-0.761,2.473c-0.634,0.761-1.269,1.192-1.902,1.294
	c0.888-0.989,1.332-1.56,1.332-1.712c0-0.152,0.102-0.875,0.305-2.169c-1.116,2.765-1.928,4.478-2.436,5.137
	c-0.482,0.66-1.776,1.839-3.881,3.539c0.685-0.659,1.237-1.198,1.655-1.617c0.418-0.418,0.799-0.818,1.142-1.199
	c0.342-0.38,0.514-0.621,0.514-0.723c0-0.076,0.146-0.425,0.438-1.046c0.292-0.622,0.615-1.275,0.97-1.96
	c0.355-0.685,0.825-1.598,1.408-2.74l-1.636,3.196c-1.674,2.131-2.791,3.476-3.349,4.034c-0.482,0.482-1.059,0.977-1.731,1.484
	s-1.3,0.939-1.883,1.294c-0.279,0.203-0.628,0.368-1.047,0.495c-0.418,0.127-0.754,0.305-1.008,0.533
	c-0.279,0.279-0.545,0.698-0.799,1.256c-0.254,0.558-0.418,0.875-0.495,0.951c-0.178,0.127-0.444,0.222-0.799,0.286
	c-0.355,0.063-0.596,0.209-0.723,0.438c-0.355,0.507-0.406,1.827-0.152,3.958c-0.863-0.787-1.332-1.338-1.408-1.655
	c-0.076-0.317-0.139-1.123-0.19-2.417c-0.051-0.229-0.406-0.013-1.065,0.647c-0.457,1.269-1.065,2.454-1.827,3.558
	s-1.776,2.036-3.044,2.797c0.254-0.355,0.533-0.78,0.837-1.274c0.304-0.495,0.292-0.78-0.038-0.856l-1.636,0.343
	c0.66-1.041,1.104-2.131,1.332-3.272L0,41.058L2.245,37.9l-1.256,1.522c0.533-1.065,0.914-1.712,1.142-1.941
	c0.482-0.482,1.142-0.869,1.979-1.161c0.837-0.292,1.471-0.716,1.902-1.274c0.279-0.33,0.596-1.218,0.952-2.664
	c-0.914,0.152-1.497,0.266-1.75,0.342c-0.406,0.178-1.23,0.698-2.474,1.56c0.914-1.015,1.547-1.624,1.903-1.826
	c0.228-0.127,0.824-0.305,1.789-0.533c-1.269,0-2.081-0.051-2.436-0.152c-0.38-0.102-0.85-0.343-1.408-0.723
	c-0.558-0.38-0.862-0.609-0.913-0.685c-0.051-0.051,0.14,0.025,0.571,0.229s0.761,0.368,0.989,0.495
	c0.229,0.127,0.641,0.19,1.237,0.19s0.958,0,1.084,0s0.229-0.254,0.305-0.761c0.076-0.507,0.228-0.875,0.457-1.104
	c0.482-0.482,1.3-0.881,2.454-1.199c1.154-0.317,1.795-0.488,1.922-0.514c0.076,0,0.139-0.196,0.19-0.59
	c0.051-0.393,0.152-0.691,0.305-0.894c0.253-0.33,1.015-0.85,2.283-1.56c-1.091-0.127-1.801-0.203-2.131-0.229
	c-0.406-0.025-0.837-0.032-1.294-0.019s-0.888,0.083-1.294,0.209c-0.66,0.203-1.516,0.418-2.568,0.647
	c-1.053,0.228-1.604,0.33-1.655,0.304c-0.025-0.025,0.127-0.095,0.457-0.209c0.33-0.114,0.698-0.241,1.104-0.38
	s0.951-0.323,1.636-0.552c-1.065,0.178-1.75,0.279-2.055,0.305c-0.355,0.05-0.749,0.114-1.18,0.19s-0.824,0.076-1.18,0
	c-0.253-0.051-0.735-0.393-1.446-1.027c0.66,0.406,1.104,0.622,1.332,0.647c0.482,0.102,1.021,0.095,1.617-0.019
	c0.596-0.114,1.135-0.235,1.618-0.361c0.279-0.076,0.888-0.33,1.826-0.761l-3.729,0.495c1.269-0.406,1.953-0.634,2.055-0.685
	c0.076-0.051,0.267-0.095,0.571-0.133c0.305-0.038,0.558-0.07,0.761-0.095c0.33-0.051,1.015-0.178,2.055-0.381
	c-0.837,0.025-1.674,0.063-2.511,0.114c-0.837,0.051-1.611,0.216-2.321,0.495c-0.507,0.051-1.662-0.038-3.463-0.266
	c1.624,0.025,2.676-0.013,3.158-0.114c0.229-0.025,0.495-0.108,0.799-0.247c0.304-0.14,0.571-0.235,0.799-0.286
	c0.761-0.152,1.522-0.279,2.283-0.38c0.761-0.102,1.522-0.229,2.283-0.381c0.507-0.05,1.148-0.088,1.922-0.114
	c0.773-0.025,1.528-0.044,2.264-0.057c0.735-0.013,1.624-0.019,2.664-0.019c-1.345-0.609-2.657-0.901-3.938-0.875
	s-2.594,0.343-3.938,0.952c0.71-0.761,1.649-1.23,2.816-1.408c0.583-0.076,1.902-0.089,3.958-0.038
	c-1.192-0.406-1.966-0.622-2.321-0.647c-0.279-0.025-0.888,0.063-1.827,0.267c0.964-0.507,1.598-0.761,1.903-0.761
	c0.355,0,0.742,0.063,1.161,0.19c0.418,0.127,0.805,0.216,1.161,0.267c0.33,0.076,0.691,0.19,1.084,0.342
	c0.393,0.152,0.742,0.216,1.046,0.19c0.431-0.051,0.9-0.229,1.408-0.533c0.457-0.229,0.907-0.558,1.351-0.99
	c0.444-0.431,0.869-0.799,1.274-1.104c0.432-0.355,0.907-0.748,1.427-1.18c0.52-0.431,1.008-0.799,1.465-1.104
	c0.203-0.152,0.444-0.311,0.723-0.476c0.279-0.165,0.545-0.285,0.799-0.361c0.152-0.025,0.33-0.032,0.533-0.019
	c0.203,0.013,0.381-0.019,0.533-0.095c0.355-0.076,0.729-0.241,1.123-0.495c0.394-0.253,0.768-0.469,1.123-0.647
	c0.381-0.203,0.812-0.431,1.294-0.685c0.482-0.254,0.926-0.47,1.332-0.647c0.406-0.152,0.85-0.33,1.332-0.533
	c0.482-0.203,0.938-0.343,1.37-0.419c0.659-0.152,1.395-0.228,2.207-0.228c0.507,0,1.059,0.013,1.655,0.038
	c0.596,0.025,1.147,0.089,1.655,0.19c0.355,0.076,0.786,0.235,1.293,0.476c0.507,0.241,0.837,0.387,0.989,0.438
	c0.102,0.051,0.394,0.146,0.875,0.285c0.482,0.14,1.002,0.286,1.56,0.438c0.558,0.152,1.065,0.292,1.522,0.419
	c0.457,0.126,0.698,0.19,0.723,0.19c0.051,0.025,0.558,0.178,1.519,0.457c0.964,0.279,1.75,0.469,2.359,0.57
	c0.507,0.076,1.078,0.133,1.712,0.171s1.218,0.032,1.75-0.019c0.253-0.025,0.812-0.177,1.674-0.457l1.712-0.761
	c-1.167-0.228-1.916-0.292-2.245-0.19c-0.203,0.076-0.558,0.444-1.065,1.104c0.102-0.229,0.228-0.457,0.368-0.685
	s0.216-0.482,0.241-0.761l-2.017,0.875l2.283-1.789c-0.989-0.482-1.484-0.749-1.484-0.799c0.533,0.101,1.04,0.215,1.509,0.342
	s0.964,0.102,1.497-0.076c-0.457-0.279-0.926-0.412-1.408-0.399s-0.964,0.006-1.446-0.019c1.192-0.305,2.714-0.229,4.566,0.228
	c-0.938-0.355-1.42-0.672-1.446-0.951c-0.025-0.228,0.368-0.609,1.18-1.142c-0.482,0.482-0.698,0.799-0.647,0.951
	c0,0.152,0.089,0.286,0.254,0.4c0.165,0.114,0.317,0.196,0.469,0.247c0.33,0.127,1.091,0.14,2.283,0.038
	c-0.432-0.558-0.723-0.888-0.875-0.989c-0.203-0.102-0.698-0.203-1.484-0.304l3.234,0.076c-0.837-0.101-1.383-0.177-1.636-0.228
	c-0.305-0.076-0.52-0.165-0.647-0.267c-0.229-0.126-0.609-0.495-1.142-1.104c0.583,0.355,0.977,0.558,1.18,0.609
	c0.229,0.076,0.457,0.089,0.685,0.038c0.152-0.025,0.444-0.127,0.875-0.304c-1.167-0.076-1.864-0.216-2.093-0.419
	c-0.127-0.076-0.254-0.368-0.38-0.875c0.203,0.406,0.368,0.647,0.495,0.723c0.253,0.177,0.913,0.266,1.979,0.266
	c-0.152-0.076-0.253-0.139-0.304-0.19c-0.178-0.102-0.596-0.267-1.256-0.495c0.888,0.177,1.37,0.266,1.446,0.266
	c0.051,0,0.355-0.063,0.914-0.19c0,0.076-0.343,0.038-1.04-0.114c-0.698-0.152-1.104-0.267-1.205-0.343
	c-0.025,0,0.33,0.032,1.065,0.095s1.104,0.07,1.104,0.019c-0.33-0.051-0.609-0.184-0.85-0.399c-0.241-0.216-0.495-0.412-0.748-0.59
	c0.279,0.152,0.571,0.304,0.875,0.457c0.305,0.152,0.609,0.241,0.914,0.266l3.386-0.228c-0.938-0.507-1.471-0.774-1.598-0.799
	c-0.152-0.025-0.596-0.126-1.332-0.304c0.761-0.051,1.255-0.051,1.484,0c0.279,0.076,0.583,0.216,0.913,0.418
	c0.33,0.203,0.647,0.33,0.952,0.38c0.177,0.051,0.406,0.07,0.685,0.057c0.279-0.013,0.482-0.019,0.609-0.019
	s0.241-0.101,0.343-0.304c-0.279-0.025-0.47-0.063-0.571-0.114c-0.229-0.102-0.47-0.247-0.723-0.438
	c-0.254-0.19-0.495-0.323-0.723-0.399c-0.279-0.102-0.926-0.203-1.94-0.305c1.04-0.076,1.712-0.076,2.017,0
	c0.229,0.051,0.457,0.184,0.685,0.4c0.228,0.215,0.457,0.361,0.685,0.438c0.126,0.025,0.406,0.025,0.837,0l1.065-0.989
	c-0.457,0.38-0.773,0.596-0.951,0.646C68.808,4.617,68.554,4.591,68.3,4.49c-0.279-0.102-0.786-0.47-1.522-1.104
	c0.787,0.457,1.319,0.723,1.598,0.799c0.38,0.076,0.672,0.076,0.875,0c0.177-0.076,0.457-0.368,0.837-0.875
	c-0.736,0.025-1.205,0.025-1.408,0c-0.558-0.127-0.812-0.355-0.761-0.685s0.152-0.723,0.304-1.18c0-0.127-0.013,0.006-0.051,0.399
	c-0.038,0.394-0.012,0.679,0.089,0.856c0.254,0.228,0.545,0.349,0.875,0.361c0.33,0.013,0.66-0.006,0.989-0.057
	c0.229-0.025,0.672-0.178,1.332-0.457c-0.305-0.229-0.508-0.368-0.609-0.418c-0.254-0.102-0.558-0.165-0.926-0.19
	c-0.368-0.025-0.685-0.089-0.938-0.19c-0.558-0.33-1.027-0.672-1.42-1.027c-0.394-0.355-1.015-0.457-1.852-0.304
	c1.015-0.482,1.75-0.425,2.207,0.171c0.457,0.596,1.218,0.97,2.283,1.123c0.051,0.025,0.203,0.05,0.457,0.076l-1.408-1.293
	c1.091,0.812,1.662,1.23,1.712,1.255c0.051,0.025,0.292,0.19,0.723,0.495c0.431,0.304,0.799,0.495,1.104,0.571h0.267
	c0.203-0.025,0.634-0.076,1.293-0.152l1.484-0.267c-0.508-0.304-1.078-0.438-1.725-0.399s-1.294,0.032-1.928-0.019
	c0.583-0.102,0.901-0.152,0.951-0.152c0.025,0,0.71-0.038,2.055-0.114c-0.736-0.076-1.218-0.114-1.446-0.114
	c-0.253,0-0.786,0.051-1.598,0.152c0.787-0.228,1.307-0.355,1.56-0.38c0.355-0.025,1.154,0,2.397,0.076
	c-0.583-0.583-0.977-0.913-1.18-0.989c-0.355-0.152-0.723-0.178-1.104-0.076c-0.253,0.051-0.697,0.342-1.332,0.875
	c0.482-0.659,0.837-1.027,1.065-1.104C73.78,0.051,74.059,0,74.376,0c0.317,0,0.596,0.038,0.85,0.114
	C75.479,0.19,76,0.495,76.786,1.027l0.989,0.19c-0.127-0.304-0.229-0.482-0.304-0.533c-0.076-0.051-0.229-0.114-0.457-0.19
	c0.305,0,0.507,0.013,0.609,0.038c0.102,0.051,0.279,0.241,0.533,0.571c0.685,0.126,1.116,0.215,1.294,0.266
	c0.203,0.076,0.406,0.171,0.609,0.286c0.203,0.114,0.393,0.209,0.571,0.285c0.152,0.076,0.482,0.229,0.989,0.457l0.304-0.152
	l1.028-0.875l0.761-0.685l0.19,0.19L83.635,1.75l-0.304,1.218l-0.495,0.609c-0.127,0.305-0.19,0.495-0.19,0.571
	s0.178,0.292,0.533,0.647l1.598,1.827c0.305,0.304,0.495,0.52,0.571,0.646c0.051,0.102,0.089,0.235,0.114,0.4
	C85.487,7.832,85.5,7.94,85.5,7.991s0.102,0.26,0.292,0.628s0.343,0.666,0.47,0.894c0.152,0.279,0.342,0.59,0.558,0.933
	c0.216,0.342,0.406,0.653,0.584,0.932c0.304,0.457,0.685,1.021,1.129,1.693c0.443,0.672,0.748,1.123,0.926,1.351
	c0.102,0.152,0.229,0.432,0.381,0.837c0.151,0.406,0.24,0.647,0.266,0.723c0.076,0.228,0.038,0.431-0.114,0.608
	c-0.025,0.051-0.102,0.121-0.24,0.209c-0.14,0.089-0.267,0.197-0.368,0.323c-0.102,0.102-0.216,0.254-0.343,0.457
	c-0.127,0.203-0.241,0.355-0.342,0.457c-0.305,0.33-0.584,0.495-0.838,0.495c-0.127,0-0.266-0.006-0.431-0.019
	s-0.317-0.006-0.444,0.019c-0.051,0.025-0.089,0.057-0.127,0.095s-0.076,0.057-0.102,0.057c-0.127,0.051-0.278,0.057-0.469,0.019
	s-0.317-0.057-0.368-0.057c-0.102,0-0.254-0.063-0.456-0.19c-0.229-0.127-0.368-0.229-0.419-0.304
	c-0.076-0.127-0.114-0.279-0.127-0.457c-0.013-0.177-0.051-0.292-0.102-0.342c-0.381-0.38-0.824-0.749-1.332-1.104
	c-0.279-0.178-0.571-0.374-0.888-0.59c-0.317-0.215-0.609-0.425-0.862-0.628c-0.254-0.152-0.558-0.349-0.914-0.59
	c-0.355-0.241-0.558-0.399-0.608-0.476c-0.076-0.076-0.279-0.177-0.622-0.304C79.247,13.534,78.98,13.394,78.803,13.242z
	 M36.72,32.496l-0.799,0.875l1.142,0.989L36.72,32.496z"/>
</svg>
