<?xml version="1.0" encoding="utf-8"?>
<!-- Generator: Adobe Illustrator 15.0.2, SVG Export Plug-In . SVG Version: 6.00 Build 0)  -->
<!DOCTYPE svg PUBLIC "-//W3C//DTD SVG 1.1//EN" "http://www.w3.org/Graphics/SVG/1.1/DTD/svg11.dtd">
<svg version="1.1" id="Layer_1" xmlns="http://www.w3.org/2000/svg" xmlns:xlink="http://www.w3.org/1999/xlink" x="0px" y="0px"
	 width="118.688px" height="90.12px" viewBox="0 0 118.688 90.12" enable-background="new 0 0 118.688 90.12" xml:space="preserve">
<path d="M18.959,30.646c4.762,0,9.696,2.856,14.804,8.57c2.856,3.463,4.761,8.138,5.713,14.024v3.896
	c-1.082,4.155-2.294,6.233-3.636,6.233c-0.909,0.865-2.294,1.298-4.155,1.298h-0.26c-7.315,0-14.328-5.194-21.037-15.583h-0.259
	v0.52l3.376,5.973c6.319,6.753,10.821,10.128,13.505,10.128c2.771,0.649,4.155,1.083,4.155,1.299
	c1.039,1.991,3.549,4.242,7.532,6.752c0.52,0.649,0.779,1.255,0.779,1.818v2.339c0,0.259-0.346,0.604-1.039,1.038h-1.039
	c-0.909,0-1.429-0.26-1.559-0.779v-0.521c0.087,0,0.433-0.086,1.039-0.259v-0.52c0-1.211-1.212-1.991-3.636-2.337
	c-0.909-1.56-1.774-2.51-2.597-2.857c1.516,1.86,3.247,4.546,5.194,8.051c0.866,0.866,2.943,2.165,6.233,3.896
	c0.866,0.909,1.298,1.688,1.298,2.338v2.078c-0.563,1.385-1.774,2.077-3.636,2.077c-2.467,0-4.285-1.731-5.454-5.194v-0.52
	l0.52-0.259c1.429,2.077,2.64,3.115,3.636,3.115h0.26c0.26,0,0.52-0.346,0.779-1.038c-0.952-1.731-2.078-2.598-3.376-2.598h-0.779
	c-0.216,0-1.169,0.173-2.857,0.521l-5.713-5.194c-1.688-1.126-3.073-3.549-4.155-7.272c0.259-0.692,0.519-1.038,0.778-1.038
	c1.342,2.986,3.506,5.496,6.494,7.531c0.172,0,0.432,0.086,0.778,0.26l0.26-0.519c0-1.992-2.164-4.59-6.493-7.793
	c-1.342-0.519-2.295-0.779-2.857-0.779c-0.173,0.909-0.26,1.428-0.26,1.559c0,2.423,1.992,6.578,5.974,12.465
	c0.173,1.169,0.26,2.121,0.26,2.857c-0.563,1.731-1.688,2.598-3.376,2.598h-0.259c-1.818,0-3.117-1.731-3.896-5.195
	c0.216-1.212,0.476-1.816,0.779-1.816l1.818,3.115l1.039,0.521l0.519-0.78v-1.299c-1.341-2.251-3.073-3.376-5.194-3.376
	c-1.818-7.576-4.415-13.808-7.792-18.699C6.536,54.93,2.813,48.783,0,42.853v-0.26c0-0.173,0.087-0.259,0.26-0.259L0,41.814v-1.039
	c0-4.242,2.078-7.098,6.233-8.57h2.597c4.458,0,10.171,3.29,17.14,9.869c4.156,5.194,6.233,9.004,6.233,11.428v1.818
	c0,0.26-0.26,0.52-0.779,0.779c-0.216,0-0.649-1.559-1.298-4.675c-6.19-8.484-11.73-12.726-16.622-12.726
	c-1.428,0-2.38,1.039-2.856,3.116c0,3.549,3.462,8.397,10.388,14.543c3.679,2.424,6.623,3.636,8.831,3.636
	c2.64,0,4.371-2.078,5.193-6.233c0-7.92-4.415-14.846-13.245-20.776c-1.125-0.347-1.905-0.52-2.338-0.52
	c-1.039,0-1.645,0.692-1.818,2.078H17.4c-0.692-0.779-1.039-1.385-1.039-1.818C16.838,31.339,17.704,30.646,18.959,30.646z
	 M100.508,0h2.077c3.593,0,5.931,2.857,7.013,8.571c0.996,1.774,3.506,4.631,7.531,8.57c1.04,1.775,1.559,3.419,1.559,4.935
	c0,2.554-1.645,5.237-4.935,8.05c-3.549,2.251-8.743,4.069-15.582,5.454c-6.45,1.559-13.462,2.597-21.038,3.117
	c-6.406,0-9.609-1.559-9.609-4.675c0.26-0.693,0.519-1.039,0.779-1.039c0.822,1.731,2.64,2.597,5.453,2.597h1.819
	c12.725-1.558,21.642-3.203,26.749-4.934c4.459-1.646,7.229-3.376,8.311-5.194v-1.039c-0.951-0.519-2.164-0.866-3.636-1.039
	c-2.294,0.52-4.285,0.779-5.972,0.779c-0.348-0.649-0.521-1.342-0.521-2.078v-1.04c0.042-0.346,0.217-0.519,0.521-0.519h2.076
	c5.367-0.736,8.052-1.688,8.052-2.856v-1.559c0-0.433-1.646-3.549-4.936-9.35c-1.081-2.078-2.294-3.117-3.636-3.117h-2.598
	C95.357,6.493,91.721,8.484,89.08,9.61c-4.63,1.385-8.354,2.078-11.167,2.078c-4.415-0.173-7.011-0.26-7.791-0.26
	c0-0.39-4.848-0.996-14.544-1.818c-3.723-0.26-5.627-0.433-5.714-0.52c-0.13,0.174-1.774,0.347-4.935,0.52L44.67,9.09
	c0.303-0.822,3.506-1.428,9.609-1.818h4.935c0.909,0,5.497,0.433,13.765,1.299c0.952-0.173,1.732-0.26,2.337-0.26h3.376
	c2.684-0.693,4.241-1.039,4.675-1.039V6.753H68.823c-0.173,0-0.26-0.086-0.26-0.26c-0.173,0-0.259,0.087-0.259,0.26
	C59.82,5.714,55.318,5.195,54.799,5.195h-3.896c-4.328,0.52-7.532,1.472-9.609,2.856c-3.16,1.862-7.748,4.978-13.765,9.35
	c-3.809,2.857-5.713,4.848-5.713,5.974c0,2.251,5.021,4.156,15.063,5.713c0,0.346,2.251,0.52,6.753,0.52
	c5.626,0,12.812-1.385,21.555-4.155c8.225-2.251,14.026-3.376,17.401-3.376c0.043,0.346,0.217,0.519,0.52,0.519h0.26
	c0-5.627,2.771-8.831,8.311-9.609h0.519c4.33,0.909,6.493,2.64,6.493,5.194c0,0.346-0.173,0.52-0.519,0.52
	c-1.257-1.731-3.507-2.597-6.753-2.597c-2.467,0-4.632,1.645-6.493,4.934c0,1.386-0.605,2.078-1.817,2.078v1.818
	c0,0.346-1.819,0.865-5.455,1.558c-7.445,2.943-11.167,5.541-11.167,7.792v1.039c0,0.259,0.952,1.645,2.856,4.155v0.26
	c-1.775,2.597-6.45,3.896-14.025,3.896c-6.536,0-14.067-2.251-22.594-6.752l-8.051-5.713v-0.26c2.381,0.476,5.67,1.862,9.869,4.156
	c6.926,3.462,13.418,5.194,19.479,5.194c4.025,0,6.622-1.039,7.792-3.116V36.36c0-0.865-1.472-1.645-4.415-2.337H53.76
	c-11.774,0-21.383-1.472-28.828-4.416l-2.337-0.52h-1.818l-3.117,0.26l-0.26-0.52v-0.52c0-0.173,0.087-0.259,0.26-0.259
	c-1.211-3.203-1.818-5.195-1.818-5.973c0-1.559,3.203-3.636,9.609-6.233L41.294,5.195c4.761-2.078,9.869-3.117,15.323-3.117
	c10.128,0.866,17.314,1.298,21.556,1.298h12.726C96.83,1.125,100.032,0,100.508,0z M28.568,11.688h0.26
	c0.347,0,0.52,0.259,0.52,0.779c0,0.693-2.424,2.165-7.272,4.416c-1.429,0.519-2.38,0.779-2.856,0.779l-0.52-0.779
	c0.52-1.602,1.386-2.814,2.597-3.636L28.568,11.688z M71.68,38.957l0.261,0.52c-4.849,5.627-7.273,9.869-7.273,12.726
	c0,5.151,5.368,9.826,16.102,14.024c3.592,0.866,5.931,1.298,7.013,1.298v-0.259c-2.857-1.515-6.06-4.025-9.609-7.532
	c-3.594-5.887-6.709-8.83-9.35-8.83c-0.692,0-1.039-0.173-1.039-0.519v-0.26c0.173-0.519,0.692-0.779,1.558-0.779h1.818
	c1.471,0,4.155,2.078,8.052,6.233c0-1.602,0.864-2.727,2.596-3.376c1.212,0.519,1.818,1.298,1.818,2.337v2.338
	c0,0.346-0.174,0.519-0.52,0.519h-0.78c-1.558-0.865-2.337-1.472-2.337-1.818h-0.519c0.822,1.125,2.814,2.251,5.972,3.376
	c0.737,2.251,1.429,3.462,2.079,3.636c0.952,0.173,1.645,0.26,2.077,0.26l0.521-0.779v-0.26c0-0.216-0.78-0.909-2.338-2.078
	c0.129-0.52,0.822-0.779,2.077-0.779c2.943,0.346,4.935,0.519,5.973,0.519h0.78c1.904,0,5.887-0.519,11.947-1.558h0.778
	c3.81,0.303,5.714,1.602,5.714,3.896c0,1.212-1.212,1.992-3.636,2.338c-1.862,0-3.247-0.606-4.157-1.818
	c0.044-0.347,0.218-0.52,0.521-0.52c1.386,0.217,2.078,0.476,2.078,0.779c0.865-0.216,1.299-0.476,1.299-0.779v-0.52
	c-1.169-0.519-1.948-0.779-2.337-0.779c-5.542,1.212-8.745,1.818-9.61,1.818h-0.52v0.519c0.822,0,1.688,0.086,2.598,0.259
	c1.212-0.346,2.251-0.519,3.116-0.519c0.346,0.043,0.521,0.216,0.521,0.519c0,0.693-1.819,1.472-5.455,2.338v0.52l9.869,3.116
	c1.732,0.606,2.597,1.559,2.597,2.857c0,1.082-0.952,1.861-2.856,2.338H108.3c-2.295,0-4.113-0.78-5.455-2.338l0.52-0.26h0.259
	c0.737,0,1.688,0.087,2.857,0.26c0.347-0.172,0.606-0.26,0.778-0.26c-0.604-0.65-2.51-1.341-5.712-2.078h-2.078v0.779
	c0.865,1.04,1.299,1.646,1.299,1.818c-0.865,0.347-1.472,0.519-1.818,0.519c-9.782,0-19.305-2.251-28.568-6.751
	c-5.67-4.286-8.96-8.268-9.869-11.947c0-2.554,2.337-6.363,7.012-11.428C69.56,40.169,70.944,38.957,71.68,38.957z M85.184,38.438
	l0.521,0.779c-4.285,5.194-7.92,8.657-10.908,10.389h-0.521l-0.259-0.52c2.77-2.987,4.156-4.632,4.156-4.935
	c0.173-0.303,0.259-0.649,0.259-1.039v-0.26c0-0.26-0.259-0.519-0.78-0.779h-1.038c-4.199,3.636-6.969,5.454-8.311,5.454
	c-0.346,0-0.52-0.173-0.52-0.519c0.476,0,3.073-2.597,7.792-7.792h4.934C81.68,39.217,83.237,38.957,85.184,38.438z M92.197,17.661
	c5.195,0.692,7.791,3.029,7.791,7.012c0,2.813-1.904,4.805-5.712,5.974h-0.26c-2.728,0-4.633-0.779-5.715-2.338v-0.259
	c0.044-0.346,0.217-0.519,0.52-0.519l2.598,0.778l1.298-0.259V27.53c-2.076-0.563-3.116-1.169-3.116-1.818v-0.779h0.521
	c1.687,0.346,2.639,0.519,2.856,0.519h0.259c0.952,0,1.905-0.606,2.856-1.818v-0.259c-0.994-1.385-2.207-2.078-3.636-2.078
	c-3.116,0.952-4.674,2.25-4.674,3.896c-0.563,1.559-0.996,2.338-1.298,2.338c-0.479,0-0.824-1.125-1.041-3.376
	c0.91-3.982,2.382-5.974,4.416-5.974C90.985,17.834,91.765,17.661,92.197,17.661z M96.352,48.047c2.426,0,3.636,1.212,3.636,3.636
	c0,1.558-1.816,3.203-5.453,4.934c0,0.52-0.519,1.125-1.558,1.818h-4.416c-0.346,0-0.52-0.173-0.52-0.519v-0.26
	c0.606-1.428,3.289-3.073,8.051-4.934l1.039-1.559c-0.779-0.692-1.211-1.039-1.299-1.039h-0.778c-0.26,0-0.866,0.606-1.818,1.818
	h-0.259c-0.346,0-0.521-0.173-0.521-0.519C93.279,49.172,94.579,48.047,96.352,48.047z"/>
</svg>
