<?xml version="1.0" encoding="utf-8"?>
<!-- Generator: Adobe Illustrator 15.0.2, SVG Export Plug-In . SVG Version: 6.00 Build 0)  -->
<!DOCTYPE svg PUBLIC "-//W3C//DTD SVG 1.1//EN" "http://www.w3.org/Graphics/SVG/1.1/DTD/svg11.dtd">
<svg version="1.1" id="Layer_1" xmlns="http://www.w3.org/2000/svg" xmlns:xlink="http://www.w3.org/1999/xlink" x="0px" y="0px"
	 width="90.681px" height="27.995px" viewBox="0 0 90.681 27.995" enable-background="new 0 0 90.681 27.995" xml:space="preserve">
<path d="M11.002,20.391c0-0.044-0.073-0.178-0.218-0.403c-0.146-0.224-0.275-0.394-0.387-0.504L0.707,7.672
	C0.527,7.47,0.364,7.196,0.219,6.848C0.073,6.5,0,6.169,0,5.855h0.707C1.94,6.977,3.259,8.015,4.661,8.968
	c1.402,0.953,2.854,1.839,4.356,2.658c1.503,0.82,3.034,1.577,4.594,2.271c1.559,0.696,3.112,1.346,4.66,1.953h0.741
	c0.357,0,0.829-0.018,1.413-0.051c0.583-0.034,1.172-0.112,1.766-0.235c0.594-0.124,1.145-0.303,1.648-0.538
	c0.505-0.237,0.87-0.567,1.094-0.993c0.022-0.068,0.038-0.168,0.051-0.304c0.011-0.134,0.038-0.286,0.083-0.453
	c0.045-0.168,0.101-0.32,0.168-0.455c0.067-0.135,0.168-0.235,0.303-0.302c0.741,0.246,1.464,0.521,2.17,0.824
	c0.708,0.302,1.464,0.455,2.271,0.455c0.112,0,0.297-0.013,0.556-0.034c0.257-0.022,0.409-0.035,0.455-0.035l16.047-3.936
	c0.159-0.022,0.367-0.118,0.625-0.286s0.509-0.359,0.756-0.572c0.249-0.212,0.455-0.431,0.625-0.656
	c0.167-0.225,0.251-0.426,0.251-0.605V0c0.852,0,1.682,0.315,2.489,0.942c0.808,0.628,1.577,1.369,2.306,2.221
	c0.729,0.853,1.418,1.706,2.07,2.558c0.649,0.853,1.243,1.503,1.783,1.952c0.38,0,0.964,0.022,1.75,0.067
	c0.786,0.045,1.676,0.106,2.675,0.185c0.997,0.08,2.04,0.168,3.13,0.27c1.087,0.1,2.13,0.196,3.127,0.285
	c1,0.09,1.898,0.168,2.692,0.237c0.797,0.067,1.386,0.123,1.769,0.167c0.087,0.023,0.397,0.08,0.925,0.168
	c0.526,0.09,1.184,0.203,1.966,0.337c0.786,0.134,1.648,0.292,2.594,0.471c0.941,0.18,1.878,0.359,2.81,0.538
	c0.928,0.181,1.81,0.349,2.64,0.505c0.829,0.157,1.525,0.292,2.086,0.404c0.269,0.067,0.663,0.134,1.178,0.201
	c0.515,0.067,1.027,0.168,1.531,0.304c0.506,0.134,0.941,0.33,1.312,0.589c0.372,0.257,0.556,0.6,0.556,1.025
	c0,0.538-0.263,1.009-0.791,1.413c-0.526,0.404-1.143,0.752-1.849,1.043s-1.421,0.534-2.139,0.724
	c-0.718,0.19-1.257,0.342-1.615,0.452c0,0.181-0.061,0.339-0.184,0.471c-0.123,0.137-0.263,0.255-0.422,0.356
	c-0.156,0.099-0.326,0.187-0.504,0.252c-0.181,0.066-0.314,0.112-0.402,0.134c-2.401,0.852-4.842,1.525-7.319,2.018
	c-2.479,0.493-4.987,0.833-7.52,1.011c-0.203,0.402-0.479,0.813-0.827,1.229c-0.348,0.413-0.734,0.789-1.158,1.125
	c-0.427,0.336-0.882,0.61-1.364,0.824c-0.482,0.213-0.958,0.32-1.429,0.32c0-0.627-0.025-1.15-0.068-1.564
	c-0.044-0.416-0.162-0.745-0.354-0.994c-0.191-0.247-0.465-0.419-0.824-0.523c-0.358-0.099-0.852-0.148-1.481-0.148
	c-1.167,0-2.286,0.044-3.365,0.131c-1.076,0.093-2.147,0.225-3.212,0.405c-1.065,0.181-2.13,0.405-3.196,0.674
	c-1.068,0.268-2.171,0.583-3.313,0.942h-0.911c0.045-0.044,0.145-0.102,0.303-0.17c0.159-0.066,0.257-0.109,0.301-0.134
	c0.159-0.068,0.449-0.167,0.876-0.304c0.427-0.131,0.882-0.285,1.364-0.455c0.482-0.167,0.942-0.318,1.38-0.452
	c0.436-0.134,0.745-0.238,0.926-0.304c-0.293-0.022-0.797-0.049-1.514-0.082c-0.72-0.036-1.476-0.068-2.273-0.104
	c-0.797-0.033-1.553-0.061-2.271-0.083c-0.717-0.021-1.223-0.033-1.513-0.033h-0.741h-0.471c-0.112,0.044-0.286,0.131-0.521,0.269
	c-0.236,0.134-0.483,0.285-0.741,0.455c-0.257,0.167-0.5,0.323-0.723,0.471c-0.225,0.145-0.371,0.252-0.438,0.318
	c-0.022,0-0.051,0.005-0.083,0.016c-0.034,0.014-0.062,0.02-0.085,0.02c-0.022,0-0.067-0.011-0.134-0.036l-0.908-0.603
	c-0.09-0.046-0.208-0.109-0.353-0.186c-0.146-0.08-0.231-0.118-0.253-0.118c-0.134,0-0.342-0.005-0.622-0.019
	c-0.282-0.011-0.578-0.016-0.893-0.016c-0.313,0-0.618,0.005-0.908,0.016c-0.292,0.014-0.494,0.019-0.606,0.019
	c-0.134-0.024-0.225-0.079-0.269-0.167c-0.045-0.093-0.063-0.186-0.051-0.287c0.011-0.102,0.033-0.208,0.067-0.321
	s0.05-0.203,0.05-0.268h-4.946c-0.045-0.068-0.146-0.165-0.303-0.285c-0.158-0.126-0.257-0.187-0.303-0.187
	c-0.606-0.022-1.167,0.088-1.683,0.334c-0.516,0.25-1.027,0.537-1.531,0.86c-0.505,0.326-1.016,0.625-1.531,0.893
	c-0.516,0.268-1.077,0.402-1.683,0.402c0-0.044,0.005-0.112,0.017-0.2c0.011-0.093,0.027-0.148,0.051-0.17l0.605-0.909
	c0.045-0.066,0.107-0.181,0.186-0.334c0.078-0.159,0.118-0.25,0.118-0.271c-0.045-0.112-0.157-0.241-0.336-0.386
	c-0.181-0.148-0.371-0.279-0.572-0.405c-0.202-0.121-0.393-0.225-0.573-0.301c-0.179-0.08-0.292-0.121-0.336-0.121h-4.239
	l-0.605,0.304c-0.225,0.181-0.606,0.501-1.145,0.961s-1.116,0.948-1.733,1.462s-1.194,1.002-1.732,1.462
	c-0.54,0.46-0.92,0.78-1.145,0.959c-0.359,0.293-0.735,0.603-1.127,0.925c-0.393,0.329-0.797,0.625-1.211,0.894
	c-0.415,0.268-0.848,0.492-1.295,0.673c-0.449,0.181-0.909,0.269-1.38,0.269c-0.045,0-0.118-0.005-0.219-0.017
	c-0.1-0.011-0.174-0.017-0.218-0.017c0.067-0.112,0.212-0.331,0.437-0.657c0.224-0.322,0.465-0.659,0.724-1.007
	c0.257-0.348,0.504-0.685,0.739-1.011s0.409-0.545,0.521-0.654c0.158-0.225,0.364-0.523,0.623-0.893
	c0.257-0.372,0.504-0.75,0.739-1.145c0.237-0.392,0.433-0.783,0.59-1.177C10.992,21.026,11.048,20.684,11.002,20.391z"/>
</svg>
