<?xml version="1.0" encoding="utf-8"?>
<!-- Generator: Adobe Illustrator 15.0.2, SVG Export Plug-In . SVG Version: 6.00 Build 0)  -->
<!DOCTYPE svg PUBLIC "-//W3C//DTD SVG 1.1//EN" "http://www.w3.org/Graphics/SVG/1.1/DTD/svg11.dtd">
<svg version="1.1" id="Layer_1" xmlns="http://www.w3.org/2000/svg" xmlns:xlink="http://www.w3.org/1999/xlink" x="0px" y="0px"
	 width="90.582px" height="79.741px" viewBox="0 0 90.582 79.741" enable-background="new 0 0 90.582 79.741" xml:space="preserve">
<path d="M3.612,1c1.338-0.665,2.641-1,3.91-1c2.143,0,4.481,1.037,7.024,3.106c2.004,1.942,4.012,3.881,6.016,5.82
	c1.539,1.404,4.951,5.163,10.232,11.286c5.282,6.118,8.71,9.795,10.282,11.032c1.571,1.237,6.501,5.567,14.795,12.992l0.898,11.228
	l1.91-10.126l4.718,4.212c0.065,2.404,0,6.159-0.204,11.236l4.71-4.718l-1.502,5.82l5.224,0.596l-2.816,4.22
	c5.085,2.808,10.195,4.947,15.354,6.416c2.139,0.465,4.278,0.906,6.417,1.306l-0.702,5.314c-2.343-0.399-4.686-0.832-7.021-1.306
	c-5.29-1.339-10.367-3.273-15.249-5.813l-0.408,2.008l-4.808-3.616l-3.412,4.114l-0.498-4.212l-4.017,4.417l-4.012-3.412
	l2.408-8.522h-0.102l-6.718,7.918c-1.473-0.938-2.947-2.008-4.416-3.208c-3.478-2.947-6.718-6.122-9.73-9.526l3.714-6.318
	l-6.522,4.506c-1.669-1.265-3.51-2.841-5.514-4.718c-4.816-4.408-10.134-9.959-15.95-16.645l4.816-7.424l-7.322,4.114
	c-1.273-2.473-2.408-5.718-3.412-9.73C0.567,17.955,0,13.975,0,10.428C0,5.351,1.204,2.204,3.612,1z"/>
</svg>
