<?xml version="1.0" encoding="utf-8"?>
<!-- Generator: Adobe Illustrator 15.0.2, SVG Export Plug-In . SVG Version: 6.00 Build 0)  -->
<!DOCTYPE svg PUBLIC "-//W3C//DTD SVG 1.1//EN" "http://www.w3.org/Graphics/SVG/1.1/DTD/svg11.dtd">
<svg version="1.1" id="Layer_1" xmlns="http://www.w3.org/2000/svg" xmlns:xlink="http://www.w3.org/1999/xlink" x="0px" y="0px"
	 width="90.207px" height="79.786px" viewBox="0 0 90.207 79.786" enable-background="new 0 0 90.207 79.786" xml:space="preserve">
<path d="M12.926,0l0.745,1.542l0.903,1.596l0.904,1.064c0.426,0.319,0.71,0.496,0.851,0.532c0.249,0.071,0.551,0.08,0.904,0.026
	c0.355-0.053,0.674-0.062,0.958-0.026c0.958,0.106,1.88,0.301,2.767,0.585c0.39,0.106,0.814,0.266,1.275,0.479
	c0.461,0.212,0.869,0.408,1.225,0.585c0.461,0.248,0.966,0.55,1.516,0.904c0.549,0.354,1.055,0.691,1.516,1.011
	c0.461,0.319,0.984,0.683,1.569,1.09s1.091,0.807,1.516,1.197c0.461,0.425,0.958,0.913,1.489,1.462
	c0.532,0.55,0.993,1.073,1.383,1.569c0.496,0.603,1.02,1.294,1.569,2.075c0.55,0.78,1.073,1.471,1.569,2.075
	c0.391,0.531,0.842,1.099,1.356,1.701c0.515,0.604,1.001,1.135,1.462,1.596c0.249,0.284,0.551,0.586,0.904,0.904
	c0.355,0.319,0.691,0.586,1.012,0.799c0.248,0.213,0.549,0.425,0.904,0.638c0.354,0.213,0.674,0.39,0.957,0.532
	c0.426,0.283,0.992,0.639,1.702,1.063c0.709,0.426,1.17,0.656,1.383,0.691c0.142,0,0.461,0.115,0.958,0.346
	c0.496,0.23,0.939,0.364,1.329,0.399c0.745,0.105,1.737,0.115,2.979,0.026c1.24-0.089,1.932-0.133,2.074-0.133
	c0.07,0,0.656-0.08,1.75-0.239c1.1-0.16,1.986-0.293,2.66-0.399c0.603-0.106,1.276-0.257,2.004-0.452
	c0.727-0.195,1.383-0.328,1.985-0.398c0.603-0.107,1.276-0.169,2.021-0.187c0.745-0.018,1.419-0.044,2.021-0.079
	c0.532,0,1.135,0.018,1.791,0.053s1.259,0.07,1.826,0.105c0.567,0.072,1.348,0.205,2.34,0.399c0.994,0.195,1.543,0.293,1.649,0.293
	s1.276,0.425,3.511,1.276l0.744,0.213c1.1-0.248,1.826-0.391,2.182-0.426c0.426-0.035,0.887-0.063,1.383-0.08s0.957,0.01,1.383,0.08
	c0.922,0.143,1.738,0.408,2.447,0.798c0.426,0.249,1.258,0.976,2.5,2.181c1.312,1.844,2.109,2.988,2.394,3.432
	c0.283,0.443,0.354,0.559,0.194,0.346c-0.159-0.213-0.39-0.523-0.691-0.932c-0.301-0.407-0.407-0.522-0.301-0.346l1.808,7.553
	c-0.07,1.419-0.105,2.093-0.105,2.021c-0.036-0.07-0.143-0.194-0.319-0.372c-0.178-0.177-0.248-0.23-0.213-0.159
	c0.07,0.318,0.035,0.559-0.106,0.718s-0.266,0.204-0.372,0.134c-0.143-0.072-0.302-0.231-0.479-0.479
	c-0.177-0.248-0.337-0.337-0.479-0.267c-0.07,0.036-0.053,0.134,0.036,0.293c0.088,0.16,0.07,0.24-0.036,0.24
	c-0.07,0.035-0.106-0.019-0.124-0.16s-0.07-0.213-0.142-0.213c-0.178-0.035-0.337,0.089-0.479,0.373
	c-0.143,0.283-0.284,0.39-0.426,0.318c-0.035,0-0.018-0.044,0.053-0.133c0.071-0.089,0.089-0.15,0.054-0.186
	c-0.106-0.071-0.284-0.027-0.532,0.133c-0.248,0.159-0.39,0.311-0.425,0.451c-0.071,0.143-0.143,0.09-0.23-0.159
	c-0.09-0.248-0.16-0.461-0.195-0.638c-0.106-0.248-0.266-0.248-0.479,0s-0.426,0.372-0.639,0.372h-0.852
	c-0.142-0.106-0.23-0.302-0.266-0.585c-0.035-0.284-0.07-0.532-0.106-0.745c-0.106-0.461-0.194-1.073-0.266-1.835
	s-0.124-1.215-0.159-1.356c-0.036-0.106-0.143-0.62-0.338-1.542s-0.301-1.242-0.301-0.958c0,0.249,0.088,0.763,0.266,1.542
	c-0.461-1.17-0.709-2.216-0.744-3.138c0,0.142-0.018,0.346-0.054,0.612c-0.035,0.266-0.054,0.346-0.054,0.238
	c-0.07-0.105-0.123-0.283-0.158-0.531c-0.036-0.248-0.072-0.479-0.107-0.691c-0.035-0.178-0.053-0.471-0.07-0.878
	s-0.054-0.522-0.089-0.346c-0.036,0.213-0.089,0.47-0.159,0.771c-0.071,0.302-0.107,0.327-0.107,0.079
	c-0.035-0.177-0.053-0.381-0.053-0.611s-0.018-0.434-0.053-0.611c-0.071-0.178-0.16-0.373-0.284-0.586
	c-0.124-0.212-0.248-0.407-0.354-0.584c-0.07-0.143-0.142-0.293-0.23-0.453c-0.089-0.159-0.178-0.31-0.248-0.451
	c-0.248-0.426-0.408-0.674-0.479-0.745c-0.071-0.036-0.23-0.071-0.479-0.106l-0.426,0.213c0.142,0.354,0.248,0.585,0.318,0.691
	c0.107,0.248,0.248,0.506,0.408,0.771s0.301,0.523,0.443,0.771c0.391,0.887,0.674,1.809,0.852,2.766
	c0.07,0.461,0.105,1.055,0.088,1.781c-0.018,0.728-0.035,1.145-0.035,1.25c0,0.107-0.089,0.86-0.266,2.262
	c-0.178,1.4-0.267,2.172-0.267,2.313c0,0.143-0.089,0.771-0.266,1.889s-0.337,2.013-0.479,2.687
	c-0.141,0.603-0.248,1.046-0.318,1.329c-0.07,0.284-0.16,0.586-0.266,0.904c-0.107,0.32-0.178,0.621-0.213,0.904
	c-0.035,0.568-0.035,0.958,0,1.171c0.035,0.284,0.124,0.647,0.266,1.091c0.143,0.443,0.248,0.717,0.319,0.824
	c0.035,0.07,0.212,0.434,0.532,1.09c0.318,0.656,0.603,1.162,0.851,1.516c0.213,0.355,0.479,0.71,0.798,1.064
	s0.604,0.674,0.852,0.957c0.105,0.143,0.266,0.302,0.479,0.479c0.213,0.178,0.318,0.32,0.318,0.426c0,0.106,0,0.541-0.018,1.303
	c-0.018,0.764-0.035,1.375-0.035,1.836c-0.035,0.531-0.053,1.125-0.053,1.781s0.018,1.232,0.053,1.729
	c0.035,1.171,0.195,2.447,0.479,3.83c0.071,0.461,0.178,0.967,0.319,1.516c0.142,0.551,0.267,1.056,0.372,1.517
	c0.106,0.709,0.16,1.224,0.16,1.542c0,0.107-0.125,0.497-0.373,1.171l-0.531,0.798l-0.106,1.063l0.266,0.851l0.851,0.586
	l0.107,1.063l-1.117,0.904l-0.852,0.267l-1.223,0.266h-1.543l-0.213-0.266c0.143-0.745,0.23-1.225,0.266-1.437
	c0.213-0.815,0.443-1.454,0.691-1.915c0.107-0.178,0.267-0.408,0.479-0.691c0.213-0.283,0.32-0.461,0.32-0.532
	c0.035-0.142,0.053-0.496,0.053-1.063c0-0.248-0.018-0.426-0.07-0.532c-0.054-0.106-0.09-0.266-0.09-0.479
	c-0.035-0.213-0.053-0.585-0.053-1.117c0-0.142,0.053-0.274,0.143-0.399c0.088-0.123,0.088-0.434,0.018-0.93
	c-0.071-0.497-0.143-1.029-0.213-1.596c-0.071-0.568-0.107-0.904-0.107-1.012c0-0.07-0.088-0.496-0.283-1.275
	c-0.195-0.781-0.318-1.26-0.354-1.437c0-0.178-0.054-0.505-0.177-0.984c-0.125-0.479-0.267-0.878-0.408-1.196
	c-0.178-0.284-0.443-0.621-0.798-1.012c-0.354-0.389-0.532-0.638-0.532-0.744s-0.07-0.301-0.213-0.585
	c-0.142-0.284-0.213-0.515-0.213-0.691c0-0.142-0.053-0.39-0.159-0.745c-0.106-0.354-0.194-0.566-0.266-0.638
	c-0.106-0.071-0.284-0.337-0.532-0.798c-0.07,1.914-0.106,2.908-0.106,2.979s-0.054,0.435-0.177,1.09
	c-0.125,0.656-0.195,1.091-0.195,1.304c0,0.284-0.053,0.833-0.16,1.649c-0.105,0.814-0.159,1.436-0.159,1.861s0,1.028,0,1.809
	c0,0.779,0,1.453,0,2.021c0,0.283,0,0.638,0,1.063c0,0.425,0,0.691,0,0.798c-0.142,0.461-0.23,0.727-0.266,0.798
	c-0.142,0.177-0.337,0.354-0.585,0.532c-0.248,0.177-0.461,0.336-0.639,0.479c-0.106,0.07-0.337,0.23-0.691,0.479l0.16,1.33
	c0.318,0.248,0.479,0.426,0.479,0.531c0,0.107,0.018,0.355,0.053,0.745l-1.756,0.798c-1.312,0-2.021,0-2.127,0
	c-0.143,0-0.319,0.009-0.532,0.026c-0.212,0.019-0.337-0.026-0.372-0.133c-0.07-0.142-0.089-0.319-0.053-0.532l0.584-1.117
	c0.178-0.709,0.32-1.117,0.426-1.223c0.071-0.106,0.479-0.443,1.224-1.011c0.567-0.639,0.851-1.046,0.851-1.224
	c0-0.213-0.018-0.461-0.053-0.744c-0.035-0.284-0.035-0.532,0-0.745c0-0.142,0.035-0.274,0.106-0.399
	c0.071-0.123,0.124-0.238,0.159-0.346c0.071-0.213,0.16-0.479,0.267-0.797c0.106-0.32,0.159-0.586,0.159-0.799s0-0.603-0.018-1.17
	s-0.035-1.046-0.035-1.436c0-0.426,0.018-0.922,0.035-1.49c0.018-0.566,0-1.081-0.035-1.542c-0.035-0.177-0.089-0.382-0.16-0.612
	c-0.07-0.23-0.124-0.398-0.159-0.505c0-0.142-0.106-0.372-0.337-0.691s-0.408-0.603-0.514-0.851c-0.107-0.355-0.16-0.799-0.178-1.33
	c-0.018-0.532-0.035-0.957-0.035-1.277c0-0.283-0.054-0.496-0.178-0.638s-0.266-0.407-0.408-0.798
	c-0.177-0.391-0.461-0.887-0.851-1.489s-0.691-1.153-0.904-1.649c-0.248-0.39-0.515-0.904-0.815-1.542
	c-0.302-0.639-0.496-1.011-0.567-1.117c-0.071-0.071-0.195-0.39-0.372-0.958c-0.178-0.566-0.302-0.957-0.373-1.17
	c-0.105-0.248-0.266-0.461-0.496-0.639c-0.23-0.177-0.426-0.354-0.567-0.531s-0.302-0.381-0.497-0.611
	c-0.194-0.23-0.318-0.399-0.354-0.506c-0.036-0.105-0.143-0.514-0.32-1.223c-0.531,0-0.851,0.035-0.957,0.105
	c-0.178,0.071-0.318,0.195-0.426,0.373c-0.105,0.177-0.213,0.336-0.318,0.479c-0.143,0.178-0.266,0.391-0.391,0.639
	c-0.124,0.248-0.283,0.407-0.461,0.479c-0.283,0.177-0.549,0.177-0.798,0c-0.212-0.071-0.407-0.248-0.603-0.532
	s-0.319-0.479-0.354-0.585c-0.106-0.178-0.302-0.283-0.585-0.319c-0.143-0.035-0.479,0.036-1.011,0.213
	c-3.794,1.632-7.938,2.642-12.442,3.032c-4.504,0.39-8.813,0.354-12.926-0.107c-0.354,0.355-0.549,0.604-0.585,0.745
	c-0.354,0.851-0.487,1.853-0.399,3.005c0.09,1.152,0.115,2.172,0.08,3.059c-0.035,0.852-0.026,1.809,0.027,2.873
	c0.053,1.063,0.026,2.021-0.08,2.872c-0.035,0.284-0.089,0.603-0.16,0.958c-0.07,0.354-0.141,0.655-0.213,0.904
	c-0.035,0.141-0.088,0.292-0.159,0.451c-0.071,0.16-0.124,0.293-0.159,0.399c-0.178,1.099-0.143,3.546,0.106,7.341l0.319,1.275
	l-0.745,1.012l-1.224,0.957c-0.39,0.426-0.566,0.691-0.531,0.798c0,0.177,0.123,0.372,0.372,0.585l0.585,1.17l-0.426,0.639
	c-1.524,0.213-2.34,0.318-2.446,0.318c-0.142,0-0.354,0-0.639,0c-0.035,0.533-0.106,0.799-0.212,0.799
	c-0.143,0-0.303,0.053-0.479,0.159l-0.213,0.426c-0.957,0.284-1.596,0.425-1.915,0.425c-0.283,0-1.081,0-2.393,0
	c-0.213-0.248-0.32-0.443-0.32-0.584c0-0.107,0.133-0.24,0.399-0.399s0.417-0.364,0.452-0.612c0.035-0.213,0.266-0.549,0.691-1.01
	c-0.248-0.107-0.213-0.302,0.106-0.586c0.354-0.248,0.745-0.576,1.171-0.983c0.425-0.407,0.638-0.753,0.638-1.037
	s0.018-0.595,0.054-0.931c0.035-0.338,0.053-0.559,0.053-0.666c0-0.105,0.178-0.461,0.531-1.063c0.355-0.568,0.532-1.1,0.532-1.596
	c0-0.533,0.036-1.463,0.106-2.793c0.071-1.33,0.089-2.137,0.053-2.42c-0.07-0.284-0.133-0.497-0.186-0.639
	c-0.053-0.143-0.08-0.301-0.08-0.479c-0.142-0.922-0.186-2.172-0.133-3.75s0.08-2.438,0.08-2.58c0-0.142,0-0.762,0-1.861
	s-0.053-1.969-0.16-2.606c-0.035-0.284-0.115-0.595-0.238-0.931c-0.125-0.338-0.188-0.647-0.188-0.932
	c0-0.283-0.07-0.691-0.212-1.223c-0.142-0.532-0.213-0.869-0.213-1.011s0-0.337,0-0.585c-0.887-0.604-1.454-0.993-1.702-1.17
	c-0.283-0.284-0.604-0.604-0.957-0.958c-0.355-0.354-0.639-0.691-0.852-1.011c-0.283-0.531-0.531-1.144-0.744-1.835
	s-0.373-1.321-0.479-1.888c-0.107-0.533-0.188-1.145-0.24-1.836s-0.08-1.303-0.08-1.835s0.071-1.188,0.213-1.968
	c0.143-0.78,0.213-1.259,0.213-1.437c0-0.177-0.044-0.425-0.133-0.745c-0.088-0.318-0.15-0.584-0.186-0.797
	c-0.178-0.639-0.621-2.074-1.33-4.309c-0.461-2.27-0.763-3.724-0.904-4.361c-0.071-0.391-0.16-0.816-0.266-1.277
	c-0.107-0.461-0.213-0.887-0.32-1.276c-0.212-0.674-0.425-1.241-0.638-1.702c-0.106-0.283-0.248-0.603-0.425-0.957
	c-0.178-0.355-0.338-0.674-0.479-0.958c-0.106-0.142-0.194-0.319-0.266-0.532s-0.178-0.371-0.319-0.479
	c-0.106-0.035-0.23-0.044-0.373-0.026c-0.141,0.019-0.266,0.026-0.371,0.026c-0.107,0-0.328,0.16-0.666,0.479
	c-0.336,0.32-0.576,0.479-0.717,0.479c-0.107,0-0.328,0.044-0.666,0.133c-0.336,0.089-0.629,0.151-0.877,0.187
	c-0.284,0.035-0.621,0.018-1.011-0.054s-0.727-0.054-1.011,0.054c-0.142,0.07-0.275,0.203-0.399,0.398s-0.257,0.346-0.399,0.452
	c-0.248,0.177-0.576,0.346-0.984,0.505c-0.408,0.16-0.754,0.311-1.038,0.453c-0.248,0.105-0.541,0.203-0.877,0.292
	s-0.576,0.239-0.718,0.452c-0.106,0.391-0.248,0.807-0.425,1.25s-1.064,0.611-2.66,0.506c-0.142-0.036-0.319-0.107-0.532-0.213
	c-0.319-0.178-0.55-0.338-0.691-0.479c-0.355-0.355-0.639-0.799-0.851-1.33c-0.036-0.107-0.053-0.23-0.053-0.373
	c0-0.142-0.018-0.266-0.053-0.372c-0.036-0.106-0.106-0.194-0.213-0.266s-0.16-0.178-0.16-0.319s-0.009-0.346-0.026-0.611
	C0.009,18.538,0,18.333,0,18.191c0.106-0.354,0.249-0.673,0.426-0.957c0.39-0.603,0.896-1.232,1.516-1.889
	c0.621-0.656,1.162-1.268,1.623-1.835c0.532-0.567,1.126-1.206,1.782-1.915c0.656-0.709,1.197-1.365,1.623-1.968
	c0.142-0.213,0.39-0.656,0.745-1.33l0.425-0.585L7.287,8.351c0.532-0.603,0.745-0.904,0.639-0.904c-0.178,0-0.55,0.301-1.117,0.904
	c0.425-0.497,0.709-0.94,0.851-1.33c0.142-0.354,0.284-0.603,0.425-0.745c0.142-0.142,0.249-0.284,0.319-0.425
	c0.071-0.142,0.346-0.39,0.825-0.745C9.708,4.751,10,4.574,10.106,4.574s0.443-0.23,1.011-0.691l0.106-2.766l0.266-0.479
	l1.064,1.915l0.053,0.372V0.479L12.926,0z"/>
</svg>
