<?xml version="1.0" encoding="utf-8"?>
<!-- Generator: Adobe Illustrator 15.0.2, SVG Export Plug-In . SVG Version: 6.00 Build 0)  -->
<!DOCTYPE svg PUBLIC "-//W3C//DTD SVG 1.1//EN" "http://www.w3.org/Graphics/SVG/1.1/DTD/svg11.dtd">
<svg version="1.1" id="Layer_1" xmlns="http://www.w3.org/2000/svg" xmlns:xlink="http://www.w3.org/1999/xlink" x="0px" y="0px"
	 width="90.236px" height="115.059px" viewBox="0 0 90.236 115.059" enable-background="new 0 0 90.236 115.059"
	 xml:space="preserve">
<path d="M0.671,19.121c3.746,2.572,5.646,4.249,5.703,5.032c1.286,2.292,3.411,5.199,6.374,8.722v0.335
	c0.392,0,1.174-0.671,2.348-2.013c0.224,0.391,0.335,0.838,0.335,1.342h0.335c0-2.236,0.335-3.354,1.006-3.354
	c0.28,1.342,0.615,2.013,1.006,2.013v-0.335l-0.335-0.671c0.447-1.006,0.895-1.565,1.342-1.677h0.335
	c0.447,0,0.671,0.335,0.671,1.006h0.335c0-0.671,0.224-1.006,0.671-1.006s0.671,0.671,0.671,2.013h0.335
	c0.056-1.118,0.392-1.677,1.006-1.677h0.335c0.447,0.056,0.671,0.279,0.671,0.671c-0.224,0.447-0.335,0.783-0.335,1.006l1.342-1.006
	h0.335c0.447,0.056,0.671,0.279,0.671,0.671l-1.006,1.342v0.335h0.335c0.112-0.895,0.447-1.342,1.006-1.342h1.006
	c0.447,0.056,0.671,0.279,0.671,0.671v0.335c-0.671,0-1.006,0.335-1.006,1.006h0.335c0.056-0.447,0.28-0.671,0.671-0.671h1.006
	c0.447,0.056,0.671,0.279,0.671,0.671v0.335c-0.895,0.112-1.342,0.447-1.342,1.006v0.335l1.342-1.006
	c1.342,0.112,2.013,0.447,2.013,1.006l-0.335,0.671c0.727,0,1.286,0.112,1.677,0.335h0.335v-0.335c-0.447,0-1.342-0.895-2.684-2.684
	c0-0.783,1.23-1.342,3.69-1.677c1.398,0.447,2.181,1.006,2.348,1.677c-1.006,0.447-2.013,0.671-3.019,0.671v0.335
	c3.466,0,5.703,0.783,6.709,2.348v0.335c-0.224,0-0.335,0.112-0.335,0.335c-2.013-0.168-3.019-0.392-3.019-0.671l-0.671,0.335H33.88
	l-0.671-0.335l-0.671,1.006c1.006,0,1.677,0.112,2.013,0.335c0-0.447,0.335-0.671,1.006-0.671c3.243,0,5.479,1.006,6.709,3.019
	l-0.671,0.335c-1.509-0.671-2.739-1.006-3.69-1.006h-2.013l-1.677,0.335v0.335c1.789,0.056,2.684,0.95,2.684,2.684
	c0.951,0.503,1.622,1.397,2.013,2.684c1.174,0,2.628,2.013,4.361,6.038h0.335c0-0.671,0.559-1.006,1.677-1.006v-0.335
	c-1.957,0-3.634-1.677-5.032-5.032c-0.503,0-1.733-1.454-3.69-4.361v-0.335c0-0.447,0.335-0.671,1.006-0.671
	c4.92,1.23,7.38,2.907,7.38,5.032l-0.671,0.335c-1.23-0.895-2.348-1.342-3.354-1.342h-0.335v0.335
	c4.025,1.006,6.038,3.019,6.038,6.038c-0.447,0.224-0.783,0.335-1.006,0.335c0.056,0.447,0.28,0.671,0.671,0.671l-0.671,3.019
	h-0.335c-0.447,0-0.895-0.783-1.342-2.348h-0.335v0.335c0.447,0.895,0.671,1.565,0.671,2.013h-0.671l-0.671-0.335
	c0,0.224-0.112,0.559-0.335,1.006c1.342,0,2.236,0.671,2.684,2.013c-0.895,2.125-1.342,4.249-1.342,6.374
	c0.447,0,0.671,0.671,0.671,2.012h0.335c0-1.341,0.783-2.012,2.348-2.012v0.335c0,1.174-0.447,1.956-1.342,2.349h-0.671
	l-0.671-0.336v1.006h0.335c0.392,0,1.398-0.335,3.019-1.006c0,0.224,0.112,0.336,0.335,0.336c-0.559,1.342-1.23,2.012-2.013,2.012
	v0.336l0.671,1.006c-1.621,1.342-3.634,2.014-6.038,2.014c0-0.225-0.112-0.336-0.335-0.336c2.013-4.082,3.019-6.542,3.019-7.38
	l-0.671,0.335h-4.361c-1.565,0-4.025,0.112-7.38,0.335c-0.783-3.97-3.466-8.442-8.051-13.418c-2.125-1.901-6.262-4.92-12.412-9.057
	l-1.006-1.342c0.056-0.447,0.28-0.671,0.671-0.671c6.597,1.509,12.523,4.752,17.779,9.728c3.802,3.746,6.709,5.982,8.722,6.709
	h0.335v-0.335c-1.286,0-5.758-3.69-13.418-11.07v-0.335h0.335c1.286,0,4.193,1.789,8.722,5.367V48.64
	c-4.249-4.025-8.163-6.038-11.741-6.038c-0.895-0.671-1.342-1.118-1.342-1.342l0.671-1.342h-1.006v1.342h-0.335
	c-1.957,0-3.075-1.23-3.354-3.69c-0.838,0.671-1.621,1.006-2.348,1.006C4.473,29.463,0,23.09,0,19.456L0.671,19.121z M3.69,8.386
	h0.671c3.243,1.845,5.814,5.87,7.715,12.076c2.684,5.479,4.025,8.386,4.025,8.722L14.76,30.19c-3.41-3.411-5.871-7.212-7.38-11.405
	H7.044v0.335c1.006,2.795,3.354,6.597,7.044,11.405v0.335c0,0.447-0.224,0.671-0.671,0.671h-0.671
	C7.659,26.277,4.193,20.686,2.348,14.76l0.671-0.335l3.69,3.354v-0.335C5.758,15.822,4.752,12.803,3.69,8.386z M9.728,7.715
	c2.348,1.789,4.584,6.933,6.709,15.431c0.447,0.167,1.006,1.286,1.677,3.354h0.335V25.83c-2.46-5.367-4.249-10.734-5.367-16.102
	c-0.224,0-0.447-0.335-0.671-1.006l0.671-0.335c2.795,2.516,5.032,5.311,6.709,8.386l-0.335,1.677v2.348
	c0,1.565,0.224,3.69,0.671,6.374l-0.671,0.335c0-0.447-0.224-0.671-0.671-0.671c0,0.895-0.671,1.342-2.013,1.342h-0.671
	c-3.187-6.206-5.535-12.58-7.044-19.121V8.386C9.113,7.939,9.336,7.715,9.728,7.715z M16.772,33.88l0.335,1.677
	c-0.559,0.447-1.006,0.671-1.342,0.671v0.671l1.677-0.335c0,0.335,0.335,0.671,1.006,1.006c0-0.671,0.447-1.006,1.342-1.006
	l-0.335-0.671l-0.671,0.335h-0.671c-0.447,0-0.671-0.224-0.671-0.671V33.88H16.772z M40.254,63.4h1.342
	c0.447,0.056,0.671,0.279,0.671,0.671c-1.118,4.249-2.125,6.374-3.019,6.374h-3.019c-1.23-1.175-2.348-1.957-3.354-2.349h-0.335
	v0.335c0.895,0,1.677,0.56,2.348,1.678c0,0.671-0.447,1.006-1.342,1.006c1.118,1.454,1.677,2.572,1.677,3.355
	c-0.056,0.223-1.174,0.335-3.354,0.335v0.335c0.671,0,1.23,0.447,1.677,1.342v0.336c-1.454-0.447-2.46-0.671-3.019-0.671
	c-0.167,0-1.062,0.112-2.684,0.335v0.336c3.634,0,5.535,0.447,5.703,1.342c-5.032,0-8.61,2.013-10.734,6.038
	c0,0.224-0.224,0.335-0.671,0.335c0.447,0.727,0.671,1.398,0.671,2.014h-1.677c-1.454,0-3.019-4.138-4.696-12.412
	c2.125-4.92,3.914-7.38,5.367-7.38c0.224,0.447,0.335,0.782,0.335,1.007c1.118-0.447,2.46-1.342,4.025-2.684H26.5
	c0,0.67,0.112,1.006,0.335,1.006c0.839,0,1.622-0.783,2.348-2.348h1.006v1.342l-0.335,0.67c1.118,0,1.677,0.225,1.677,0.672
	l-0.671,1.006v0.336h1.006c0-0.336,0.224-0.783,0.671-1.342c-1.342-0.895-2.013-1.454-2.013-1.678
	C32.595,63.847,35.837,63.4,40.254,63.4z M17.779,31.868v1.342c1.565-0.28,2.348-0.615,2.348-1.006v-0.335l-1.006,0.671h-0.335
	L17.779,31.868z M34.551,77.154c1.845,0,3.746,2.459,5.703,7.379l6.038,6.039c-0.95,1.732-2.404,3.41-4.361,5.031h-1.006v-0.671
	h-0.335l-3.354,2.013c-0.447,0-0.671-0.336-0.671-1.006c-3.354,1.063-5.032,2.291-5.032,3.689l3.69,4.025v0.336l-1.342,1.342v0.335
	h0.335v-0.671h0.671l1.006,0.671c-0.391,2.46-1.286,3.69-2.684,3.69v-0.336c0.447-0.838,0.671-1.732,0.671-2.684
	c-0.895-0.279-1.901-1.397-3.019-3.354c-1.342,0-4.696-2.571-10.063-7.716c0.224-0.447,0.335-0.782,0.335-1.006h1.006l2.684,1.678
	v0.335h0.335v-1.342c-1.397,0-2.516-0.447-3.354-1.342l-1.006,0.671c-0.224-0.671-0.895-1.006-2.013-1.006
	c0,0.447-0.224,0.67-0.671,0.67l-0.335-0.67v-1.007c0-0.335,0.447-0.782,1.342-1.342h1.006c0.335,0,0.671,0.335,1.006,1.007
	l1.677-0.336c0.895,0.447,1.342,1.006,1.342,1.678c0.112,0,0.559-0.112,1.342-0.336c2.125,1.342,3.466,2.013,4.025,2.013
	c1.398-0.503,3.411-2.292,6.038-5.367V89.23c-1.118,0-1.677-0.112-1.677-0.336c2.013-3.242,3.019-5.031,3.019-5.367h1.006v0.671
	h0.335v-1.007l-4.361-5.702L34.551,77.154z M23.481,74.805c0,0.447-0.335,1.565-1.006,3.354l-1.677-0.336h-0.335
	c-0.447,0.057-0.671,0.279-0.671,0.672v0.335h1.677c0.392,0,1.398-0.335,3.019-1.007c0.056,0.447,0.28,0.672,0.671,0.672
	c0-0.615,0.559-0.951,1.677-1.007v-0.335c-1.733,0-2.739-0.447-3.019-1.342c0.335,0,0.671-0.336,1.006-1.007H23.481z M20.462,11.405
	h0.671c1.006,0.391,2.013,1.957,3.019,4.696c-0.447,2.236-0.671,4.473-0.671,6.709v5.032c0,0.447-0.224,0.671-0.671,0.671
	c-1.789,0-2.684-2.46-2.684-7.38c0.224-2.572,0.335-5.032,0.335-7.38V11.405z M22.14,70.78h-0.335l-0.671-0.335
	c-0.671,0.838-1.006,1.621-1.006,2.348v0.671c2.516-2.013,4.864-3.019,7.044-3.019l-1.677-1.342c0.224,0,0.335-0.112,0.335-0.336
	h-0.671L22.14,70.78z M21.469,35.558l-0.671,1.342c0.224,0.447,0.335,0.783,0.335,1.006h0.335c0-0.559,0.224-1.118,0.671-1.677
	C22.14,35.781,21.916,35.558,21.469,35.558z M21.133,31.868v2.684h0.335c0-0.559,0.112-1.454,0.335-2.684H21.133z M21.469,39.583
	l-0.335,0.671h1.677v-0.335C22.308,39.918,21.86,39.807,21.469,39.583z M22.811,31.868c0,0.447-0.112,0.671-0.335,0.671
	c0.224,0.391,0.335,0.95,0.335,1.677h0.335c0-0.671,0.559-1.006,1.677-1.006v-0.671C23.985,32.539,23.314,32.315,22.811,31.868z
	 M23.146,35.893l-0.335,0.671c0.447,0,1.006,0.447,1.677,1.342l0.335-1.677C24.097,36.229,23.538,36.117,23.146,35.893z
	 M25.83,15.095c0.895,2.068,1.342,3.969,1.342,5.703v2.348l-0.335,2.013v0.335h0.335c0.28-1.565,1.398-3.131,3.354-4.696h0.335
	c-0.279,3.131-0.615,4.696-1.006,4.696l0.335,0.671c-0.671,1.006-1.006,1.901-1.006,2.684c1.677-1.118,2.907-1.677,3.69-1.677
	l0.335,0.671c-1.565,2.684-2.795,4.025-3.69,4.025c0-0.392-1.006-1.286-3.019-2.684v-1.677h-0.335c0,1.118-0.224,1.677-0.671,1.677
	h-0.335c-0.727,0-1.174-1.789-1.342-5.367C24.097,18.338,24.768,15.431,25.83,15.095z M27.507,34.551v0.335
	c0.224,0.391,0.335,0.838,0.335,1.342c-0.224,0-0.335,0.112-0.335,0.335h0.335c0.447-0.224,0.783-0.335,1.006-0.335l0.671,1.006
	c-0.224,0.447-0.335,0.783-0.335,1.006h-1.006c-0.447,0-0.671-0.447-0.671-1.342h-0.335c0,2.46-0.447,3.69-1.342,3.69l-1.677-1.006
	l-0.335,0.671v0.335l4.025,1.006l-0.671-1.006v-1.006c0-0.335,0.671-0.671,2.013-1.006c0-0.335,0.335-0.671,1.006-1.006
	c-0.224-0.392-0.335-0.951-0.335-1.677l-0.671,0.335c-0.895-0.447-1.342-1.006-1.342-1.677H27.507z M25.494,33.545v0.671
	l0.335,0.671c0.447-0.224,0.783-0.335,1.006-0.335c-0.224-0.392-0.335-0.839-0.335-1.342C26.053,33.433,25.718,33.545,25.494,33.545
	z M26.5,72.457v1.007c1.398-0.447,2.516-0.671,3.354-0.671v-0.336H26.5z M28.513,41.931v0.335l1.342,0.335
	c0-0.447-0.335-0.671-1.006-0.671H28.513z M31.197,38.577c0,0.895-0.224,1.342-0.671,1.342H30.19l-0.671-0.335v0.671
	c1.565,0.615,2.348,1.509,2.348,2.684l1.677-0.335c0.895,0.447,1.342,1.118,1.342,2.013l-0.671,0.335H33.88l-1.006-0.671h-0.671
	c0,0.335,1.565,1.789,4.696,4.361v-0.335c-0.224-0.392-0.335-0.839-0.335-1.342h1.677v-0.335c-0.391,0-0.95-0.224-1.677-0.671v1.006
	c-1.174,0-1.845-0.335-2.013-1.006V44.95h0.671l1.006,0.671c0-0.615,0.559-0.951,1.677-1.006v-0.335
	c-2.013,0-3.019-0.559-3.019-1.677v-0.335c0.224,0,0.335-0.112,0.335-0.335c-1.118,0-1.901-0.783-2.348-2.348l-1.342-1.006H31.197z
	 M31.868,39.918c0.335,0,0.783,0.447,1.342,1.342c0,0.447-0.224,0.671-0.671,0.671h-0.335c-0.503,0-0.838-0.559-1.006-1.677
	L31.868,39.918z M37.235,70.78c3.019,0,5.479,1.118,7.38,3.354l-0.671,0.336c-0.391-0.225-0.838-0.336-1.342-0.336l6.038,6.373
	v0.336h-1.006c-3.075-2.46-5.535-3.689-7.38-3.689l4.025,6.037c-0.224,0-0.335,0.112-0.335,0.336
	c-2.013-1.398-5.255-3.97-9.728-7.715l0.671-0.336h1.677V75.14c-1.118-2.068-1.677-3.299-1.677-3.689
	C36.005,71.003,36.788,70.78,37.235,70.78z M36.564,52.33v0.671c0.335,0,1.23,0.559,2.684,1.677c0-0.224,0.112-0.559,0.335-1.006
	l0.671,0.335h1.677v-0.335c-0.447,0-1.118-0.447-2.013-1.342c0,0.671-0.224,1.006-0.671,1.006
	C38.577,53.336,37.682,53.001,36.564,52.33z M53.336,81.179c2.516,0,4.641,2.348,6.373,7.044v0.671h-0.335
	c-0.727-0.447-1.286-0.671-1.677-0.671c1.342,2.349,2.236,5.367,2.684,9.058c-0.279,1.564-0.615,2.348-1.007,2.348
	c-0.447-1.342-0.895-2.013-1.342-2.013c-0.503,3.802-1.174,5.702-2.013,5.702c-0.224-0.223-0.335-1.117-0.335-2.684l-2.348,3.02
	h-0.335v-0.336l-0.335-3.354c-0.335,0-0.783,0.447-1.342,1.342c0.335,0,0.671,0.335,1.006,1.006v1.006
	c0,0.225-0.783,0.895-2.348,2.014c0.335,1.174,1.677,2.292,4.025,3.354c0.224,0.447,0.335,0.783,0.335,1.007
	s-0.112,0.335-0.335,0.335l0.335,1.678v0.671c0,0.392-0.335,1.286-1.006,2.684H52.33c0.224-1.229,0.335-2.124,0.335-2.684
	c0-0.447-0.895-1.118-2.684-2.013c0-0.503-1.118-1.51-3.354-3.02c-1.342-2.18-3.019-4.305-5.032-6.373v-1.342H41.26
	c0,0.895-0.224,1.342-0.671,1.342c-0.838-0.671-1.845-1.006-3.019-1.006v0.335h-0.671v-1.342l2.684-2.349h1.006
	c1.565,0,2.348,0.672,2.348,2.014l0.671-0.336h0.671c2.236,1.957,4.025,2.963,5.367,3.02v1.006h0.671
	c0.447,0,0.671-0.224,0.671-0.671v-0.335l-0.671,0.335h-0.335v-0.335c0.895-1.566,1.565-4.361,2.013-8.387
	c-2.013-4.417-3.019-7.101-3.019-8.051v-0.336C48.976,82.409,50.429,81.291,53.336,81.179z M39.918,55.014
	c0,0.671-0.335,1.006-1.006,1.006l-0.671-0.335h-0.335v0.335c1.454,0.447,2.46,0.671,3.019,0.671h0.335
	c-0.671-0.727-1.006-1.286-1.006-1.677H39.918z M42.602,78.16c1.342,0.671,3.466,2.236,6.374,4.696
	c-0.447,0.895-0.671,1.677-0.671,2.349c0.671,2.124,1.454,4.025,2.348,5.702l-0.671,0.335c-4.473-1.564-7.827-4.473-10.063-8.721
	v-1.007h0.335c2.516,2.236,4.193,3.354,5.032,3.354v-0.336c-1.454-3.578-2.572-5.367-3.354-5.367v-0.335
	C41.987,78.383,42.211,78.16,42.602,78.16z M62.729,62.729c3.131,3.075,6.373,5.199,9.729,6.374c0.895,0.67,1.342,1.117,1.342,1.342
	v2.012c0,0.336-0.336,0.672-1.006,1.007h-0.336c-2.18,0-5.758-2.013-10.734-6.038v-0.336h-0.336c0,1.119-0.336,1.678-1.006,1.678
	l0.335,0.671v0.335c0,0.336-0.447,0.783-1.342,1.342h-1.342l-1.677-1.006v0.671c1.063,0.392,2.516,0.727,4.361,1.007
	c0.28,1.621,0.728,2.738,1.342,3.354c0.447-0.223,0.782-0.335,1.007-0.335c-1.063-0.839-1.846-2.181-2.349-4.025
	c0.224-1.565,0.56-2.349,1.007-2.349c3.914,2.796,7.492,5.032,10.734,6.709v1.678c0,0.336-0.447,0.783-1.342,1.342h-1.342
	c-1.006,0-2.795-0.895-5.367-2.684h-0.336c0.951,1.174,3.188,2.627,6.709,4.361l0.336,0.67c0,1.566-0.783,2.349-2.348,2.349
	c-0.279,0-1.174-0.335-2.684-1.007h-0.336v0.336c6.037,4.696,11.74,10.623,17.107,17.779l0.672,1.342l-0.672,0.335
	c-3.801-4.249-5.814-6.374-6.037-6.374v0.336c3.578,3.689,5.367,6.15,5.367,7.38c-0.951,0-2.068-0.56-3.355-1.677
	c0,1.117-0.223,1.677-0.67,1.677c-1.789-1.397-2.684-2.403-2.684-3.019h-0.336v0.335c1.342,2.292,2.012,3.858,2.012,4.696
	l-0.67,0.336c-3.467-3.188-6.598-8.107-9.393-14.76h-0.672c4.697,8.386,7.045,13.306,7.045,14.76c0,0.447-0.223,0.67-0.67,0.67
	c-2.236-2.012-4.473-6.037-6.709-12.076h-0.336v0.336c0.223,1.51,0.336,2.74,0.336,3.689v1.007c0,0.447-0.225,0.671-0.672,0.671
	c-1.342-2.907-2.236-4.361-2.684-4.361h-0.336c0,2.014-0.335,3.02-1.006,3.02c-0.671-3.074-1.453-5.871-2.348-8.387
	c0.67-0.447,1.564-0.67,2.684-0.67v-0.336c-0.895,0-1.901-1.453-3.02-4.361c-2.068-2.684-4.193-4.025-6.374-4.025
	c-1.118,0.447-2.013,0.672-2.684,0.672c0-0.336-1.565-2.236-4.696-5.703c0.447-0.224,0.783-0.336,1.006-0.336
	c0.727,0,1.733,0.447,3.019,1.342h0.335v-0.335l-7.044-5.032l5.703-1.677c1.286,0.95,3.075,1.621,5.367,2.013
	c0.615,2.627,2.181,5.311,4.696,8.051c0.056-0.447,0.28-0.671,0.671-0.671l5.031,1.342c-0.447-0.392-0.782-1.957-1.006-4.696h-0.336
	c0,2.46-0.335,3.689-1.006,3.689c-4.696-1.621-7.044-4.081-7.044-7.379V70.78c2.125,2.907,3.802,4.36,5.032,4.36h0.671v-0.335
	c-3.131-1.007-4.696-2.571-4.696-4.696l0.671-1.006l-0.335-0.672c0.447-1.117,1.454-1.677,3.019-1.677v-0.335
	c-1.006,0-1.677-0.112-2.013-0.336c0.168-1.342,0.615-2.013,1.342-2.013l0.671,0.335c0.895-0.223,1.678-0.559,2.348-1.006
	l0.336,0.671c-0.503,1.342-1.285,2.013-2.348,2.013v0.336h0.67l1.342-0.672c0.225,0.447,0.336,0.783,0.336,1.007h0.671l-0.335-1.677
	v-0.336C61.891,63.4,62.226,62.729,62.729,62.729z M42.602,100.634v0.336h1.677v-0.336H42.602z M49.311,42.938l2.684,2.348
	l-1.677,4.361c0,0.447-0.335,0.671-1.006,0.671c0.335,0.895,0.671,1.342,1.006,1.342c0.335-1.454,0.783-2.348,1.342-2.684
	l-0.335-0.671c0.056-0.447,0.28-0.671,0.671-0.671h1.677c0.335,0,0.671,0.447,1.006,1.342c-0.391,1.342-1.397,2.013-3.019,2.013
	v0.335c0.671,0,1.006,0.447,1.006,1.342h0.671V52.33l-0.335-0.671l0.671-0.335c0.447,0,0.671,0.559,0.671,1.677l1.342-2.348
	c0.559,0,2.236-0.671,5.032-2.013l0.335,0.671v0.335c-2.012,2.684-4.249,4.025-6.708,4.025c0-0.224-0.112-0.335-0.335-0.335
	c0,0.447-0.224,0.671-0.671,0.671h-0.335v-1.006c-0.727,0.671-1.286,1.006-1.677,1.006c0.895,1.118,1.342,1.901,1.342,2.348h0.671
	c0-1.342,0.559-2.013,1.677-2.013c1.677-0.392,3.243-1.174,4.696-2.348c0.225,0.391,0.336,0.838,0.336,1.342h0.336
	c0-0.559,0.223-1.118,0.67-1.677c-0.447,0-0.67-0.224-0.67-0.671c0-0.895,2.124-1.565,6.373-2.013v0.671
	c0,1.342-1.789,2.013-5.367,2.013v0.335h3.355v0.671c0,0.335-0.336,0.671-1.008,1.006l0.336,0.671v0.671
	c-0.895,1.342-2.013,2.013-3.354,2.013h-0.671l-0.671-0.335c-0.56,2.013-2.125,3.019-4.696,3.019
	c-1.565-0.335-2.348-0.783-2.348-1.342c0-0.392,1.901-0.951,5.703-1.677c1.342-0.895,2.013-1.454,2.013-1.677v-0.671h-0.336
	c-2.459,2.013-4.584,3.019-6.373,3.019c0-0.447-0.224-0.671-0.671-0.671c-0.895,1.006-1.342,1.565-1.342,1.677v1.342l3.354,0.335
	h0.335c0.727,0,1.957-0.335,3.69-1.006c0,0.224,0.111,0.335,0.336,0.335c-0.783,1.789-2.237,2.684-4.361,2.684h-0.335
	c-1.621,0-2.516-0.671-2.684-2.013h-0.671l-1.677,1.342h-0.335c-0.447,0-0.671-0.671-0.671-2.013h-0.335
	c0,1.509-0.447,2.404-1.342,2.684H44.95c-0.447,0-0.671-0.224-0.671-0.671v-0.671c0-0.615,0.559-0.951,1.677-1.006v-0.671
	c-0.671,0-1.006-0.224-1.006-0.671c0.28-1.118,0.615-1.677,1.006-1.677h0.335c0.447,0.056,0.671,0.279,0.671,0.671v0.671
	l-0.671,1.006h0.335c2.125-0.224,3.354-0.447,3.69-0.671c-0.335-0.895-0.671-1.342-1.006-1.342c0.224-0.447,0.335-0.783,0.335-1.006
	c-0.447-0.727-0.671-1.286-0.671-1.677h2.013v-0.335c-0.335,0-0.783-0.224-1.342-0.671c-0.895,1.006-1.342,1.565-1.342,1.677
	c0.447,0.056,0.671,0.279,0.671,0.671v1.006c0,0.335-0.447,0.783-1.342,1.342h-0.335c0-1.063-0.559-1.845-1.677-2.348
	C47.354,47.187,48.584,42.938,49.311,42.938z M50.317,61.387l0.335,0.671c-0.224,0.391-0.335,0.838-0.335,1.342
	c1.845,1.118,3.522,1.678,5.032,1.678c0.447-0.225,0.783-0.336,1.006-0.336l0.335,0.671c-1.006,1.342-2.348,2.013-4.025,2.013
	c-1.509-0.504-2.627-1.286-3.354-2.348v-0.336l0.671-1.006V63.4h-0.335c0,0.671-0.559,1.006-1.677,1.006l-0.335-0.67
	C48.361,62.17,49.255,61.387,50.317,61.387z M48.64,66.083h0.671c1.23,1.118,2.572,1.678,4.025,1.678h1.006l0.671-0.336
	c0.224,0.447,0.335,0.783,0.335,1.006c-0.559,1.342-1.565,2.014-3.019,2.014c-2.572,0-4.137-1.23-4.696-3.69L48.64,66.083z
	 M61.387,30.526h1.006c0.672,0,1.008,0.671,1.008,2.013l0.67-0.335h0.336c0.336,0,0.783,0.447,1.342,1.342
	c-2.852,4.249-5.646,6.374-8.387,6.374l-0.335-2.348c-1.621,0.056-3.41,0.838-5.367,2.348c-0.559,0.447-1.006,0.671-1.342,0.671
	v0.671c0.839-0.671,1.622-1.006,2.348-1.006h0.335c0.447,0.056,0.671,0.279,0.671,0.671v1.006c0,0.391-0.783,1.062-2.348,2.013
	c-0.447,0-1.006-0.895-1.677-2.684h-0.335c1.677-4.696,4.025-7.044,7.044-7.044v0.335l0.671-0.335h0.671
	c0.67,0,1.006,0.447,1.006,1.342l0.671-0.335l-0.335-0.671v-0.335c0.447-0.559,0.67-1.006,0.67-1.342v-0.335h-0.335L59.04,33.88
	h-1.342c-0.448,0-0.671-0.224-0.671-0.671C58.983,31.42,60.437,30.526,61.387,30.526z M61.723,59.375l0.335,0.671l-1.007,1.342
	c0.225,0.447,0.336,0.783,0.336,1.006c-0.95,0.895-1.845,1.342-2.684,1.342l-1.006-0.671c-0.336,0.894-1.119,1.341-2.349,1.341
	h-2.348c-1.342-0.782-2.013-1.341-2.013-1.677v-1.006c0.056-0.447,0.28-0.671,0.671-0.671c0,0.279,0.559,0.727,1.677,1.342h1.677
	c2.684,0,4.026-0.559,4.026-1.677C59.04,60.381,59.934,59.934,61.723,59.375z M64.071,40.254l0.336,0.671v0.671
	c0,1.397-2.908,3.187-8.722,5.367l-0.335-0.671c-0.838,0.447-1.733,0.671-2.684,0.671H52.33c0-0.503,0.112-0.951,0.335-1.342
	c-0.224-0.392-0.335-0.839-0.335-1.342c0.392-0.895,1.174-1.342,2.348-1.342h0.671c0.447,0,0.671,0.671,0.671,2.013l7.381-4.025
	C63.456,40.478,63.68,40.254,64.071,40.254z M56.02,38.577c0.335,0,0.671,0.335,1.006,1.006c-0.391,1.006-1.062,1.789-2.013,2.348
	h-1.006v-0.335l0.335-0.671c-0.335,0-0.671-0.335-1.006-1.006v-0.335C53.504,38.912,54.399,38.577,56.02,38.577z M61.723,44.95
	c0.447,0.056,0.67,0.279,0.67,0.671c0,1.621-2.459,3.187-7.379,4.696c0-0.224-0.112-0.335-0.335-0.335
	c0-2.236,1.342-3.354,4.025-3.354C60.157,45.957,61.164,45.397,61.723,44.95z M62.393,33.545c0,0.671-1.117,1.677-3.354,3.019
	c-1.398-0.112-2.516-0.559-3.355-1.342v0.671c1.118,0.671,1.677,1.23,1.677,1.677c3.578-1.51,5.367-2.74,5.367-3.69v-0.335H62.393z
	 M65.749,35.222l0.67,1.006c0,2.348-3.018,4.696-9.057,7.044h-0.671c-0.447,0-0.671-0.224-0.671-0.671v-0.335
	c0-0.503,2.348-1.957,7.045-4.361C63.065,37.738,63.959,36.843,65.749,35.222z M58.033,68.767v0.336l1.677,0.335
	c0-0.447-0.335-0.671-1.006-0.671H58.033z M58.033,79.837c3.578,5.311,5.368,8.553,5.368,9.728
	c-0.448,0.056-0.672,0.279-0.672,0.671c0.393,0,0.951,0.224,1.678,0.671v-0.335c0-1.678-2.014-5.256-6.039-10.734H58.033z
	 M63.065,56.691l0.336,0.671c-0.783,1.342-1.79,2.013-3.02,2.013h-0.336c-0.447,0-0.671-0.224-0.671-0.671
	C59.375,58.145,60.604,57.474,63.065,56.691z M60.381,54.678l0.335,0.671c1.342-0.28,2.013-0.615,2.013-1.006
	C61.834,54.566,61.051,54.678,60.381,54.678z M65.413,26.5h1.006c0.447,0.056,0.672,0.279,0.672,0.671
	c0,1.286-1.119,2.627-3.355,4.025h-0.334c0-0.783-0.783-1.342-2.35-1.677C62.17,27.507,63.624,26.5,65.413,26.5z M61.387,6.038
	h0.336c5.367,1.845,8.051,6.317,8.051,13.418c0,4.696-0.895,7.044-2.684,7.044l-1.342-0.671c-1.119,0.447-1.9,0.671-2.348,0.671
	c0-0.224-0.113-0.335-0.336-0.335c1.342-3.075,2.012-5.982,2.012-8.722C65.077,13.53,63.848,9.728,61.387,6.038z M68.432,45.621
	v0.335c0,1.509-2.236,2.627-6.709,3.354l-0.336-0.671v-0.671C61.387,47.075,63.735,46.292,68.432,45.621z M64.407,58.033
	c1.789,2.068,5.256,4.417,10.398,7.045l0.336,0.67c0,1.174-0.336,1.846-1.006,2.014h-2.014c-5.422-2.182-8.666-4.417-9.729-6.709
	C63.008,59.318,63.68,58.312,64.407,58.033z M68.096,43.273l0.336,0.671c0,1.118-1.789,1.789-5.367,2.013v-1.342
	C63.065,44.223,64.743,43.776,68.096,43.273z M65.749,40.925h4.361v0.335c-0.951,1.342-2.74,2.013-5.367,2.013
	c-0.447,0-0.672-0.224-0.672-0.671L65.749,40.925z M65.077,54.678c3.467,2.795,7.381,5.367,11.742,7.715l0.334,0.671V63.4
	c0,0.447-0.223,0.671-0.67,0.671h-1.678c-3.969-1.454-7.547-4.025-10.734-7.715C64.35,55.237,64.686,54.678,65.077,54.678z
	 M64.407,85.875v0.336c0.168,1.23,1.063,2.125,2.684,2.684c0,0.559,2.125,3.578,6.373,9.057v-0.335
	C70.725,92.975,67.706,89.062,64.407,85.875z M69.774,26.836h0.67c0.336,0,0.672,0.335,1.008,1.006v0.335
	c-1.455,2.236-2.572,3.354-3.355,3.354v0.671c0.393,0,1.846-1.565,4.361-4.696h0.67c0.447,0.056,0.672,0.279,0.672,0.671v1.006
	c0,2.236-2.236,4.473-6.709,6.709c-0.447-0.727-0.672-1.398-0.672-2.013c0-0.447,0.336-0.671,1.008-0.671v-0.671l-0.672,0.335
	h-0.336c-1.117-0.615-1.676-1.063-1.676-1.342v-0.335C67.034,28.29,68.711,26.836,69.774,26.836z M66.084,51.995
	c2.57,1.789,6.484,4.025,11.74,6.709c0.67,0.838,1.006,1.509,1.006,2.013c-0.559,0.447-1.006,0.671-1.342,0.671
	c-2.404,0-6.541-2.572-12.412-7.715v-0.671C65.077,52.666,65.413,52.33,66.084,51.995z M88.223,32.539v0.335
	c0,5.367-4.92,8.051-14.76,8.051l-2.348,0.335v-0.335c0-0.559,0.447-0.895,1.342-1.006v-0.335h-0.336
	c-1.453,0.671-3.242,1.006-5.367,1.006h-0.67c-0.447,0-0.672-0.224-0.672-0.671v-0.671c2.572,0,5.703-1.677,9.393-5.032l0.672,0.335
	c0,1.509-0.672,2.963-2.014,4.361h0.336c3.02-0.559,7.492-2.684,13.418-6.374H88.223z M65.749,88.894V89.9l0.67,0.336V89.9
	c-0.223-0.447-0.334-0.782-0.334-1.006H65.749z M74.469,30.526l0.672,1.342c0,2.348-2.908,4.584-8.723,6.709l-0.334-0.671
	c0-0.615,2.012-2.069,6.037-4.361C73.073,31.812,73.856,30.805,74.469,30.526z M66.418,50.317c5.648,2.684,8.891,4.025,9.729,4.025
	c3.578,0.224,5.367,0.783,5.367,1.677v1.342c0,0.335-0.336,0.671-1.006,1.006c-6.766-1.789-11.461-4.137-14.09-7.044V50.317z
	 M67.426,48.976h0.334c4.361,1.565,9.059,2.348,14.09,2.348c0.223,0.447,0.336,0.783,0.336,1.006c0,0.727-0.895,1.397-2.684,2.013
	c-3.691,0-7.717-1.565-12.076-4.696V48.976z M68.768,2.013c3.801,2.795,5.701,7.715,5.701,14.76
	c-0.447,6.709-1.006,10.063-1.676,10.063h-1.008c-0.727,0-1.508-0.335-2.348-1.006c0.672-2.348,1.006-4.696,1.006-7.044v-1.342
	c0-2.46-0.67-4.696-2.012-6.709c0-0.168,0.111-0.839,0.336-2.013c0-1.342-0.225-3.466-0.672-6.374L68.768,2.013z M84.87,43.944
	h0.334c0.447,0.056,0.672,0.279,0.672,0.671c-0.615,2.236-4.752,3.354-12.412,3.354v0.335h6.373c1.846,0,3.412-0.335,4.697-1.006
	l0.336,0.671c-1.678,1.565-4.139,2.348-7.381,2.348h-2.348c-3.02,0-5.367-0.783-7.045-2.348v-0.335c0-0.447,0.559-0.671,1.678-0.671
	l-0.672-1.006V44.95l0.336-0.671c2.404,0.671,4.865,1.006,7.381,1.006C81.012,45.286,83.696,44.838,84.87,43.944z M86.545,38.912
	l0.672,1.006v1.342c0,1.509-3.578,2.739-10.734,3.69c-2.125-0.224-4.361-0.671-6.709-1.342v-0.671c0-0.895,2.348-1.454,7.045-1.677
	h3.354C81.292,41.26,83.415,40.478,86.545,38.912z M71.786,89.9v0.336l3.691,3.689v-0.67C75.198,93.255,73.967,92.136,71.786,89.9z
	 M73.463,0h0.672c3.354,2.292,5.031,6.206,5.031,11.741c0,4.584-1.566,9.393-4.697,14.424h-0.334
	c0.895-3.746,1.342-7.212,1.342-10.399c0-5.423-1.119-9.337-3.355-11.741V3.69C72.458,1.23,72.905,0,73.463,0z M79.836,0.671
	c2.908,3.298,4.361,6.541,4.361,9.728v3.69c-0.336,3.466-1.9,7.827-4.695,13.083c-2.014,2.46-3.131,3.69-3.355,3.69
	c-0.279,0-0.838-0.671-1.678-2.013v-0.671c4.025-6.206,6.039-12.691,6.039-19.456V8.386c0-3.69-0.447-6.15-1.342-7.38L79.836,0.671z
	 M89.565,21.133l0.336,0.671v1.677c0,3.075-2.684,6.988-8.051,11.741c-3.355,1.565-5.367,2.348-6.039,2.348v-2.348
	c0-0.224,0.113-0.335,0.336-0.335l-0.336-0.671l8.723-7.044C87.329,23.425,89.006,21.413,89.565,21.133z M88.895,6.038
	c0.895,1.342,1.342,2.684,1.342,4.025v1.677c0,7.156-4.361,13.977-13.084,20.462h-0.67v-0.335c5.59-7.044,8.387-12.3,8.387-15.766
	v-3.354c1.063-1.51,2.291-3.746,3.689-6.709H88.895z"/>
</svg>
