<?xml version="1.0" encoding="utf-8"?>
<!-- Generator: Adobe Illustrator 15.0.2, SVG Export Plug-In . SVG Version: 6.00 Build 0)  -->
<!DOCTYPE svg PUBLIC "-//W3C//DTD SVG 1.1//EN" "http://www.w3.org/Graphics/SVG/1.1/DTD/svg11.dtd">
<svg version="1.1" id="Layer_1" xmlns="http://www.w3.org/2000/svg" xmlns:xlink="http://www.w3.org/1999/xlink" x="0px" y="0px"
	 width="90.544px" height="65.159px" viewBox="0 0 90.544 65.159" enable-background="new 0 0 90.544 65.159" xml:space="preserve">
<path d="M80.569,58.779c-0.188-0.138-0.32-0.282-0.409-0.442c-0.094-0.16-0.183-0.326-0.276-0.508
	c-0.088-0.183-0.199-0.326-0.337-0.442c-0.138-0.116-0.292-0.171-0.475-0.171c-0.359,0-0.657,0.077-0.878,0.243
	c-0.232,0.154-0.547,0.232-0.95,0.232c-0.503,0-0.829-0.381-0.989-1.149c-0.16-0.773-0.237-1.469-0.237-2.11v-1.149
	c0-0.591,0.066-1.16,0.204-1.702c0.138-0.541,0.205-1.083,0.205-1.624v-0.276c0-0.044-0.044-0.155-0.133-0.337
	c-0.094-0.182-0.166-0.292-0.21-0.337c-1.314-2.132-2.646-4.314-3.999-6.551c-1.359-2.243-2.867-4.331-4.518-6.28
	c-1.651-1.944-3.491-3.654-5.529-5.123c-2.038-1.472-4.391-2.502-7.059-3.091l-18.056-4.206h-1.492
	c0.227,0.315,0.633,0.668,1.221,1.052c0.588,0.384,1.188,0.768,1.798,1.152c0.613,0.387,1.144,0.749,1.597,1.088
	c0.453,0.337,0.679,0.644,0.679,0.914c0,0.5-0.182,0.804-0.544,0.917s-0.771,0.171-1.221,0.171c-3.303,0-6.178-0.657-8.62-1.969
	c-2.444-1.312-4.753-3.167-6.924-5.565h-0.544h-0.61c-1.085,0-2.466,0.022-4.14,0.066c-1.673,0.047-3.292,0.091-4.852,0.135
	c-1.563,0.047-3.452,0.113-5.667,0.205l-6.042,1.085C1.199,23.1,0.848,22.92,0.508,22.467C0.171,22.014,0,21.63,0,21.313
	c0-0.409,0.237-0.87,0.712-1.392c0.475-0.52,1.019-1.027,1.629-1.527c0.61-0.497,1.199-0.972,1.765-1.425
	c0.566-0.453,0.961-0.814,1.188-1.085c1.944-2.309,3.734-4.198,5.363-5.667c1.626-1.469,3.325-2.67,5.09-3.599
	c1.765-0.925,3.731-1.651,5.905-2.17c2.171-0.52,4.75-0.961,7.738-1.323c0.271,0,0.721-0.025,1.356-0.069
	c0.632-0.044,1.312-0.069,2.035-0.069h3.394c2.262,0,4.458,0.138,6.584,0.409C44.887,3.665,47.08,3.8,49.345,3.8
	c1.176,0,2.259-0.249,3.259-0.746c0.994-0.497,2.038-0.994,3.121-1.494c1.536-0.632,3.021-1.052,4.447-1.254
	C61.596,0.103,63.148,0,64.816,0h1.9c0.364,0,0.718,0.011,1.055,0.033c0.337,0.025,0.602,0.036,0.779,0.036
	c0.232,0.044,0.354,0.179,0.376,0.406c0.022,0.227,0.033,0.431,0.033,0.61c0,0.409-0.238,0.815-0.713,1.224
	c-0.475,0.406-1.011,0.859-1.596,1.356c-0.585,0.5-1.116,1.063-1.591,1.698c-0.475,0.633-0.718,1.381-0.718,2.24
	c0,1.176,0.364,2.331,1.088,3.46c0.724,1.132,1.574,2.262,2.546,3.394c0.972,1.129,1.978,2.229,3.021,3.292
	c1.038,1.063,1.873,2.069,2.513,3.019c1.668,2.715,3.115,5.184,4.341,7.399c1.221,2.218,2.215,4.446,2.983,6.686
	c0.773,2.24,1.348,4.604,1.734,7.095c0.387,2.485,0.597,5.336,0.641,8.55c0.729,0.906,1.519,1.934,2.375,3.088
	c0.862,1.154,1.657,2.386,2.381,3.695c0.724,1.314,1.331,2.651,1.828,4.01c0.497,1.358,0.751,2.646,0.751,3.866h-1.292l-4.143-5.225
	c-0.497-0.68-1.183-1.088-2.066-1.227C82.16,58.575,81.332,58.597,80.569,58.779z"/>
</svg>
