<?xml version="1.0" encoding="utf-8"?>
<!-- Generator: Adobe Illustrator 15.0.2, SVG Export Plug-In . SVG Version: 6.00 Build 0)  -->
<!DOCTYPE svg PUBLIC "-//W3C//DTD SVG 1.1//EN" "http://www.w3.org/Graphics/SVG/1.1/DTD/svg11.dtd">
<svg version="1.1" id="Layer_1" xmlns="http://www.w3.org/2000/svg" xmlns:xlink="http://www.w3.org/1999/xlink" x="0px" y="0px"
	 width="63.405px" height="56.271px" viewBox="0 0 63.405 56.271" enable-background="new 0 0 63.405 56.271" xml:space="preserve">
<path d="M4.216,46.054l0.162,0.324c-1.188,1.244-1.783,2.541-1.783,3.893v0.324c0.27,0.541,0.702,0.811,1.297,0.811
	c0.784,0,1.703-0.162,2.757-0.486v0.486c-0.108,0.352-1.352,1.055-3.729,2.108c-1.405,1.433-2.108,2.351-2.108,2.757H0.486
	C0.162,56.271,0,55.676,0,54.486C0,50.567,1.405,47.757,4.216,46.054z M9.243,9.405h1.946c3.919,1.189,6.351,1.784,7.297,1.784
	c3.946-0.648,6.324-0.973,7.135-0.973c4,0.27,7.568,1.189,10.703,2.757c5.729,2.946,8.595,6.729,8.595,11.351
	c-0.217,0.676-0.324,1.108-0.324,1.298c0.973,1.352,1.459,2.107,1.459,2.27v1.622c0,0.162-0.162,0.324-0.486,0.486h-0.973
	c-0.298,0-2.46-1.081-6.486-3.243c-1.622-0.541-3.027-0.811-4.217-0.811h-1.459c-0.217,0-0.324-0.108-0.324-0.324
	c0.405-0.217,0.838-0.324,1.297-0.324h0.811c2.784,0,5.486,0.811,8.108,2.432h0.162c-1.676-1.838-2.757-2.973-3.243-3.405
	l0.324-0.162l3.729,3.405c0.757,0.433,1.298,0.648,1.622,0.648c-0.838-2.27-2.081-3.405-3.729-3.405l-0.162-0.324l0.162-0.324
	c-1.622-0.216-2.649-0.324-3.081-0.324C36.027,23.946,34.189,24,32.595,24v-0.162c0-0.189,0.811-0.405,2.433-0.649l0.648-0.486
	c-0.541-0.973-0.812-1.729-0.812-2.27v-0.324h0.163c1.081,1.514,2.054,2.271,2.919,2.271h0.648c0.433-0.189,0.648-0.568,0.648-1.135
	c-0.297-1.838-1.973-3.676-5.027-5.514c-2.486-0.973-4.648-1.567-6.486-1.784h-2.595c-2.973,0-6.378,1.243-10.216,3.73
	c-3.46,2.865-5.676,5.892-6.648,9.081c-0.46,0-1.271,2.973-2.433,8.919c-0.217,2.622-0.324,4.081-0.324,4.378v2.757
	c0,1.352,0.216,3.189,0.648,5.514H6c-0.486-0.486-0.973-2.648-1.46-6.486v-2.433c0-0.865,0.055-1.892,0.162-3.081
	c-0.107-0.216-0.162-0.378-0.162-0.486c0.893-7.162,2.352-12.514,4.379-16.054c1.297-2.541,1.945-4.324,1.945-5.352
	c0-0.973-1.297-2.27-3.892-3.892v-0.162C6.973,10.054,7.729,9.729,9.243,9.405z M27.405,17.027c2.946,0,5,0.595,6.162,1.784
	l-0.324,0.163c0-0.216-1.189-0.433-3.567-0.649c-7.271,0-13.486,3.514-18.648,10.54c-2.487,4.758-3.73,8.324-3.73,10.703
	c-0.107,0-0.162,0.108-0.162,0.324H6.811c0-5.352,2.271-10.918,6.811-16.703C17.405,19.081,22,17.027,27.405,17.027z M24.324,24.324
	h0.648v0.162c0,0.216-0.757,0.487-2.271,0.812l-3.567,2.107C17.081,28.974,16,30,15.892,30.486h0.162L24,27.081
	c0.216,0.027,0.324,0.135,0.324,0.324c-0.973,0.757-2,1.297-3.081,1.621v0.162c0.433,0,0.648,0.162,0.648,0.487
	c-0.324,1.513-0.595,3.243-0.811,5.188v0.812h-0.486l-0.162-1.622v-0.973c0-1.811,0.216-3.107,0.648-3.893h-0.162
	c-4.703,2.055-8.055,5.136-10.055,9.244c-1.432,2.676-2.621,6.352-3.567,11.027v0.648H6.811v-1.135c0-2,0.703-5.406,2.108-10.217
	c1.945-5.811,5.135-9.919,9.567-12.324C21.243,25.026,23.189,24.324,24.324,24.324z M8.919,45.081h0.648
	c1.595,0,3.324,1.729,5.189,5.189c0.216,0.405,0.324,0.838,0.324,1.297h-0.162c-1.298-0.541-2.217-0.811-2.757-0.811
	c-2.135,0.757-3.324,1.135-3.567,1.135C8,51.702,7.567,51.433,7.297,51.081c0-0.162,0.217-0.324,0.648-0.486l0.325,0.162
	c1.243,0,2.162-0.595,2.757-1.783v-0.812c-0.568-1.514-1.271-2.378-2.108-2.595V45.081z M10.216,11.189v0.162
	c1.729,0.919,2.595,2.108,2.595,3.568v1.784h0.162c4.729-2.703,9-4.054,12.811-4.054h0.812c3.486,0.216,6.729,1.243,9.729,3.081
	c2.297,1.703,4.027,3.865,5.189,6.487c0.107,0.324,0.433,0.486,0.973,0.486l0.324-0.486v-0.487c0-1.622-2.216-4-6.648-7.135
	c-3.46-1.838-6.919-2.757-10.379-2.757h-0.811c-2.838,0-5.919,0.811-9.243,2.432h-0.648c-1.514-2.054-2.865-3.081-4.054-3.081
	H10.216z M19.783,32.433h0.163v0.486c0,0.189-0.703,0.892-2.108,2.107L17.189,36v0.648c0.378,0.649,0.864,0.974,1.459,0.974h0.973
	l0.812-0.162l0.162,0.324v0.162c0,0.27-0.433,0.486-1.298,0.648h-2.27c-1.027,0-2.217,0.541-3.568,1.621l-0.162-0.324
	c0-1.973,1.46-4.027,4.379-6.162C18.081,33.729,18.783,33.298,19.783,32.433z M23.189,31.298l0.324,0.162
	c0,1.162-0.703,2.891-2.108,5.188h-0.162v-0.162C22.297,33.081,22.946,31.351,23.189,31.298z M23.838,32.433
	c2.243,2.27,3.54,3.892,3.892,4.865c0.108,0.918,0.162,1.621,0.162,2.107c-0.108,0.648-0.271,0.973-0.486,0.973
	c-0.865-1.08-1.567-1.621-2.108-1.621c-0.729,0.107-1.324,0.162-1.783,0.162h-1.136c-0.567,0-0.945-0.217-1.135-0.648v-0.648h0.324
	l0.486,0.324h0.974c0.648,0,1.243-0.379,1.783-1.136v-1.297c-0.864-1.649-1.297-2.622-1.297-2.919L23.838,32.433z M28.864,24.162
	v0.162c-1.945,1.567-2.918,3.026-2.918,4.378c0.107,0.217,0.162,0.379,0.162,0.486c0.945,0,2.297-1.135,4.054-3.404
	c1.054-0.865,1.702-1.298,1.946-1.298l0.162,0.324c-0.514,0.378-1.703,1.946-3.568,4.703c-1.324,1.405-2.567,2.108-3.729,2.108H24
	c-0.217,0-0.324-0.108-0.324-0.324c1.107-4.434,2.188-6.649,3.243-6.649C27.216,24.378,27.864,24.216,28.864,24.162z M32.757,0
	h0.324c2.433,0.027,5.189,1.432,8.271,4.216c0.864,0.324,3.459,1.027,7.783,2.108c0,0.108,1.136,0.649,3.405,1.622
	c4.919,2.811,8.487,7.189,10.703,13.135c0,0.757,0.054,1.189,0.162,1.297c-0.162,2.432-0.486,3.73-0.973,3.892
	c-1.676-1.648-3.352-2.73-5.027-3.244v0.162c0.838,0.622,1.973,2.46,3.405,5.514c0.217,0.217,0.541,0.324,0.973,0.324l0.163-0.324
	c0-1.08-0.757-2.378-2.271-3.892L60,24.648c1.946,1.243,2.919,2.812,2.919,4.702c-0.189,0.974-0.622,1.46-1.298,1.46
	c-0.621,0-1.486-0.702-2.594-2.108c-2.946-3.135-5.433-5.08-7.46-5.838c-0.54-0.297-0.811-0.513-0.811-0.648v-0.325h0.162
	c3.757,1.622,6.459,3.297,8.108,5.027h0.162v-0.162c-0.406-1.081-1.108-2.217-2.108-3.406v-0.486
	c-1.757-0.432-3.541-0.81-5.352-1.135c0-0.189-0.271-0.297-0.811-0.324v-0.162l0.162-0.324l2.433,0.324
	c0.54-0.135,0.811-0.297,0.811-0.486l-0.162-0.325c0.243-0.973,0.459-1.459,0.648-1.459h0.324c0,0.108-0.054,0.27-0.162,0.486
	c0.243,0.973,0.514,1.459,0.811,1.459v-0.162c-0.107-0.216-0.162-0.378-0.162-0.487l0.487-0.324c0.135,0,0.405,0.271,0.811,0.811
	v0.162c0,0.216-0.108,0.324-0.324,0.324h-0.162l-0.486-0.324v0.324l1.297,0.486c0.648,0,0.973-0.541,0.973-1.622
	c0-2.027-1.676-4.567-5.026-7.622C50.352,10,46.514,8.757,41.676,8.757c-3.189,0-6.324,0.757-9.405,2.27
	c-1.298-0.243-1.946-0.513-1.946-0.811c2.811-2.433,4.216-4.054,4.216-4.865V5.027c-0.162-0.973-0.919-2.432-2.27-4.378V0.486
	C32.271,0.324,32.433,0.162,32.757,0z M35.838,26.595H36c-0.162,1.783-1.136,3.676-2.919,5.676c-0.676,0.54-1.217,0.811-1.622,0.811
	c-0.216-0.352-0.324-0.676-0.324-0.973c0.217-2.648,0.324-4.379,0.324-5.189l0.324-0.162c0.433,0.27,0.649,1.352,0.649,3.243h0.162
	C33.352,30,34.433,28.864,35.838,26.595z M35.027,2.108V2.27C35.676,3.189,36,4,36,4.703v1.784c0,0.216-0.162,0.757-0.486,1.622
	l5.188-0.648h2.595c4.757,0.784,8,1.973,9.73,3.567c3.107,1.946,5.486,5.405,7.135,10.378c0,0.757,0.378,1.297,1.135,1.621
	l0.324-0.486v-0.973c0-3.513-3.135-7.567-9.405-12.162c-4.162-1.946-7.514-2.919-10.054-2.919h-3.243
	c-0.217,0-0.541-0.703-0.973-2.108C36.702,2.865,35.729,2.108,35.027,2.108z M37.135,20.919c0.486,0.216,0.757,0.432,0.812,0.648
	v0.162c0,0.216-0.108,0.325-0.325,0.325c-0.648,0-0.973-0.325-0.973-0.973C36.864,20.973,37.027,20.919,37.135,20.919z
	 M41.189,11.676h1.621c4.486,0,8.217,1.838,11.189,5.513v0.487c-3.324-2.919-7-4.378-11.027-4.378
	c-1.919,0.108-3.378,0.324-4.378,0.648l-1.622-1.297C37.676,12,39.081,11.676,41.189,11.676z M46.216,19.135
	c0.298,0,0.838,0.162,1.622,0.486v0.486l-0.811-0.162c-0.541,0.162-0.812,0.541-0.812,1.135c0,0.757,0.379,1.135,1.136,1.135
	c0.757-0.459,1.892-0.784,3.405-0.973l0.162,0.324c-0.567,0-2.189,1.081-4.865,3.243h-0.486l-0.324-0.162l0.162-0.811
	c0-0.514-0.271-1.757-0.811-3.73C45.324,19.459,45.864,19.135,46.216,19.135z M50.271,22.541c0,0.108,0.054,0.162,0.162,0.162
	c-0.324,1.108-0.595,2.352-0.812,3.73c0.325,0.107,0.487,0.216,0.487,0.324c1.188-0.514,2.324-1.217,3.405-2.108h0.162v0.487
	c-1.784,2-3.298,3.242-4.541,3.729h-0.648c-0.216,0-0.324-0.162-0.324-0.486c0.027-1.378,0.676-3.324,1.946-5.837H50.271z"/>
</svg>
